SplineFontDB: 3.0
FontName: Untitled5
FullName: Untitled5
FamilyName: Untitled5
Weight: Regular
Copyright: Copyright (c) 2017, U-DELL-PC\\DELL,S-1-5-21-786944470-929993176-992857
UComments: "2017-5-23: Created with FontForge (http://fontforge.org)"
Version: 001.000
ItalicAngle: 0
UnderlinePosition: -100
UnderlineWidth: 50
Ascent: 800
Descent: 200
InvalidEm: 0
LayerCount: 2
Layer: 0 0 "+gMxmbwAA" 1
Layer: 1 0 "+Uk1mbwAA" 0
XUID: [1021 719 821916804 10894754]
FSType: 0
OS2Version: 0
OS2_WeightWidthSlopeOnly: 0
OS2_UseTypoMetrics: 1
CreationTime: 1495554944
ModificationTime: 1495559013
PfmFamily: 17
TTFWeight: 400
TTFWidth: 5
LineGap: 90
VLineGap: 0
OS2TypoAscent: 0
OS2TypoAOffset: 1
OS2TypoDescent: 0
OS2TypoDOffset: 1
OS2TypoLinegap: 90
OS2WinAscent: 0
OS2WinAOffset: 1
OS2WinDescent: 0
OS2WinDOffset: 1
HheadAscent: 0
HheadAOffset: 1
HheadDescent: 0
HheadDOffset: 1
OS2Vendor: 'PfEd'
Lookup: 1 0 0 "'aalt' Boponofo Kanji" { "'calt' Bopomofo Kanji-1"  "'aalt' Boponofo Kanji-1" ("intial") } ['aalt' ('DFLT' <'dflt' > 'bopo' <'dflt' > ) ]
Lookup: 5 0 0 "'calt' Bopomofo Kanji" { "'calt' Bopomofo Kanji-1"  } ['calt' ('DFLT' <'dflt' > 'bopo' <'dflt' > ) ]
MarkAttachClasses: 1
DEI: 91125
ContextSub2: class "'calt' Bopomofo Kanji-1" 0 0 0 0
EndFPST
ContextSub2: class "'calt' Bopomofo Kanji-1" 0 0 0 0
EndFPST
Encoding: Original
UnicodeInterp: none
NameList: AGL For New Fonts
DisplaySize: -48
AntiAlias: 1
FitToEm: 0
WinInfo: 0 25 10
BeginPrivate: 0
EndPrivate
BeginChars: 264 232

StartChar: exclam
Encoding: 2 33 2
Width: 500
VWidth: 2048
Flags: HW
LayerCount: 2
Fore
SplineSet
196.400390625 421.200195312 m 1
 196.400390625 599.200195312 l 1
 302.400390625 599.200195312 l 1
 302.400390625 421.200195312 l 1
 275.599609375 194.400390625 l 1
 227.200195312 194.400390625 l 1
 196.400390625 421.200195312 l 1
250.400390625 -24 m 0
 231.733398438 -24 216.266601562 -17.599609375 204 -4.7998046875 c 0
 191.733398438 7.7333984375 185.599609375 24.400390625 185.599609375 45.2001953125 c 0
 185.599609375 65.7333984375 191.733398438 82.2666015625 204 94.7998046875 c 0
 216.533203125 107.333007812 232 113.599609375 250.400390625 113.599609375 c 256
 268.799804688 113.599609375 284.266601562 107.333007812 296.799804688 94.7998046875 c 0
 309.06640625 82.533203125 315.200195312 66 315.200195312 45.2001953125 c 0
 315.200195312 34 313.666992188 24.400390625 310.599609375 16.400390625 c 128
 307.533203125 8.400390625 302.93359375 1.3330078125 296.799804688 -4.7998046875 c 0
 284.266601562 -17.599609375 268.799804688 -24 250.400390625 -24 c 0
EndSplineSet
EndChar

StartChar: quotedbl
Encoding: 3 34 3
Width: 500
VWidth: 2048
Flags: HW
LayerCount: 2
Fore
SplineSet
139.200195312 597.200195312 m 1
 208.799804688 597.200195312 l 1
 208.799804688 375.200195312 l 1
 139.200195312 375.200195312 l 1
 139.200195312 597.200195312 l 1
292.400390625 597.200195312 m 1
 362 597.200195312 l 1
 362 375.200195312 l 1
 292.400390625 375.200195312 l 1
 292.400390625 597.200195312 l 1
EndSplineSet
EndChar

StartChar: numbersign
Encoding: 4 35 4
Width: 500
VWidth: 2048
Flags: HW
LayerCount: 2
Fore
SplineSet
108 165.599609375 m 1
 4.7998046875 165.599609375 l 1
 4.7998046875 226.799804688 l 1
 123.599609375 226.799804688 l 1
 157.200195312 360.400390625 l 1
 50.7998046875 360.400390625 l 1
 50.7998046875 422 l 1
 172 422 l 1
 213.599609375 588 l 1
 277.599609375 588 l 1
 236 422 l 1
 334 422 l 1
 376 588 l 1
 440 588 l 1
 398 422 l 1
 495.599609375 422 l 1
 495.599609375 360.400390625 l 1
 383.200195312 360.400390625 l 1
 349.599609375 226.799804688 l 1
 449.599609375 226.799804688 l 1
 449.599609375 165.599609375 l 1
 334 165.599609375 l 1
 292.400390625 0 l 1
 228.400390625 0 l 1
 270.400390625 165.599609375 l 1
 172 165.599609375 l 1
 130 0 l 1
 66.400390625 0 l 1
 108 165.599609375 l 1
286 226.799804688 m 1
 319.200195312 360.400390625 l 1
 221.200195312 360.400390625 l 1
 187.599609375 226.799804688 l 1
 286 226.799804688 l 1
EndSplineSet
EndChar

StartChar: dollar
Encoding: 5 36 5
Width: 500
VWidth: 2048
Flags: HW
LayerCount: 2
Fore
SplineSet
224.799804688 0 m 1
 221.599609375 0.533203125 213.333007812 1.7998046875 200 3.7998046875 c 128
 186.666992188 5.7998046875 173.200195312 8.2666015625 159.599609375 11.2001953125 c 0
 146.266601562 14.1337890625 133.200195312 17.6669921875 120.400390625 21.7998046875 c 128
 107.599609375 25.93359375 94.1337890625 30.93359375 80 36.7998046875 c 1
 80 108.799804688 l 1
 94.400390625 100 108 92.599609375 120.799804688 86.599609375 c 128
 133.599609375 80.599609375 146.93359375 75.3330078125 160.799804688 70.7998046875 c 0
 188 61.7333984375 213.333007812 57.06640625 236.799804688 56.7998046875 c 1
 236.799804688 240 l 1
 212.799804688 244.266601562 190.866210938 250.333007812 171 258.200195312 c 128
 151.133789062 266.06640625 134.266601562 276.266601562 120.400390625 288.799804688 c 0
 106.799804688 301.06640625 96.6669921875 315.133789062 90 331 c 128
 83.3330078125 346.866210938 80 365.06640625 80 385.599609375 c 0
 80 427.200195312 94.1337890625 460.533203125 122.400390625 485.599609375 c 256
 150.666992188 510.666992188 184.799804688 524.93359375 224.799804688 528.400390625 c 1
 224.799804688 622.400390625 l 1
 296.799804688 622.400390625 l 1
 296.799804688 528.400390625 l 2
 297.06640625 527.866210938 302.733398438 526.866210938 313.799804688 525.400390625 c 128
 324.866210938 523.93359375 335.333007812 522.266601562 345.200195312 520.400390625 c 0
 356.133789062 518.266601562 367.06640625 515.866210938 378 513.200195312 c 128
 388.93359375 510.533203125 400 507.466796875 411.200195312 504 c 1
 411.200195312 434.799804688 l 1
 399.466796875 440.93359375 387.466796875 446.400390625 375.200195312 451.200195312 c 128
 362.93359375 456 352.93359375 459.466796875 345.200195312 461.599609375 c 0
 336.133789062 464.266601562 325.93359375 466.599609375 314.599609375 468.599609375 c 128
 303.266601562 470.599609375 293.333007812 471.866210938 284.799804688 472.400390625 c 1
 284.799804688 300 l 1
 337.333007812 291.466796875 377.866210938 274.400390625 406.400390625 248.799804688 c 0
 435.200195312 222.666992188 449.599609375 189.466796875 449.599609375 149.200195312 c 0
 449.599609375 128.93359375 445.866210938 110.200195312 438.400390625 93 c 128
 430.93359375 75.7998046875 419.200195312 60 403.200195312 45.599609375 c 0
 372.266601562 18.1337890625 336.799804688 3.2001953125 296.799804688 0.7998046875 c 1
 296.799804688 -120.400390625 l 1
 224.799804688 -120.400390625 l 1
 224.799804688 0 l 1
236.799804688 473.200195312 m 1
 211.733398438 471.866210938 191.466796875 463.866210938 176 449.200195312 c 0
 160.266601562 434.266601562 152.400390625 414.400390625 152.400390625 389.599609375 c 0
 152.400390625 377.333007812 154.266601562 366.799804688 158 358 c 128
 161.733398438 349.200195312 167.200195312 341.466796875 174.400390625 334.799804688 c 0
 189.06640625 321.466796875 209.866210938 312.533203125 236.799804688 308 c 1
 236.799804688 473.200195312 l 1
284.799804688 58.400390625 m 1
 311.733398438 59.2001953125 333.333007812 67.3330078125 349.599609375 82.7998046875 c 0
 366.133789062 98.533203125 374.400390625 119.333007812 374.400390625 145.200195312 c 0
 374.400390625 157.466796875 372.599609375 168.599609375 369 178.599609375 c 128
 365.400390625 188.599609375 359.733398438 197.06640625 352 204 c 0
 337.333007812 217.333007812 314.93359375 226.666992188 284.799804688 232 c 1
 284.799804688 58.400390625 l 1
EndSplineSet
EndChar

StartChar: percent
Encoding: 6 37 6
Width: 500
VWidth: 2048
Flags: HW
LayerCount: 2
Fore
SplineSet
144.400390625 317.200195312 m 0
 126.266601562 317.200195312 109.466796875 320.466796875 94 327 c 128
 78.533203125 333.533203125 65.2001953125 342.400390625 54 353.599609375 c 0
 42 365.599609375 32.8662109375 379.400390625 26.599609375 395 c 128
 20.3330078125 410.599609375 17.2001953125 427.200195312 17.2001953125 444.799804688 c 0
 17.2001953125 463.733398438 20.533203125 480.93359375 27.2001953125 496.400390625 c 128
 33.8662109375 511.866210938 42.7998046875 525.200195312 54 536.400390625 c 256
 65.2001953125 547.599609375 78.533203125 556.466796875 94 563 c 128
 109.466796875 569.533203125 126.400390625 572.799804688 144.799804688 572.799804688 c 0
 161.866210938 572.799804688 178.266601562 569.599609375 194 563.200195312 c 0
 209.466796875 556.799804688 223.200195312 547.599609375 235.200195312 535.599609375 c 0
 241.333007812 529.466796875 246.799804688 522.866210938 251.599609375 515.799804688 c 128
 256.400390625 508.733398438 260.266601562 501.599609375 263.200195312 494.400390625 c 0
 269.599609375 478.666992188 272.799804688 462.266601562 272.799804688 445.200195312 c 0
 272.799804688 427.599609375 269.599609375 410.93359375 263.200195312 395.200195312 c 128
 256.799804688 379.466796875 247.733398438 365.733398438 236 354 c 0
 224.799804688 342.799804688 211.333007812 333.866210938 195.599609375 327.200195312 c 128
 179.866210938 320.533203125 162.799804688 317.200195312 144.400390625 317.200195312 c 0
144.400390625 371.200195312 m 0
 154.266601562 371.200195312 163.733398438 373 172.799804688 376.599609375 c 128
 181.866210938 380.200195312 190 385.466796875 197.200195312 392.400390625 c 0
 203.333007812 398.533203125 208.466796875 406.06640625 212.599609375 415 c 128
 216.733398438 423.93359375 218.799804688 434 218.799804688 445.200195312 c 0
 218.799804688 465.466796875 211.599609375 482.799804688 197.200195312 497.200195312 c 0
 182.533203125 511.333007812 165.200195312 518.400390625 145.200195312 518.400390625 c 0
 124.666992188 518.400390625 107.200195312 511.466796875 92.7998046875 497.599609375 c 0
 86.1337890625 491.200195312 80.8662109375 483.466796875 77 474.400390625 c 128
 73.1337890625 465.333007812 71.2001953125 455.466796875 71.2001953125 444.799804688 c 0
 71.2001953125 423.733398438 78.2666015625 406.133789062 92.400390625 392 c 0
 98.2666015625 386.133789062 105.599609375 381.200195312 114.400390625 377.200195312 c 128
 123.200195312 373.200195312 133.200195312 371.200195312 144.400390625 371.200195312 c 0
20.7998046875 224 m 1
 480.799804688 398.400390625 l 1
 480.799804688 353.200195312 l 1
 20.7998046875 181.200195312 l 1
 20.7998046875 224 l 1
355.599609375 0 m 0
 319.333007812 0 288.93359375 12.2666015625 264.400390625 36.7998046875 c 0
 252.400390625 49.06640625 243.400390625 62.8662109375 237.400390625 78.2001953125 c 128
 231.400390625 93.533203125 228.400390625 109.866210938 228.400390625 127.200195312 c 0
 228.400390625 146.133789062 231.733398438 163.400390625 238.400390625 179 c 128
 245.06640625 194.599609375 254 208 265.200195312 219.200195312 c 256
 276.400390625 230.400390625 289.733398438 239.266601562 305.200195312 245.799804688 c 128
 320.666992188 252.333007812 337.466796875 255.599609375 355.599609375 255.599609375 c 0
 372.93359375 255.599609375 389.200195312 252.400390625 404.400390625 246 c 256
 419.599609375 239.599609375 433.333007812 230.266601562 445.599609375 218 c 0
 452.533203125 211.06640625 458.266601562 204 462.799804688 196.799804688 c 128
 467.333007812 189.599609375 471.06640625 182.666992188 474 176 c 0
 480.666992188 160.799804688 484 144.666992188 484 127.599609375 c 0
 484 110.799804688 481 94.6669921875 475 79.2001953125 c 128
 469 63.7333984375 459.599609375 49.599609375 446.799804688 36.7998046875 c 0
 434.266601562 24.533203125 420.333007812 15.3330078125 405 9.2001953125 c 128
 389.666992188 3.06640625 373.200195312 0 355.599609375 0 c 0
355.599609375 54 m 256
 376.133789062 54 393.599609375 61.2001953125 408 75.599609375 c 0
 422.133789062 89.7333984375 429.200195312 107.06640625 429.200195312 127.599609375 c 256
 429.200195312 148.133789062 422 165.599609375 407.599609375 180 c 256
 393.200195312 194.400390625 375.866210938 201.599609375 355.599609375 201.599609375 c 0
 335.06640625 201.599609375 317.733398438 194.533203125 303.599609375 180.400390625 c 256
 289.466796875 166.266601562 282.400390625 148.666992188 282.400390625 127.599609375 c 0
 282.400390625 106.799804688 289.466796875 89.3330078125 303.599609375 75.2001953125 c 256
 317.733398438 61.06640625 335.06640625 54 355.599609375 54 c 256
EndSplineSet
EndChar

StartChar: ampersand
Encoding: 7 38 7
Width: 500
VWidth: 2048
Flags: HW
LayerCount: 2
Fore
SplineSet
224.799804688 -12 m 0
 196.266601562 -12 169.93359375 -7.1337890625 145.799804688 2.599609375 c 128
 121.666992188 12.3330078125 100.799804688 25.599609375 83.2001953125 42.400390625 c 0
 66.1337890625 58.6669921875 52.400390625 78.06640625 42 100.599609375 c 128
 31.599609375 123.133789062 26.400390625 148.133789062 26.400390625 175.599609375 c 0
 26.400390625 193.466796875 28.7333984375 211.266601562 33.400390625 229 c 128
 38.06640625 246.733398438 45.06640625 263.466796875 54.400390625 279.200195312 c 0
 72.533203125 310.133789062 100.266601562 339.06640625 137.599609375 366 c 1
 124 385.466796875 114.133789062 404.266601562 108 422.400390625 c 0
 101.599609375 440.799804688 98.400390625 459.599609375 98.400390625 478.799804688 c 0
 98.400390625 499.866210938 101.866210938 518.06640625 108.799804688 533.400390625 c 128
 115.733398438 548.733398438 125.599609375 562 138.400390625 573.200195312 c 0
 164.799804688 596.400390625 201.06640625 608 247.200195312 608 c 0
 264.533203125 608 282 606.400390625 299.599609375 603.200195312 c 0
 307.333007812 601.866210938 315.733398438 600 324.799804688 597.599609375 c 128
 333.866210938 595.200195312 343.466796875 592.400390625 353.599609375 589.200195312 c 1
 353.599609375 516 l 1
 345.866210938 521.333007812 337.733398438 526 329.200195312 530 c 128
 320.666992188 534 312.533203125 537.06640625 304.799804688 539.200195312 c 0
 288.266601562 544 271.200195312 546.400390625 253.599609375 546.400390625 c 0
 226.666992188 546.400390625 205.866210938 540.400390625 191.200195312 528.400390625 c 0
 176.266601562 516.400390625 168.799804688 499.866210938 168.799804688 478.799804688 c 0
 168.799804688 463.333007812 172.666992188 447.06640625 180.400390625 430 c 0
 184.133789062 422 189.333007812 412.533203125 196 401.599609375 c 128
 202.666992188 390.666992188 211.599609375 377.733398438 222.799804688 362.799804688 c 2
 389.200195312 139.200195312 l 1
 399.333007812 152.266601562 407.06640625 168.799804688 412.400390625 188.799804688 c 0
 415.06640625 198.93359375 417 209.93359375 418.200195312 221.799804688 c 128
 419.400390625 233.666992188 420 246 420 258.799804688 c 0
 420 264.133789062 419.93359375 270.200195312 419.799804688 277 c 128
 419.666992188 283.799804688 419.333007812 291.866210938 418.799804688 301.200195312 c 2
 418.400390625 304 l 1
 484 304 l 1
 484 288.400390625 l 2
 484 245.200195312 479.06640625 207.599609375 469.200195312 175.599609375 c 0
 464.400390625 159.866210938 458.266601562 144.93359375 450.799804688 130.799804688 c 128
 443.333007812 116.666992188 434.533203125 103.599609375 424.400390625 91.599609375 c 1
 492.400390625 0 l 1
 407.200195312 0 l 1
 376 43.599609375 l 1
 365.333007812 34.533203125 354.266601562 26.533203125 342.799804688 19.599609375 c 128
 331.333007812 12.6669921875 318.799804688 6.7998046875 305.200195312 2 c 0
 294 -2 281.599609375 -5.3330078125 268 -8 c 128
 254.400390625 -10.6669921875 240 -12 224.799804688 -12 c 0
238 50 m 0
 244.666992188 50 250.866210938 50.400390625 256.599609375 51.2001953125 c 128
 262.333007812 52 268.266601562 53.2001953125 274.400390625 54.7998046875 c 0
 287.466796875 58.2666015625 299.466796875 62.93359375 310.400390625 68.7998046875 c 0
 316.799804688 72.2666015625 322.799804688 75.8662109375 328.400390625 79.599609375 c 0
 331.333007812 81.466796875 333.466796875 82.8662109375 334.799804688 83.7998046875 c 128
 336.133789062 84.7333984375 337.133789062 85.533203125 337.799804688 86.2001953125 c 128
 338.466796875 86.8662109375 339 87.3330078125 339.400390625 87.599609375 c 128
 339.799804688 87.8662109375 340.533203125 88.400390625 341.599609375 89.2001953125 c 1
 170.400390625 321.200195312 l 1
 145.599609375 301.200195312 127.333007812 280.666992188 115.599609375 259.599609375 c 0
 103.333007812 237.733398438 97.2001953125 214.266601562 97.2001953125 189.200195312 c 0
 97.2001953125 170 100.466796875 152 107 135.200195312 c 128
 113.533203125 118.400390625 123.466796875 103.333007812 136.799804688 90 c 0
 149.333007812 77.466796875 164.200195312 67.6669921875 181.400390625 60.599609375 c 128
 198.599609375 53.533203125 217.466796875 50 238 50 c 0
EndSplineSet
EndChar

StartChar: quotesingle
Encoding: 8 39 8
Width: 500
VWidth: 2048
Flags: HW
LayerCount: 2
Fore
SplineSet
215.200195312 597.200195312 m 1
 284.799804688 597.200195312 l 1
 284.799804688 375.200195312 l 1
 215.200195312 375.200195312 l 1
 215.200195312 597.200195312 l 1
EndSplineSet
EndChar

StartChar: parenleft
Encoding: 9 40 9
Width: 500
VWidth: 2048
Flags: HW
LayerCount: 2
Fore
SplineSet
242 -108 m 1
 221.200195312 -74.93359375 203.466796875 -43.2666015625 188.799804688 -13 c 128
 174.133789062 17.2666015625 161.866210938 47.466796875 152 77.599609375 c 0
 132.266601562 138.133789062 122.400390625 198 122.400390625 257.200195312 c 0
 122.400390625 316.133789062 132.266601562 376 152 436.799804688 c 0
 162.133789062 467.466796875 174.533203125 497.93359375 189.200195312 528.200195312 c 128
 203.866210938 558.466796875 221.466796875 589.599609375 242 621.599609375 c 1
 306 621.599609375 l 1
 287.06640625 589.333007812 271.266601562 558.466796875 258.599609375 529 c 128
 245.93359375 499.533203125 235.333007812 469.866210938 226.799804688 440 c 0
 217.733398438 408.533203125 211.06640625 377.866210938 206.799804688 348 c 128
 202.533203125 318.133789062 200.400390625 287.866210938 200.400390625 257.200195312 c 0
 200.400390625 225.733398438 202.599609375 195.133789062 207 165.400390625 c 128
 211.400390625 135.666992188 218 105.466796875 226.799804688 74.7998046875 c 256
 235.599609375 44.1337890625 246.400390625 14 259.200195312 -15.599609375 c 128
 272 -45.2001953125 287.599609375 -76 306 -108 c 1
 242 -108 l 1
 242 -108 l 1
EndSplineSet
EndChar

StartChar: parenright
Encoding: 10 41 10
Width: 500
VWidth: 2048
Flags: HW
LayerCount: 2
Fore
SplineSet
195.200195312 -108 m 1
 230.400390625 -46.400390625 256.93359375 14.7998046875 274.799804688 75.599609375 c 0
 283.06640625 104.133789062 289.466796875 133.733398438 294 164.400390625 c 128
 298.533203125 195.06640625 300.799804688 226 300.799804688 257.200195312 c 0
 300.799804688 287.06640625 298.599609375 317.400390625 294.200195312 348.200195312 c 128
 289.799804688 379 283.333007812 409.333007812 274.799804688 439.200195312 c 0
 266.533203125 467.733398438 255.799804688 497.333007812 242.599609375 528 c 128
 229.400390625 558.666992188 213.599609375 589.866210938 195.200195312 621.599609375 c 1
 259.200195312 621.599609375 l 1
 300 558.400390625 330 496.799804688 349.200195312 436.799804688 c 0
 368.93359375 376 378.799804688 316.133789062 378.799804688 257.200195312 c 0
 378.799804688 197.733398438 368.93359375 137.599609375 349.200195312 76.7998046875 c 0
 329.466796875 16.2666015625 299.466796875 -45.3330078125 259.200195312 -108 c 1
 195.200195312 -108 l 1
 195.200195312 -108 l 1
EndSplineSet
EndChar

StartChar: asterisk
Encoding: 11 42 11
Width: 500
VWidth: 2048
Flags: HW
LayerCount: 2
Fore
SplineSet
104 194.400390625 m 1
 200.799804688 342.799804688 l 1
 55.2001953125 406 l 1
 69.599609375 447.200195312 l 1
 220 398 l 1
 228 568 l 1
 271.200195312 568 l 1
 279.200195312 398 l 1
 429.599609375 447.200195312 l 1
 444 406 l 1
 298.400390625 342.799804688 l 1
 395.200195312 194.400390625 l 1
 357.599609375 167.599609375 l 1
 249.599609375 310.400390625 l 1
 141.599609375 167.599609375 l 1
 104 194.400390625 l 1
EndSplineSet
EndChar

StartChar: plus
Encoding: 12 43 12
Width: 500
VWidth: 2048
Flags: HW
LayerCount: 2
Fore
SplineSet
216.799804688 222.799804688 m 1
 39.2001953125 222.799804688 l 1
 39.2001953125 290.799804688 l 1
 216.799804688 290.799804688 l 1
 216.799804688 468.400390625 l 1
 284 468.400390625 l 1
 284 290.799804688 l 1
 462 290.799804688 l 1
 462 222.799804688 l 1
 284 222.799804688 l 1
 284 45.2001953125 l 1
 216.799804688 45.2001953125 l 1
 216.799804688 222.799804688 l 1
EndSplineSet
EndChar

StartChar: comma
Encoding: 13 44 13
Width: 500
VWidth: 2048
Flags: HW
LayerCount: 2
Fore
SplineSet
164 -113.200195312 m 1
 229.06640625 -84.1337890625 262.666992188 -39.599609375 264.799804688 20.400390625 c 1
 261.599609375 19.8662109375 258.733398438 19.466796875 256.200195312 19.2001953125 c 128
 253.666992188 18.93359375 251.200195312 18.7998046875 248.799804688 18.7998046875 c 0
 240.266601562 18.7998046875 232.266601562 20.06640625 224.799804688 22.599609375 c 128
 217.333007812 25.1337890625 210.666992188 29.06640625 204.799804688 34.400390625 c 0
 193.06640625 44.7998046875 187.200195312 59.466796875 187.200195312 78.400390625 c 0
 187.200195312 87.2001953125 188.666992188 95.533203125 191.599609375 103.400390625 c 128
 194.533203125 111.266601562 199.200195312 118 205.599609375 123.599609375 c 0
 210.93359375 128.133789062 217.599609375 131.93359375 225.599609375 135 c 128
 233.599609375 138.06640625 242.400390625 139.599609375 252 139.599609375 c 0
 274.666992188 139.599609375 292.266601562 130.533203125 304.799804688 112.400390625 c 0
 317.06640625 94.533203125 323.200195312 69.466796875 323.200195312 37.2001953125 c 0
 323.200195312 -8.400390625 310.93359375 -47.7333984375 286.400390625 -80.7998046875 c 0
 261.866210938 -113.599609375 227.200195312 -138.266601562 182.400390625 -154.799804688 c 1
 164 -113.200195312 l 1
EndSplineSet
EndChar

StartChar: hyphen
Encoding: 14 45 14
Width: 500
VWidth: 2048
Flags: HW
LayerCount: 2
Fore
SplineSet
86.400390625 273.200195312 m 1
 414.799804688 273.200195312 l 1
 414.799804688 207.599609375 l 1
 86.400390625 207.599609375 l 1
 86.400390625 273.200195312 l 1
EndSplineSet
EndChar

StartChar: period
Encoding: 15 46 15
Width: 500
VWidth: 2048
Flags: HW
LayerCount: 2
Fore
SplineSet
249.200195312 -10.7998046875 m 256
 231.06640625 -10.7998046875 215.733398438 -4.533203125 203.200195312 8 c 256
 190.666992188 20.533203125 184.400390625 36.7998046875 184.400390625 56.7998046875 c 256
 184.400390625 76.7998046875 190.666992188 93.06640625 203.200195312 105.599609375 c 256
 215.733398438 118.133789062 231.06640625 124.400390625 249.200195312 124.400390625 c 256
 267.333007812 124.400390625 282.666992188 118.133789062 295.200195312 105.599609375 c 256
 307.733398438 93.06640625 314 76.7998046875 314 56.7998046875 c 256
 314 36.7998046875 307.733398438 20.533203125 295.200195312 8 c 256
 282.666992188 -4.533203125 267.333007812 -10.7998046875 249.200195312 -10.7998046875 c 256
EndSplineSet
EndChar

StartChar: slash
Encoding: 16 47 16
Width: 500
VWidth: 2048
Flags: HW
LayerCount: 2
Fore
SplineSet
359.599609375 597.200195312 m 1
 435.599609375 597.200195312 l 1
 121.200195312 -76 l 1
 44.7998046875 -76 l 1
 359.599609375 597.200195312 l 1
EndSplineSet
EndChar

StartChar: zero
Encoding: 17 48 17
Width: 500
VWidth: 2048
Flags: HW
LayerCount: 2
Fore
SplineSet
250.400390625 -11.599609375 m 0
 186.400390625 -11.599609375 138.266601562 14.533203125 106 66.7998046875 c 0
 73.466796875 119.333007812 57.2001953125 196.400390625 57.2001953125 298 c 0
 57.2001953125 399.866210938 73.466796875 477.06640625 106 529.599609375 c 0
 138.266601562 581.866210938 186.400390625 608 250.400390625 608 c 0
 281.866210938 608 309.733398438 601.599609375 334 588.799804688 c 128
 358.266601562 576 378.666992188 556.266601562 395.200195312 529.599609375 c 0
 411.200195312 504 423.333007812 472.06640625 431.599609375 433.799804688 c 128
 439.866210938 395.533203125 444 350.266601562 444 298 c 256
 444 245.733398438 439.866210938 200.533203125 431.599609375 162.400390625 c 128
 423.333007812 124.266601562 411.200195312 92.400390625 395.200195312 66.7998046875 c 0
 362.400390625 14.533203125 314.133789062 -11.599609375 250.400390625 -11.599609375 c 0
250.400390625 52.400390625 m 0
 269.866210938 52.400390625 286.599609375 57.599609375 300.599609375 68 c 128
 314.599609375 78.400390625 326.133789062 93.466796875 335.200195312 113.200195312 c 0
 353.599609375 153.466796875 362.799804688 215.06640625 362.799804688 298 c 0
 362.799804688 381.200195312 353.599609375 442.799804688 335.200195312 482.799804688 c 0
 326.133789062 502.799804688 314.666992188 518 300.799804688 528.400390625 c 128
 286.93359375 538.799804688 270.133789062 544 250.400390625 544 c 0
 212.799804688 544 184.799804688 523.733398438 166.400390625 483.200195312 c 0
 157.06640625 463.200195312 150.06640625 438.06640625 145.400390625 407.799804688 c 128
 140.733398438 377.533203125 138.400390625 340.93359375 138.400390625 298 c 0
 138.400390625 214.799804688 147.733398438 153.200195312 166.400390625 113.200195312 c 0
 176 92.400390625 187.799804688 77.06640625 201.799804688 67.2001953125 c 128
 215.799804688 57.3330078125 232 52.400390625 250.400390625 52.400390625 c 0
EndSplineSet
EndChar

StartChar: one
Encoding: 18 49 18
Width: 500
VWidth: 2048
Flags: HW
LayerCount: 2
Fore
SplineSet
112 68 m 1
 237.599609375 68 l 1
 237.599609375 524.400390625 l 1
 102.400390625 494 l 1
 102.400390625 567.599609375 l 1
 236.799804688 597.200195312 l 1
 317.599609375 597.200195312 l 1
 317.599609375 68 l 1
 441.599609375 68 l 1
 441.599609375 0 l 1
 112 0 l 1
 112 68 l 1
EndSplineSet
EndChar

StartChar: two
Encoding: 19 50 19
Width: 500
VWidth: 2048
Flags: HW
LayerCount: 2
Fore
SplineSet
64.7998046875 53.599609375 m 2
 64.7998046875 58.6669921875 65.533203125 63.1337890625 67 67 c 128
 68.466796875 70.8662109375 71.06640625 74.6669921875 74.7998046875 78.400390625 c 0
 90 94.400390625 108 113.400390625 128.799804688 135.400390625 c 128
 149.599609375 157.400390625 171.866210938 181.333007812 195.599609375 207.200195312 c 0
 209.200195312 221.866210938 220.133789062 233.733398438 228.400390625 242.799804688 c 128
 236.666992188 251.866210938 243.466796875 259.333007812 248.799804688 265.200195312 c 128
 254.133789062 271.06640625 258.466796875 275.93359375 261.799804688 279.799804688 c 128
 265.133789062 283.666992188 268.666992188 287.866210938 272.400390625 292.400390625 c 0
 279.599609375 300.93359375 285.93359375 308.733398438 291.400390625 315.799804688 c 128
 296.866210938 322.866210938 301.799804688 329.533203125 306.200195312 335.799804688 c 128
 310.599609375 342.06640625 314.466796875 348.133789062 317.799804688 354 c 128
 321.133789062 359.866210938 324.133789062 365.733398438 326.799804688 371.599609375 c 0
 331.333007812 381.733398438 334.799804688 391.866210938 337.200195312 402 c 128
 339.599609375 412.133789062 340.799804688 422.799804688 340.799804688 434 c 0
 340.799804688 450 338.400390625 464.599609375 333.599609375 477.799804688 c 128
 328.799804688 491 321.466796875 502.266601562 311.599609375 511.599609375 c 0
 291.866210938 530.533203125 264.799804688 540 230.400390625 540 c 0
 206.400390625 540 181.06640625 535.599609375 154.400390625 526.799804688 c 256
 127.733398438 518 99.466796875 504.666992188 69.599609375 486.799804688 c 1
 69.599609375 568.400390625 l 1
 83.466796875 575.06640625 97.2666015625 580.866210938 111 585.799804688 c 128
 124.733398438 590.733398438 138 594.799804688 150.799804688 598 c 0
 164.133789062 601.466796875 177.333007812 604 190.400390625 605.599609375 c 128
 203.466796875 607.200195312 216.400390625 608 229.200195312 608 c 0
 256.93359375 608 282.93359375 604.266601562 307.200195312 596.799804688 c 128
 331.466796875 589.333007812 352.666992188 577.599609375 370.799804688 561.599609375 c 0
 386.799804688 547.466796875 399.599609375 530.200195312 409.200195312 509.799804688 c 128
 418.799804688 489.400390625 423.599609375 466.400390625 423.599609375 440.799804688 c 0
 423.599609375 427.200195312 422.133789062 413.93359375 419.200195312 401 c 128
 416.266601562 388.06640625 411.866210938 375.06640625 406 362 c 0
 403.06640625 355.333007812 399.733398438 348.799804688 396 342.400390625 c 128
 392.266601562 336 388.06640625 329.466796875 383.400390625 322.799804688 c 128
 378.733398438 316.133789062 373.466796875 309.133789062 367.599609375 301.799804688 c 128
 361.733398438 294.466796875 355.200195312 286.533203125 348 278 c 0
 340.266601562 268.93359375 331.06640625 258.400390625 320.400390625 246.400390625 c 128
 309.733398438 234.400390625 297.333007812 220.799804688 283.200195312 205.599609375 c 0
 273.06640625 194.666992188 263.733398438 184.866210938 255.200195312 176.200195312 c 128
 246.666992188 167.533203125 237.533203125 158.333007812 227.799804688 148.599609375 c 128
 218.06640625 138.866210938 207 127.733398438 194.599609375 115.200195312 c 128
 182.200195312 102.666992188 167.06640625 86.93359375 149.200195312 68 c 1
 427.599609375 68 l 1
 427.599609375 0 l 1
 64.7998046875 0 l 1
 64.7998046875 53.599609375 l 2
EndSplineSet
EndChar

StartChar: three
Encoding: 20 51 20
Width: 500
VWidth: 2048
Flags: HW
LayerCount: 2
Fore
SplineSet
230.400390625 -11.599609375 m 0
 217.599609375 -11.599609375 204.200195312 -11 190.200195312 -9.7998046875 c 128
 176.200195312 -8.599609375 162 -6.6669921875 147.599609375 -4 c 0
 135.333007812 -1.8662109375 121.866210938 1.06640625 107.200195312 4.7998046875 c 128
 92.533203125 8.533203125 78 12.93359375 63.599609375 18 c 1
 63.599609375 99.599609375 l 1
 77.2001953125 92.6669921875 90.533203125 86.400390625 103.599609375 80.7998046875 c 128
 116.666992188 75.2001953125 130.133789062 70.533203125 144 66.7998046875 c 0
 157.333007812 63.3330078125 170.466796875 60.7333984375 183.400390625 59 c 128
 196.333007812 57.2666015625 209.466796875 56.400390625 222.799804688 56.400390625 c 0
 267.06640625 56.400390625 301.06640625 66.400390625 324.799804688 86.400390625 c 0
 336.799804688 96.533203125 345.733398438 108.799804688 351.599609375 123.200195312 c 128
 357.466796875 137.599609375 360.400390625 153.733398438 360.400390625 171.599609375 c 0
 360.400390625 207.333007812 348.666992188 235.333007812 325.200195312 255.599609375 c 0
 313.733398438 265.466796875 299.866210938 273 283.599609375 278.200195312 c 128
 267.333007812 283.400390625 248.93359375 286 228.400390625 286 c 2
 166.799804688 286 l 1
 166.799804688 352.400390625 l 1
 228.400390625 352.400390625 l 2
 265.733398438 352.400390625 294.799804688 360.533203125 315.599609375 376.799804688 c 0
 336.133789062 392.799804688 346.400390625 415.866210938 346.400390625 446 c 0
 346.400390625 460.400390625 344 473.533203125 339.200195312 485.400390625 c 128
 334.400390625 497.266601562 327.200195312 507.333007812 317.599609375 515.599609375 c 0
 298.666992188 531.866210938 270.666992188 540 233.599609375 540 c 0
 222.666992188 540 211.06640625 539.333007812 198.799804688 538 c 128
 186.533203125 536.666992188 174 534.666992188 161.200195312 532 c 0
 135.333007812 526.666992188 108.799804688 518.666992188 81.599609375 508 c 1
 81.599609375 582.400390625 l 1
 113.866210938 590.666992188 142.666992188 597.06640625 168 601.599609375 c 0
 192.533203125 605.866210938 215.06640625 608 235.599609375 608 c 0
 263.599609375 608 289.400390625 604.400390625 313 597.200195312 c 128
 336.599609375 590 357.200195312 579.06640625 374.799804688 564.400390625 c 0
 391.333007812 550.533203125 404.06640625 533.866210938 413 514.400390625 c 128
 421.93359375 494.93359375 426.400390625 473.06640625 426.400390625 448.799804688 c 0
 426.400390625 431.466796875 424.06640625 416 419.400390625 402.400390625 c 128
 414.733398438 388.799804688 408 376.666992188 399.200195312 366 c 0
 381.06640625 344.400390625 354.400390625 328.93359375 319.200195312 319.599609375 c 1
 358.400390625 309.200195312 388.400390625 290.799804688 409.200195312 264.400390625 c 0
 420.133789062 250.533203125 428.06640625 235.200195312 433 218.400390625 c 128
 437.93359375 201.599609375 440.400390625 183.599609375 440.400390625 164.400390625 c 0
 440.400390625 137.733398438 435.866210938 113.533203125 426.799804688 91.7998046875 c 128
 417.733398438 70.06640625 404 51.3330078125 385.599609375 35.599609375 c 0
 367.466796875 20.1337890625 345.533203125 8.400390625 319.799804688 0.400390625 c 128
 294.06640625 -7.599609375 264.266601562 -11.599609375 230.400390625 -11.599609375 c 0
EndSplineSet
EndChar

StartChar: four
Encoding: 21 52 21
Width: 500
VWidth: 2048
Flags: HW
LayerCount: 2
Fore
SplineSet
298 142.400390625 m 1
 44.7998046875 142.400390625 l 1
 44.7998046875 218.799804688 l 1
 284.799804688 597.200195312 l 1
 378.400390625 597.200195312 l 1
 378.400390625 208 l 1
 458 208 l 1
 458 142.400390625 l 1
 378.400390625 142.400390625 l 1
 378.400390625 0 l 1
 298 0 l 1
 298 142.400390625 l 1
298 208 m 1
 298 523.599609375 l 1
 109.599609375 208 l 1
 298 208 l 1
EndSplineSet
EndChar

StartChar: five
Encoding: 22 53 22
Width: 500
VWidth: 2048
Flags: HW
LayerCount: 2
Fore
SplineSet
214 -11.599609375 m 0
 202 -11.599609375 188.599609375 -11.06640625 173.799804688 -10 c 128
 159 -8.93359375 145.06640625 -7.3330078125 132 -5.2001953125 c 0
 118.400390625 -3.06640625 105.866210938 -0.400390625 94.400390625 2.7998046875 c 128
 82.93359375 6 71.8662109375 9.7333984375 61.2001953125 14 c 1
 61.2001953125 96 l 1
 86 82.6669921875 110.666992188 72.7998046875 135.200195312 66.400390625 c 0
 160.266601562 59.7333984375 184.93359375 56.400390625 209.200195312 56.400390625 c 0
 255.599609375 56.400390625 290.666992188 68.1337890625 314.400390625 91.599609375 c 0
 338.400390625 115.06640625 350.400390625 148.133789062 350.400390625 190.799804688 c 0
 350.400390625 214 347.06640625 233.866210938 340.400390625 250.400390625 c 128
 333.733398438 266.93359375 324.666992188 280.666992188 313.200195312 291.599609375 c 0
 302 302.266601562 287.599609375 310.799804688 270 317.200195312 c 128
 252.400390625 323.599609375 231.466796875 326.799804688 207.200195312 326.799804688 c 0
 197.333007812 326.799804688 187.133789062 326.200195312 176.599609375 325 c 128
 166.06640625 323.799804688 155.733398438 322 145.599609375 319.599609375 c 0
 135.733398438 317.200195312 125.599609375 314 115.200195312 310 c 128
 104.799804688 306 95.3330078125 301.733398438 86.7998046875 297.200195312 c 1
 86.7998046875 597.200195312 l 1
 389.200195312 597.200195312 l 1
 389.200195312 529.200195312 l 1
 160.400390625 529.200195312 l 1
 160.400390625 382.400390625 l 1
 171.866210938 386.666992188 183.466796875 389.866210938 195.200195312 392 c 0
 206.133789062 393.866210938 217.866210938 394.799804688 230.400390625 394.799804688 c 0
 262.666992188 394.799804688 291.06640625 389.866210938 315.599609375 380 c 128
 340.133789062 370.133789062 360.799804688 356.799804688 377.599609375 340 c 0
 395.733398438 321.599609375 409.266601562 299.93359375 418.200195312 275 c 128
 427.133789062 250.06640625 431.599609375 222.533203125 431.599609375 192.400390625 c 0
 431.599609375 160.93359375 426.799804688 132.533203125 417.200195312 107.200195312 c 128
 407.599609375 81.8662109375 393.599609375 60.2666015625 375.200195312 42.400390625 c 0
 356.799804688 24.7998046875 334.333007812 11.400390625 307.799804688 2.2001953125 c 128
 281.266601562 -7 250 -11.599609375 214 -11.599609375 c 0
EndSplineSet
EndChar

StartChar: six
Encoding: 23 54 23
Width: 500
VWidth: 2048
Flags: HW
LayerCount: 2
Fore
SplineSet
257.200195312 -11.599609375 m 0
 220.666992188 -11.599609375 190.266601562 -5.1337890625 166 7.7998046875 c 128
 141.733398438 20.7333984375 121.733398438 39.3330078125 106 63.599609375 c 0
 89.2001953125 89.7333984375 76.8662109375 121.733398438 69 159.599609375 c 128
 61.1337890625 197.466796875 57.2001953125 240.799804688 57.2001953125 289.599609375 c 0
 57.2001953125 344.533203125 62.06640625 391.599609375 71.7998046875 430.799804688 c 128
 81.533203125 470 96 502.666992188 115.200195312 528.799804688 c 256
 134.400390625 554.93359375 158.06640625 574.666992188 186.200195312 588 c 128
 214.333007812 601.333007812 246.666992188 608 283.200195312 608 c 0
 294.133789062 608 304.733398438 607.466796875 315 606.400390625 c 128
 325.266601562 605.333007812 334.666992188 603.866210938 343.200195312 602 c 0
 353.866210938 599.866210938 363.93359375 597.200195312 373.400390625 594 c 128
 382.866210938 590.799804688 391.866210938 587.466796875 400.400390625 584 c 1
 400.400390625 509.599609375 l 1
 392.400390625 514.400390625 383.733398438 518.799804688 374.400390625 522.799804688 c 128
 365.06640625 526.799804688 355.866210938 530 346.799804688 532.400390625 c 0
 337.466796875 535.06640625 327.733398438 537 317.599609375 538.200195312 c 128
 307.466796875 539.400390625 297.733398438 540 288.400390625 540 c 0
 236.400390625 540 197.333007812 520.799804688 171.200195312 482.400390625 c 0
 144.799804688 443.466796875 131.599609375 386.666992188 131.599609375 312 c 1
 144.400390625 338.666992188 162.133789062 359.200195312 184.799804688 373.599609375 c 0
 196.799804688 381.06640625 209.333007812 386.466796875 222.400390625 389.799804688 c 128
 235.466796875 393.133789062 250 394.799804688 266 394.799804688 c 0
 292.666992188 394.799804688 317.133789062 390.400390625 339.400390625 381.599609375 c 128
 361.666992188 372.799804688 380.799804688 359.599609375 396.799804688 342 c 256
 412.799804688 324.400390625 424.666992188 302.93359375 432.400390625 277.599609375 c 128
 440.133789062 252.266601562 444 223.866210938 444 192.400390625 c 0
 444 159.866210938 439.93359375 131 431.799804688 105.799804688 c 128
 423.666992188 80.599609375 411.599609375 59.2001953125 395.599609375 41.599609375 c 256
 379.599609375 24 360.06640625 10.7333984375 337 1.7998046875 c 128
 313.93359375 -7.1337890625 287.333007812 -11.599609375 257.200195312 -11.599609375 c 0
257.200195312 51.599609375 m 0
 274.533203125 51.599609375 289.93359375 54.533203125 303.400390625 60.400390625 c 128
 316.866210938 66.2666015625 328.133789062 75.2001953125 337.200195312 87.2001953125 c 0
 355.333007812 110.93359375 364.400390625 145.733398438 364.400390625 191.599609375 c 0
 364.400390625 237.733398438 355.333007812 272.666992188 337.200195312 296.400390625 c 0
 327.866210938 308.666992188 316.400390625 317.599609375 302.799804688 323.200195312 c 128
 289.200195312 328.799804688 274.133789062 331.599609375 257.599609375 331.599609375 c 0
 238.93359375 331.599609375 222.799804688 328.333007812 209.200195312 321.799804688 c 128
 195.599609375 315.266601562 184.266601562 306.266601562 175.200195312 294.799804688 c 0
 165.866210938 283.06640625 158.599609375 268.599609375 153.400390625 251.400390625 c 128
 148.200195312 234.200195312 145.599609375 214.266601562 145.599609375 191.599609375 c 256
 145.599609375 168.93359375 148.200195312 149 153.400390625 131.799804688 c 128
 158.599609375 114.599609375 165.866210938 100.133789062 175.200195312 88.400390625 c 0
 184.266601562 76.93359375 195.599609375 67.93359375 209.200195312 61.400390625 c 128
 222.799804688 54.8662109375 238.799804688 51.599609375 257.200195312 51.599609375 c 0
EndSplineSet
EndChar

StartChar: seven
Encoding: 24 55 24
Width: 500
VWidth: 2048
Flags: HW
LayerCount: 2
Fore
SplineSet
345.599609375 529.200195312 m 1
 59.599609375 529.200195312 l 1
 59.599609375 597.200195312 l 1
 435.599609375 597.200195312 l 1
 435.599609375 562.799804688 l 1
 222 0 l 1
 137.599609375 0 l 1
 345.599609375 529.200195312 l 1
EndSplineSet
EndChar

StartChar: eight
Encoding: 25 56 25
Width: 500
VWidth: 2048
Flags: HW
LayerCount: 2
Fore
SplineSet
250 -11.599609375 m 0
 219.06640625 -11.599609375 191.799804688 -7.6669921875 168.200195312 0.2001953125 c 128
 144.599609375 8.06640625 124.533203125 19.2001953125 108 33.599609375 c 256
 91.466796875 48 78.7333984375 65.6669921875 69.7998046875 86.599609375 c 128
 60.8662109375 107.533203125 56.400390625 132 56.400390625 160 c 0
 56.400390625 202.400390625 67.06640625 237.06640625 88.400390625 264 c 0
 109.466796875 290.666992188 140 308.400390625 180 317.200195312 c 1
 163.733398438 321.200195312 148.666992188 327.333007812 134.799804688 335.599609375 c 128
 120.93359375 343.866210938 109.200195312 354 99.599609375 366 c 0
 89.466796875 378.533203125 82.06640625 392.266601562 77.400390625 407.200195312 c 128
 72.7333984375 422.133789062 70.400390625 438 70.400390625 454.799804688 c 0
 70.400390625 477.466796875 74.400390625 498.200195312 82.400390625 517 c 128
 90.400390625 535.799804688 102.533203125 552.266601562 118.799804688 566.400390625 c 0
 134.533203125 580 153.266601562 590.333007812 175 597.400390625 c 128
 196.733398438 604.466796875 221.866210938 608 250.400390625 608 c 256
 278.93359375 608 304.133789062 604.466796875 326 597.400390625 c 128
 347.866210938 590.333007812 366.666992188 580 382.400390625 566.400390625 c 0
 398.400390625 552.799804688 410.466796875 536.599609375 418.599609375 517.799804688 c 128
 426.733398438 499 430.799804688 477.866210938 430.799804688 454.400390625 c 0
 430.799804688 436.266601562 428.333007812 420 423.400390625 405.599609375 c 128
 418.466796875 391.200195312 411.333007812 378.133789062 402 366.400390625 c 256
 392.666992188 354.666992188 381.266601562 344.666992188 367.799804688 336.400390625 c 128
 354.333007812 328.133789062 338.799804688 321.733398438 321.200195312 317.200195312 c 1
 361.466796875 308.400390625 392.133789062 290.666992188 413.200195312 264 c 256
 434.266601562 237.333007812 444.799804688 202.93359375 444.799804688 160.799804688 c 0
 444.799804688 132.799804688 440.333007812 108.200195312 431.400390625 87 c 128
 422.466796875 65.7998046875 409.733398438 48 393.200195312 33.599609375 c 0
 376.400390625 18.93359375 356 7.7333984375 332 0 c 128
 308 -7.7333984375 280.666992188 -11.599609375 250 -11.599609375 c 0
250.400390625 347.200195312 m 256
 282.666992188 347.200195312 307.466796875 355.599609375 324.799804688 372.400390625 c 0
 341.866210938 389.200195312 350.400390625 413.599609375 350.400390625 445.599609375 c 0
 350.400390625 477.866210938 342 502.666992188 325.200195312 520 c 0
 308.133789062 537.06640625 283.200195312 545.599609375 250.400390625 545.599609375 c 0
 218.133789062 545.599609375 193.466796875 537.06640625 176.400390625 520 c 256
 159.333007812 502.93359375 150.799804688 478.133789062 150.799804688 445.599609375 c 0
 150.799804688 413.599609375 159.333007812 389.200195312 176.400390625 372.400390625 c 256
 193.466796875 355.599609375 218.133789062 347.200195312 250.400390625 347.200195312 c 256
251.599609375 51.599609375 m 256
 269.200195312 51.599609375 284.93359375 54.1337890625 298.799804688 59.2001953125 c 128
 312.666992188 64.2666015625 324.533203125 71.8662109375 334.400390625 82 c 256
 344.266601562 92.1337890625 351.599609375 104.333007812 356.400390625 118.599609375 c 128
 361.200195312 132.866210938 363.599609375 149.06640625 363.599609375 167.200195312 c 0
 363.599609375 186.93359375 361 203.866210938 355.799804688 218 c 128
 350.599609375 232.133789062 343.333007812 243.866210938 334 253.200195312 c 0
 314 273.466796875 286.133789062 283.599609375 250.400390625 283.599609375 c 0
 214.400390625 283.599609375 186.666992188 273.599609375 167.200195312 253.599609375 c 0
 157.866210938 244 150.599609375 232.06640625 145.400390625 217.799804688 c 128
 140.200195312 203.533203125 137.599609375 187.06640625 137.599609375 168.400390625 c 0
 137.599609375 150.266601562 140.06640625 133.93359375 145 119.400390625 c 128
 149.93359375 104.866210938 157.333007812 92.533203125 167.200195312 82.400390625 c 0
 177.333007812 72 189.533203125 64.2666015625 203.799804688 59.2001953125 c 128
 218.06640625 54.1337890625 234 51.599609375 251.599609375 51.599609375 c 256
EndSplineSet
EndChar

StartChar: nine
Encoding: 26 57 26
Width: 500
VWidth: 2048
Flags: HW
LayerCount: 2
Fore
SplineSet
215.200195312 -11.599609375 m 0
 205.333007812 -11.599609375 195.266601562 -11.1337890625 185 -10.2001953125 c 128
 174.733398438 -9.2666015625 164.93359375 -7.7333984375 155.599609375 -5.599609375 c 0
 147.06640625 -3.7333984375 137.733398438 -1.2001953125 127.599609375 2 c 128
 117.466796875 5.2001953125 107.733398438 8.6669921875 98.400390625 12.400390625 c 1
 98.400390625 86.7998046875 l 1
 106.93359375 81.7333984375 115.799804688 77.3330078125 125 73.599609375 c 128
 134.200195312 69.8662109375 143.200195312 66.7998046875 152 64.400390625 c 0
 171.200195312 59.06640625 190.799804688 56.400390625 210.799804688 56.400390625 c 0
 262.266601562 56.400390625 301.200195312 75.7333984375 327.599609375 114.400390625 c 0
 353.733398438 153.06640625 366.799804688 209.733398438 366.799804688 284.400390625 c 1
 360.666992188 270.799804688 352.93359375 258.799804688 343.599609375 248.400390625 c 128
 334.266601562 238 324.400390625 229.466796875 314 222.799804688 c 0
 291.866210938 208.666992188 264.400390625 201.599609375 231.599609375 201.599609375 c 0
 204.93359375 201.599609375 180.666992188 206.06640625 158.799804688 215 c 128
 136.93359375 223.93359375 118.133789062 237.200195312 102.400390625 254.799804688 c 0
 70.6669921875 290.533203125 54.7998046875 340.266601562 54.7998046875 404 c 0
 54.7998046875 435.466796875 58.7333984375 464.06640625 66.599609375 489.799804688 c 128
 74.466796875 515.533203125 86.7998046875 537.466796875 103.599609375 555.599609375 c 0
 119.599609375 573.200195312 139.200195312 586.333007812 162.400390625 595 c 128
 185.599609375 603.666992188 212 608 241.599609375 608 c 0
 278.133789062 608 308.533203125 601.533203125 332.799804688 588.599609375 c 128
 357.06640625 575.666992188 377.06640625 557.06640625 392.799804688 532.799804688 c 0
 409.866210938 506.133789062 422.266601562 473.733398438 430 435.599609375 c 128
 437.733398438 397.466796875 441.599609375 354.400390625 441.599609375 306.400390625 c 0
 441.599609375 253.599609375 437 207.333007812 427.799804688 167.599609375 c 128
 418.599609375 127.866210938 404 94.533203125 384 67.599609375 c 0
 364.266601562 40.93359375 340.133789062 21.06640625 311.599609375 8 c 128
 283.06640625 -5.06640625 250.93359375 -11.599609375 215.200195312 -11.599609375 c 0
241.200195312 264.799804688 m 0
 259.866210938 264.799804688 276 268.06640625 289.599609375 274.599609375 c 128
 303.200195312 281.133789062 314.533203125 290.133789062 323.599609375 301.599609375 c 0
 332.93359375 313.333007812 340.133789062 327.799804688 345.200195312 345 c 128
 350.266601562 362.200195312 352.799804688 382.133789062 352.799804688 404.799804688 c 256
 352.799804688 427.466796875 350.266601562 447.400390625 345.200195312 464.599609375 c 128
 340.133789062 481.799804688 332.93359375 496.266601562 323.599609375 508 c 0
 314.533203125 519.466796875 303.200195312 528.466796875 289.599609375 535 c 128
 276 541.533203125 259.866210938 544.799804688 241.200195312 544.799804688 c 0
 224.666992188 544.799804688 209.599609375 542 196 536.400390625 c 128
 182.400390625 530.799804688 170.93359375 521.866210938 161.599609375 509.599609375 c 0
 143.466796875 485.866210938 134.400390625 450.93359375 134.400390625 404.799804688 c 256
 134.400390625 358.666992188 143.466796875 323.733398438 161.599609375 300 c 0
 170.666992188 288 181.93359375 279.133789062 195.400390625 273.400390625 c 128
 208.866210938 267.666992188 224.133789062 264.799804688 241.200195312 264.799804688 c 0
EndSplineSet
EndChar

StartChar: colon
Encoding: 27 58 27
Width: 500
VWidth: 2048
Flags: HW
LayerCount: 2
Fore
SplineSet
252 310.400390625 m 256
 233.866210938 310.400390625 218.533203125 316.666992188 206 329.200195312 c 256
 193.466796875 341.733398438 187.200195312 358 187.200195312 378 c 256
 187.200195312 398 193.466796875 414.266601562 206 426.799804688 c 256
 218.533203125 439.333007812 233.866210938 445.599609375 252 445.599609375 c 256
 270.133789062 445.599609375 285.466796875 439.333007812 298 426.799804688 c 256
 310.533203125 414.266601562 316.799804688 398 316.799804688 378 c 256
 316.799804688 358 310.533203125 341.733398438 298 329.200195312 c 256
 285.466796875 316.666992188 270.133789062 310.400390625 252 310.400390625 c 256
252 24 m 256
 233.866210938 24 218.533203125 30.2666015625 206 42.7998046875 c 256
 193.466796875 55.3330078125 187.200195312 71.599609375 187.200195312 91.599609375 c 256
 187.200195312 111.599609375 193.466796875 127.866210938 206 140.400390625 c 256
 218.533203125 152.93359375 233.866210938 159.200195312 252 159.200195312 c 256
 270.133789062 159.200195312 285.466796875 152.93359375 298 140.400390625 c 256
 310.533203125 127.866210938 316.799804688 111.599609375 316.799804688 91.599609375 c 256
 316.799804688 71.599609375 310.533203125 55.3330078125 298 42.7998046875 c 256
 285.466796875 30.2666015625 270.133789062 24 252 24 c 256
EndSplineSet
EndChar

StartChar: semicolon
Encoding: 28 59 28
Width: 500
VWidth: 2048
Flags: HW
LayerCount: 2
Fore
SplineSet
248 281.200195312 m 0
 228.799804688 281.200195312 212.799804688 287.866210938 200 301.200195312 c 0
 186.666992188 314 180 331.06640625 180 352.400390625 c 0
 180 373.200195312 186.666992188 390.266601562 200 403.599609375 c 0
 212.799804688 416.666992188 228.799804688 423.200195312 248 423.200195312 c 0
 267.466796875 423.200195312 283.599609375 416.666992188 296.400390625 403.599609375 c 0
 309.466796875 390.533203125 316 373.466796875 316 352.400390625 c 0
 316 331.06640625 309.466796875 314 296.400390625 301.200195312 c 0
 283.599609375 287.866210938 267.466796875 281.200195312 248 281.200195312 c 0
161.599609375 -144.400390625 m 1
 229.866210938 -114 265.200195312 -67.2001953125 267.599609375 -4 c 1
 264.133789062 -4.7998046875 261.06640625 -5.3330078125 258.400390625 -5.599609375 c 128
 255.733398438 -5.8662109375 253.200195312 -6 250.799804688 -6 c 0
 242 -6 233.599609375 -4.599609375 225.599609375 -1.7998046875 c 128
 217.599609375 1 210.533203125 5.06640625 204.400390625 10.400390625 c 0
 192.133789062 21.8662109375 186 37.3330078125 186 56.7998046875 c 0
 186 66.1337890625 187.533203125 74.8662109375 190.599609375 83 c 128
 193.666992188 91.1337890625 198.533203125 98.1337890625 205.200195312 104 c 0
 210.799804688 109.06640625 217.799804688 113.133789062 226.200195312 116.200195312 c 128
 234.599609375 119.266601562 243.866210938 120.799804688 254 120.799804688 c 0
 277.733398438 120.799804688 296.266601562 111.333007812 309.599609375 92.400390625 c 0
 322.400390625 73.466796875 328.799804688 47.2001953125 328.799804688 13.599609375 c 0
 328.799804688 -34.400390625 315.866210938 -75.7333984375 290 -110.400390625 c 256
 264.133789062 -145.06640625 227.733398438 -170.93359375 180.799804688 -188 c 1
 161.599609375 -144.400390625 l 1
EndSplineSet
EndChar

StartChar: less
Encoding: 29 60 29
Width: 500
VWidth: 2048
Flags: HW
LayerCount: 2
Fore
SplineSet
39.2001953125 223.599609375 m 1
 39.2001953125 290 l 1
 462 457.200195312 l 1
 462 384.400390625 l 1
 122 256.400390625 l 1
 462 129.599609375 l 1
 462 56.400390625 l 1
 39.2001953125 223.599609375 l 1
EndSplineSet
EndChar

StartChar: equal
Encoding: 30 61 30
Width: 500
VWidth: 2048
Flags: HW
LayerCount: 2
Fore
SplineSet
39.2001953125 372 m 1
 462 372 l 1
 462 304 l 1
 39.2001953125 304 l 1
 39.2001953125 372 l 1
39.2001953125 209.599609375 m 1
 462 209.599609375 l 1
 462 140.799804688 l 1
 39.2001953125 140.799804688 l 1
 39.2001953125 209.599609375 l 1
EndSplineSet
EndChar

StartChar: greater
Encoding: 31 62 31
Width: 500
VWidth: 2048
Flags: HW
LayerCount: 2
Fore
SplineSet
39.2001953125 129.599609375 m 1
 379.200195312 256.400390625 l 1
 39.2001953125 384.400390625 l 1
 39.2001953125 457.200195312 l 1
 462 290 l 1
 462 223.599609375 l 1
 39.2001953125 56.400390625 l 1
 39.2001953125 129.599609375 l 1
EndSplineSet
EndChar

StartChar: question
Encoding: 32 63 32
Width: 500
VWidth: 2048
Flags: HW
LayerCount: 2
Fore
SplineSet
201.599609375 233.200195312 m 2
 201.599609375 254 205.599609375 273.466796875 213.599609375 291.599609375 c 0
 218.133789062 301.200195312 224.06640625 310.799804688 231.400390625 320.400390625 c 128
 238.733398438 330 248.133789062 340.533203125 259.599609375 352 c 2
 295.599609375 387.599609375 l 2
 303.333007812 395.333007812 310.200195312 402.733398438 316.200195312 409.799804688 c 128
 322.200195312 416.866210938 326.666992188 423.200195312 329.599609375 428.799804688 c 0
 336 440.266601562 339.200195312 452.799804688 339.200195312 466.400390625 c 0
 339.200195312 478.93359375 336.799804688 489.93359375 332 499.400390625 c 128
 327.200195312 508.866210938 320.93359375 516.93359375 313.200195312 523.599609375 c 0
 304.400390625 531.06640625 294.200195312 536.599609375 282.599609375 540.200195312 c 128
 271 543.799804688 258.133789062 545.599609375 244 545.599609375 c 0
 222.133789062 545.599609375 199.599609375 541.06640625 176.400390625 532 c 0
 164.400390625 527.466796875 152.200195312 521.733398438 139.799804688 514.799804688 c 128
 127.400390625 507.866210938 114.666992188 499.866210938 101.599609375 490.799804688 c 1
 101.599609375 566 l 1
 114.400390625 573.733398438 127.266601562 580.466796875 140.200195312 586.200195312 c 128
 153.133789062 591.93359375 165.599609375 596.533203125 177.599609375 600 c 0
 189.866210938 603.733398438 202.466796875 606.533203125 215.400390625 608.400390625 c 128
 228.333007812 610.266601562 241.733398438 611.200195312 255.599609375 611.200195312 c 0
 282.266601562 611.200195312 305.666992188 607.799804688 325.799804688 601 c 128
 345.93359375 594.200195312 362.799804688 584.799804688 376.400390625 572.799804688 c 0
 390.799804688 560 401.666992188 544.866210938 409 527.400390625 c 128
 416.333007812 509.93359375 420 491.200195312 420 471.200195312 c 0
 420 449.866210938 415.466796875 430.533203125 406.400390625 413.200195312 c 0
 396.799804688 395.333007812 379.866210938 374.400390625 355.599609375 350.400390625 c 2
 320.400390625 316 l 2
 301.733398438 297.866210938 290 283.466796875 285.200195312 272.799804688 c 0
 280.133789062 262.133789062 277.599609375 251.06640625 277.599609375 239.599609375 c 2
 277.599609375 188.799804688 l 1
 201.599609375 188.799804688 l 1
 201.599609375 233.200195312 l 2
241.200195312 -16 m 0
 224.666992188 -16 210.799804688 -10.400390625 199.599609375 0.7998046875 c 0
 193.733398438 6.6669921875 189.400390625 13.400390625 186.599609375 21 c 128
 183.799804688 28.599609375 182.400390625 36.6669921875 182.400390625 45.2001953125 c 256
 182.400390625 53.7333984375 183.799804688 61.7333984375 186.599609375 69.2001953125 c 128
 189.400390625 76.6669921875 193.599609375 83.2001953125 199.200195312 88.7998046875 c 0
 203.733398438 93.3330078125 209.533203125 97.2666015625 216.599609375 100.599609375 c 128
 223.666992188 103.93359375 231.733398438 105.599609375 240.799804688 105.599609375 c 0
 249.333007812 105.599609375 257.06640625 104.133789062 264 101.200195312 c 128
 270.93359375 98.2666015625 277.06640625 94.1337890625 282.400390625 88.7998046875 c 0
 293.599609375 77.599609375 299.200195312 63.06640625 299.200195312 45.2001953125 c 0
 299.200195312 27.06640625 293.599609375 12.400390625 282.400390625 1.2001953125 c 0
 270.93359375 -10.2666015625 257.200195312 -16 241.200195312 -16 c 0
EndSplineSet
EndChar

StartChar: at
Encoding: 33 64 33
Width: 500
VWidth: 2048
Flags: HW
LayerCount: 2
Fore
SplineSet
322.400390625 -127.599609375 m 0
 278.666992188 -127.599609375 237.533203125 -120 199 -104.799804688 c 128
 160.466796875 -89.599609375 126.93359375 -66.2666015625 98.400390625 -34.7998046875 c 0
 71.466796875 -4.93359375 50.7998046875 31.2001953125 36.400390625 73.599609375 c 128
 22 116 14.7998046875 164.400390625 14.7998046875 218.799804688 c 0
 14.7998046875 268.93359375 21 314.93359375 33.400390625 356.799804688 c 128
 45.7998046875 398.666992188 64.533203125 434.93359375 89.599609375 465.599609375 c 0
 115.200195312 497.06640625 145.06640625 520.333007812 179.200195312 535.400390625 c 128
 213.333007812 550.466796875 249.466796875 558 287.599609375 558 c 0
 318 558 344.599609375 553.466796875 367.400390625 544.400390625 c 128
 390.200195312 535.333007812 409.599609375 522.266601562 425.599609375 505.200195312 c 256
 441.599609375 488.133789062 453.866210938 467.400390625 462.400390625 443 c 128
 470.93359375 418.599609375 475.200195312 391.599609375 475.200195312 362 c 2
 475.200195312 54 l 1
 417.599609375 54 l 1
 417.599609375 98.400390625 l 1
 407.733398438 81.8662109375 394.133789062 68.93359375 376.799804688 59.599609375 c 0
 359.466796875 50.533203125 339.866210938 46 318 46 c 0
 296.666992188 46 276.866210938 50.1337890625 258.599609375 58.400390625 c 128
 240.333007812 66.6669921875 224.400390625 78.533203125 210.799804688 94 c 0
 198 108.400390625 187.799804688 126.133789062 180.200195312 147.200195312 c 128
 172.599609375 168.266601562 168.799804688 192 168.799804688 218.400390625 c 0
 168.799804688 242.666992188 172.266601562 265.200195312 179.200195312 286 c 128
 186.133789062 306.799804688 196.666992188 325.333007812 210.799804688 341.599609375 c 0
 225.466796875 358.400390625 241.93359375 370.666992188 260.200195312 378.400390625 c 128
 278.466796875 386.133789062 297.333007812 390 316.799804688 390 c 0
 328 390 338.466796875 388.799804688 348.200195312 386.400390625 c 128
 357.93359375 384 367.333007812 380.533203125 376.400390625 376 c 0
 394.266601562 366.666992188 408 353.866210938 417.599609375 337.599609375 c 1
 417.599609375 362.799804688 l 2
 417.599609375 383.599609375 414.599609375 402.599609375 408.599609375 419.799804688 c 128
 402.599609375 437 394 451.599609375 382.799804688 463.599609375 c 0
 371.599609375 475.866210938 357.799804688 485.200195312 341.400390625 491.599609375 c 128
 325 498 306.133789062 501.200195312 284.799804688 501.200195312 c 0
 254.93359375 501.200195312 227 494.866210938 201 482.200195312 c 128
 175 469.533203125 152.266601562 450.400390625 132.799804688 424.799804688 c 0
 113.866210938 400 99.400390625 370.333007812 89.400390625 335.799804688 c 128
 79.400390625 301.266601562 74.400390625 262.533203125 74.400390625 219.599609375 c 0
 74.400390625 174.266601562 80 133.799804688 91.2001953125 98.2001953125 c 128
 102.400390625 62.599609375 118.666992188 32.2666015625 140 7.2001953125 c 0
 160.799804688 -17.599609375 186.06640625 -36.7333984375 215.799804688 -50.2001953125 c 128
 245.533203125 -63.6669921875 278.666992188 -70.400390625 315.200195312 -70.400390625 c 0
 322.93359375 -70.400390625 330.400390625 -70.06640625 337.599609375 -69.400390625 c 128
 344.799804688 -68.7333984375 352 -67.7333984375 359.200195312 -66.400390625 c 256
 366.400390625 -65.06640625 373.666992188 -63.400390625 381 -61.400390625 c 128
 388.333007812 -59.400390625 395.866210938 -56.93359375 403.599609375 -54 c 1
 422.799804688 -108 l 1
 413.733398438 -111.733398438 405.200195312 -114.733398438 397.200195312 -117 c 128
 389.200195312 -119.266601562 381.200195312 -121.200195312 373.200195312 -122.799804688 c 0
 364.93359375 -124.400390625 356.93359375 -125.599609375 349.200195312 -126.400390625 c 128
 341.466796875 -127.200195312 332.533203125 -127.599609375 322.400390625 -127.599609375 c 0
325.200195312 104 m 0
 339.06640625 104 351.866210938 106.666992188 363.599609375 112 c 128
 375.333007812 117.333007812 385.466796875 125.06640625 394 135.200195312 c 256
 402.533203125 145.333007812 408.866210938 157.466796875 413 171.599609375 c 128
 417.133789062 185.733398438 419.200195312 201.200195312 419.200195312 218 c 256
 419.200195312 234.799804688 417.06640625 250.333007812 412.799804688 264.599609375 c 128
 408.533203125 278.866210938 402.133789062 291.06640625 393.599609375 301.200195312 c 0
 385.333007812 311.06640625 375.333007812 318.599609375 363.599609375 323.799804688 c 128
 351.866210938 329 338.93359375 331.599609375 324.799804688 331.599609375 c 0
 296.799804688 331.599609375 274.133789062 321.333007812 256.799804688 300.799804688 c 0
 248.266601562 290.666992188 241.799804688 278.733398438 237.400390625 265 c 128
 233 251.266601562 230.799804688 235.733398438 230.799804688 218.400390625 c 0
 230.799804688 200.799804688 233 185 237.400390625 171 c 128
 241.799804688 157 248.266601562 144.93359375 256.799804688 134.799804688 c 0
 274.133789062 114.266601562 296.93359375 104 325.200195312 104 c 0
EndSplineSet
EndChar

StartChar: A
Encoding: 34 65 34
Width: 500
VWidth: 2048
Flags: HW
LayerCount: 2
Fore
SplineSet
201.599609375 597.200195312 m 1
 299.599609375 597.200195312 l 1
 482.400390625 0 l 1
 398.799804688 0 l 1
 354.799804688 155.599609375 l 1
 145.599609375 155.599609375 l 1
 102.400390625 0 l 1
 18.7998046875 0 l 1
 201.599609375 597.200195312 l 1
335.599609375 220.400390625 m 1
 250.400390625 526 l 1
 165.200195312 220.400390625 l 1
 335.599609375 220.400390625 l 1
EndSplineSet
EndChar

StartChar: B
Encoding: 35 66 35
Width: 500
VWidth: 2048
Flags: HW
LayerCount: 2
Fore
SplineSet
70.400390625 597.200195312 m 1
 247.200195312 597.200195312 l 2
 308 597.200195312 355.06640625 584 388.400390625 557.599609375 c 0
 421.466796875 531.200195312 438 493.733398438 438 445.200195312 c 0
 438 426.533203125 435.733398438 410.06640625 431.200195312 395.799804688 c 128
 426.666992188 381.533203125 420.266601562 369.333007812 412 359.200195312 c 0
 403.466796875 349.06640625 392.666992188 340.599609375 379.599609375 333.799804688 c 128
 366.533203125 327 351.06640625 322.266601562 333.200195312 319.599609375 c 1
 372.666992188 313.466796875 403.466796875 296.799804688 425.599609375 269.599609375 c 0
 436.533203125 256 444.799804688 240.400390625 450.400390625 222.799804688 c 128
 456 205.200195312 458.799804688 185.466796875 458.799804688 163.599609375 c 0
 458.799804688 109.733398438 441.06640625 69.06640625 405.599609375 41.599609375 c 0
 369.866210938 13.8662109375 317.06640625 0 247.200195312 0 c 2
 70.400390625 0 l 1
 70.400390625 597.200195312 l 1
245.599609375 350.799804688 m 2
 265.866210938 350.799804688 282.866210938 352.666992188 296.599609375 356.400390625 c 128
 310.333007812 360.133789062 321.599609375 365.866210938 330.400390625 373.599609375 c 0
 347.733398438 388.533203125 356.400390625 412.133789062 356.400390625 444.400390625 c 0
 356.400390625 460.400390625 354.266601562 473.799804688 350 484.599609375 c 128
 345.733398438 495.400390625 339.333007812 504.133789062 330.799804688 510.799804688 c 0
 313.466796875 524.133789062 285.06640625 530.799804688 245.599609375 530.799804688 c 2
 151.599609375 530.799804688 l 1
 151.599609375 350.799804688 l 1
 245.599609375 350.799804688 l 2
247.200195312 66.400390625 m 2
 293.866210938 66.400390625 327.333007812 74.6669921875 347.599609375 91.2001953125 c 0
 367.599609375 107.466796875 377.599609375 134.400390625 377.599609375 172 c 0
 377.599609375 210.93359375 367.06640625 239.599609375 346 258 c 0
 324.666992188 276.133789062 291.733398438 285.200195312 247.200195312 285.200195312 c 2
 151.599609375 285.200195312 l 1
 151.599609375 66.400390625 l 1
 247.200195312 66.400390625 l 2
EndSplineSet
EndChar

StartChar: C
Encoding: 36 67 36
Width: 500
VWidth: 2048
Flags: HW
LayerCount: 2
Fore
SplineSet
300.799804688 -11.599609375 m 0
 263.466796875 -11.599609375 229.799804688 -4.93359375 199.799804688 8.400390625 c 128
 169.799804688 21.7333984375 144.133789062 42.1337890625 122.799804688 69.599609375 c 0
 101.733398438 96.7998046875 85.93359375 129.533203125 75.400390625 167.799804688 c 128
 64.8662109375 206.06640625 59.599609375 249.333007812 59.599609375 297.599609375 c 256
 59.599609375 345.866210938 64.8662109375 389.200195312 75.400390625 427.599609375 c 128
 85.93359375 466 101.866210938 498.93359375 123.200195312 526.400390625 c 256
 144.533203125 553.866210938 170.133789062 574.333007812 200 587.799804688 c 128
 229.866210938 601.266601562 263.466796875 608 300.799804688 608 c 0
 313.599609375 608 325.93359375 607.266601562 337.799804688 605.799804688 c 128
 349.666992188 604.333007812 360.400390625 602.400390625 370 600 c 256
 379.599609375 597.599609375 390.133789062 594.200195312 401.599609375 589.799804688 c 128
 413.06640625 585.400390625 423.599609375 580.533203125 433.200195312 575.200195312 c 1
 433.200195312 492.400390625 l 1
 413.733398438 508.666992188 392.533203125 521.06640625 369.599609375 529.599609375 c 0
 358.133789062 533.866210938 346.733398438 537.06640625 335.400390625 539.200195312 c 128
 324.06640625 541.333007812 312.400390625 542.400390625 300.400390625 542.400390625 c 0
 274.533203125 542.400390625 251.799804688 537.333007812 232.200195312 527.200195312 c 128
 212.599609375 517.06640625 196.266601562 501.866210938 183.200195312 481.599609375 c 0
 157.06640625 441.06640625 144 379.866210938 144 298 c 0
 144 216.400390625 157.06640625 155.333007812 183.200195312 114.799804688 c 256
 209.333007812 74.2666015625 248.666992188 54 301.200195312 54 c 0
 313.200195312 54 324.866210938 55.06640625 336.200195312 57.2001953125 c 128
 347.533203125 59.3330078125 358.93359375 62.533203125 370.400390625 66.7998046875 c 0
 392.533203125 75.06640625 413.466796875 87.466796875 433.200195312 104 c 1
 433.200195312 21.2001953125 l 1
 412.400390625 10.2666015625 391.333007812 2 370 -3.599609375 c 0
 359.599609375 -6.2666015625 348.466796875 -8.2666015625 336.599609375 -9.599609375 c 128
 324.733398438 -10.93359375 312.799804688 -11.599609375 300.799804688 -11.599609375 c 0
EndSplineSet
EndChar

StartChar: D
Encoding: 37 68 37
Width: 500
VWidth: 2048
Flags: HW
LayerCount: 2
Fore
SplineSet
58.7998046875 597.200195312 m 1
 180 597.200195312 l 2
 271.200195312 597.200195312 338.400390625 572.93359375 381.599609375 524.400390625 c 256
 424.799804688 475.866210938 446.400390625 400.400390625 446.400390625 298 c 0
 446.400390625 196.133789062 424.799804688 121.06640625 381.599609375 72.7998046875 c 0
 338.400390625 24.2666015625 271.200195312 0 180 0 c 2
 58.7998046875 0 l 1
 58.7998046875 597.200195312 l 1
178.400390625 66.400390625 m 2
 246.400390625 66.400390625 293.866210938 83.2001953125 320.799804688 116.799804688 c 0
 334.400390625 133.599609375 344.533203125 156.93359375 351.200195312 186.799804688 c 128
 357.866210938 216.666992188 361.200195312 254 361.200195312 298.799804688 c 0
 361.200195312 342.799804688 357.93359375 379.93359375 351.400390625 410.200195312 c 128
 344.866210938 440.466796875 334.799804688 464 321.200195312 480.799804688 c 0
 307.599609375 497.866210938 288.733398438 510.466796875 264.599609375 518.599609375 c 128
 240.466796875 526.733398438 211.733398438 530.799804688 178.400390625 530.799804688 c 2
 140 530.799804688 l 1
 140 66.400390625 l 1
 178.400390625 66.400390625 l 2
EndSplineSet
EndChar

StartChar: E
Encoding: 38 69 38
Width: 500
VWidth: 2048
Flags: HW
LayerCount: 2
Fore
SplineSet
82.7998046875 597.200195312 m 1
 437.200195312 597.200195312 l 1
 437.200195312 529.200195312 l 1
 163.599609375 529.200195312 l 1
 163.599609375 352.400390625 l 1
 425.200195312 352.400390625 l 1
 425.200195312 284.400390625 l 1
 163.599609375 284.400390625 l 1
 163.599609375 68 l 1
 444.799804688 68 l 1
 444.799804688 0 l 1
 82.7998046875 0 l 1
 82.7998046875 597.200195312 l 1
EndSplineSet
EndChar

StartChar: F
Encoding: 39 70 39
Width: 500
VWidth: 2048
Flags: HW
LayerCount: 2
Fore
SplineSet
97.2001953125 597.200195312 m 1
 448.799804688 597.200195312 l 1
 448.799804688 529.200195312 l 1
 178.400390625 529.200195312 l 1
 178.400390625 345.200195312 l 1
 423.599609375 345.200195312 l 1
 423.599609375 277.200195312 l 1
 178.400390625 277.200195312 l 1
 178.400390625 0 l 1
 97.2001953125 0 l 1
 97.2001953125 597.200195312 l 1
EndSplineSet
EndChar

StartChar: G
Encoding: 40 71 40
Width: 500
VWidth: 2048
Flags: HW
LayerCount: 2
Fore
SplineSet
284 -11.599609375 m 0
 245.866210938 -11.599609375 212.06640625 -4.6669921875 182.599609375 9.2001953125 c 128
 153.133789062 23.06640625 128.133789062 43.3330078125 107.599609375 70 c 0
 86.7998046875 97.2001953125 71.1337890625 129.866210938 60.599609375 168 c 128
 50.06640625 206.133789062 44.7998046875 249.333007812 44.7998046875 297.599609375 c 0
 44.7998046875 347.200195312 50.2666015625 391.133789062 61.2001953125 429.400390625 c 128
 72.1337890625 467.666992188 88 500.133789062 108.799804688 526.799804688 c 256
 129.599609375 553.466796875 154.866210938 573.666992188 184.599609375 587.400390625 c 128
 214.333007812 601.133789062 247.866210938 608 285.200195312 608 c 0
 311.866210938 608 336.400390625 604.533203125 358.799804688 597.599609375 c 0
 370.533203125 593.866210938 381.93359375 589.266601562 393 583.799804688 c 128
 404.06640625 578.333007812 414.799804688 572.133789062 425.200195312 565.200195312 c 1
 425.200195312 482.400390625 l 1
 413.733398438 493.333007812 402.333007812 502.533203125 391 510 c 128
 379.666992188 517.466796875 368.93359375 523.466796875 358.799804688 528 c 0
 347.06640625 533.06640625 335.06640625 536.733398438 322.799804688 539 c 128
 310.533203125 541.266601562 298.400390625 542.400390625 286.400390625 542.400390625 c 0
 260.533203125 542.400390625 237.866210938 537.466796875 218.400390625 527.599609375 c 128
 198.93359375 517.733398438 182.400390625 502.400390625 168.799804688 481.599609375 c 0
 155.466796875 461.06640625 145.533203125 435.666992188 139 405.400390625 c 128
 132.466796875 375.133789062 129.200195312 339.06640625 129.200195312 297.200195312 c 0
 129.200195312 255.06640625 132.400390625 219 138.799804688 189 c 128
 145.200195312 159 154.799804688 134 167.599609375 114 c 0
 192.666992188 74 231.866210938 54 285.200195312 54 c 0
 293.733398438 54 301.93359375 54.533203125 309.799804688 55.599609375 c 128
 317.666992188 56.6669921875 325.06640625 58.2666015625 332 60.400390625 c 0
 338.400390625 62.533203125 344.666992188 65.1337890625 350.799804688 68.2001953125 c 128
 356.93359375 71.2666015625 362.799804688 75.06640625 368.400390625 79.599609375 c 1
 368.400390625 240 l 1
 281.599609375 240 l 1
 281.599609375 306.400390625 l 1
 445.599609375 306.400390625 l 1
 445.599609375 49.2001953125 l 1
 424 29.2001953125 399.733398438 14.1337890625 372.799804688 4 c 0
 345.599609375 -6.400390625 316 -11.599609375 284 -11.599609375 c 0
EndSplineSet
EndChar

StartChar: H
Encoding: 41 72 41
Width: 500
VWidth: 2048
Flags: HW
LayerCount: 2
Fore
SplineSet
58.7998046875 597.200195312 m 1
 140 597.200195312 l 1
 140 352.400390625 l 1
 361.200195312 352.400390625 l 1
 361.200195312 597.200195312 l 1
 442.400390625 597.200195312 l 1
 442.400390625 0 l 1
 361.200195312 0 l 1
 361.200195312 284.400390625 l 1
 140 284.400390625 l 1
 140 0 l 1
 58.7998046875 0 l 1
 58.7998046875 597.200195312 l 1
EndSplineSet
EndChar

StartChar: I
Encoding: 42 73 42
Width: 500
VWidth: 2048
Flags: W
HStem: 0 68<84.4004 209.6 290.8 416> 529.2 68<84.4004 209.6 290.8 416>
VStem: 209.6 81.2002<68 529.2>
LayerCount: 2
Fore
SplineSet
84.400390625 68 m 1
 209.599609375 68 l 1
 209.599609375 529.200195312 l 1
 84.400390625 529.200195312 l 1
 84.400390625 597.200195312 l 1
 416 597.200195312 l 1
 416 529.200195312 l 1
 290.799804688 529.200195312 l 1
 290.799804688 68 l 1
 416 68 l 1
 416 0 l 1
 84.400390625 0 l 1
 84.400390625 68 l 1
EndSplineSet
EndChar

StartChar: J
Encoding: 43 74 43
Width: 500
VWidth: 2048
Flags: HW
LayerCount: 2
Fore
SplineSet
204.799804688 -11.599609375 m 0
 177.333007812 -11.599609375 151.333007812 -8.6669921875 126.799804688 -2.7998046875 c 0
 100.93359375 3.3330078125 74.533203125 12.400390625 47.599609375 24.400390625 c 1
 47.599609375 118.799804688 l 1
 71.8662109375 97.2001953125 96.93359375 81.06640625 122.799804688 70.400390625 c 0
 149.200195312 59.466796875 176.133789062 54 203.599609375 54 c 0
 221.466796875 54 237.266601562 56.400390625 251 61.2001953125 c 128
 264.733398438 66 275.466796875 73.599609375 283.200195312 84 c 0
 298.133789062 103.733398438 305.599609375 140.666992188 305.599609375 194.799804688 c 2
 305.599609375 529.200195312 l 1
 153.200195312 529.200195312 l 1
 153.200195312 597.200195312 l 1
 386.400390625 597.200195312 l 1
 386.400390625 194.799804688 l 2
 386.400390625 156.400390625 383 124.333007812 376.200195312 98.599609375 c 128
 369.400390625 72.8662109375 358.666992188 51.8662109375 344 35.599609375 c 256
 329.333007812 19.3330078125 310.599609375 7.400390625 287.799804688 -0.2001953125 c 128
 265 -7.7998046875 237.333007812 -11.599609375 204.799804688 -11.599609375 c 0
EndSplineSet
EndChar

StartChar: K
Encoding: 44 75 44
Width: 500
VWidth: 2048
Flags: HW
LayerCount: 2
Fore
SplineSet
58.7998046875 597.200195312 m 1
 140 597.200195312 l 1
 140 331.599609375 l 1
 392.400390625 597.200195312 l 1
 487.200195312 597.200195312 l 1
 254.799804688 353.200195312 l 1
 494 0 l 1
 396.400390625 0 l 1
 201.599609375 299.200195312 l 1
 140 233.599609375 l 1
 140 0 l 1
 58.7998046875 0 l 1
 58.7998046875 597.200195312 l 1
EndSplineSet
EndChar

StartChar: L
Encoding: 45 76 45
Width: 500
VWidth: 2048
Flags: HW
LayerCount: 2
Fore
SplineSet
90 597.200195312 m 1
 171.200195312 597.200195312 l 1
 171.200195312 68 l 1
 459.599609375 68 l 1
 459.599609375 0 l 1
 90 0 l 1
 90 597.200195312 l 1
EndSplineSet
EndChar

StartChar: M
Encoding: 46 77 46
Width: 500
VWidth: 2048
Flags: HW
LayerCount: 2
Fore
SplineSet
38.400390625 597.200195312 m 1
 146.400390625 597.200195312 l 1
 249.599609375 293.200195312 l 1
 353.599609375 597.200195312 l 1
 462 597.200195312 l 1
 462 0 l 1
 387.200195312 0 l 1
 387.200195312 527.599609375 l 1
 280.799804688 212.799804688 l 1
 219.599609375 212.799804688 l 1
 112.799804688 527.599609375 l 1
 112.799804688 0 l 1
 38.400390625 0 l 1
 38.400390625 597.200195312 l 1
EndSplineSet
EndChar

StartChar: N
Encoding: 47 78 47
Width: 500
VWidth: 2048
Flags: HW
LayerCount: 2
Fore
SplineSet
59.599609375 597.200195312 m 1
 162 597.200195312 l 1
 363.599609375 105.599609375 l 1
 363.599609375 597.200195312 l 1
 441.599609375 597.200195312 l 1
 441.599609375 0 l 1
 339.200195312 0 l 1
 137.599609375 491.599609375 l 1
 137.599609375 0 l 1
 59.599609375 0 l 1
 59.599609375 597.200195312 l 1
EndSplineSet
EndChar

StartChar: O
Encoding: 48 79 48
Width: 500
VWidth: 2048
Flags: W
HStem: -11.5996 65.5996<189.086 312.729> 542.4 65.5996<188.298 312.729>
VStem: 50.7998 84.4004<126.201 469.906> 366 84.4004<126.383 469.903>
LayerCount: 2
Fore
SplineSet
250.400390625 -11.599609375 m 0
 182.93359375 -11.599609375 132.799804688 13.8662109375 100 64.7998046875 c 0
 67.2001953125 115.466796875 50.7998046875 193.200195312 50.7998046875 298 c 0
 50.7998046875 402.533203125 67.3330078125 480.266601562 100.400390625 531.200195312 c 0
 116.93359375 556.799804688 137.533203125 576 162.200195312 588.799804688 c 0
 186.866210938 601.599609375 216.266601562 608 250.400390625 608 c 0
 283.200195312 608 312.266601562 601.866210938 337.599609375 589.599609375 c 0
 362.93359375 577.333007812 384.133789062 557.866210938 401.200195312 531.200195312 c 0
 434 480 450.400390625 402.266601562 450.400390625 298 c 0
 450.400390625 194 434 116.400390625 401.200195312 65.2001953125 c 0
 384.133789062 38.533203125 362.93359375 19.06640625 337.599609375 6.7998046875 c 0
 312.266601562 -5.466796875 283.200195312 -11.599609375 250.400390625 -11.599609375 c 0
250.400390625 54 m 0
 291.466796875 54 321.06640625 72.7998046875 339.200195312 110.400390625 c 0
 357.06640625 147.200195312 366 209.733398438 366 298 c 0
 366 386 357.06640625 448.666992188 339.200195312 486 c 0
 321.06640625 523.599609375 291.466796875 542.400390625 250.400390625 542.400390625 c 0
 209.599609375 542.400390625 180.266601562 523.599609375 162.400390625 486 c 0
 144.266601562 448.133789062 135.200195312 385.466796875 135.200195312 298 c 0
 135.200195312 210.799804688 144.266601562 148.266601562 162.400390625 110.400390625 c 0
 180.266601562 72.7998046875 209.599609375 54 250.400390625 54 c 0
EndSplineSet
EndChar

StartChar: P
Encoding: 49 80 49
Width: 500
VWidth: 2048
Flags: HW
LayerCount: 2
Fore
SplineSet
72.7998046875 597.200195312 m 1
 247.200195312 597.200195312 l 2
 313.599609375 597.200195312 364.133789062 582.133789062 398.799804688 552 c 0
 416.666992188 536.266601562 429.733398438 517.133789062 438 494.599609375 c 128
 446.266601562 472.06640625 450.400390625 446.666992188 450.400390625 418.400390625 c 0
 450.400390625 359.733398438 433.333007812 315.333007812 399.200195312 285.200195312 c 0
 382.400390625 270.266601562 361.333007812 259 336 251.400390625 c 128
 310.666992188 243.799804688 281.06640625 240 247.200195312 240 c 2
 153.599609375 240 l 1
 153.599609375 0 l 1
 72.7998046875 0 l 1
 72.7998046875 597.200195312 l 1
247.200195312 306.400390625 m 2
 267.200195312 306.400390625 284.400390625 309.06640625 298.799804688 314.400390625 c 128
 313.200195312 319.733398438 325.200195312 326.93359375 334.799804688 336 c 0
 355.599609375 355.466796875 366 383.06640625 366 418.799804688 c 0
 366 454.266601562 355.599609375 481.866210938 334.799804688 501.599609375 c 0
 314.266601562 521.06640625 285.06640625 530.799804688 247.200195312 530.799804688 c 2
 153.599609375 530.799804688 l 1
 153.599609375 306.400390625 l 1
 247.200195312 306.400390625 l 2
EndSplineSet
EndChar

StartChar: Q
Encoding: 50 81 50
Width: 500
VWidth: 2048
Flags: HW
LayerCount: 2
Fore
SplineSet
266 -10.7998046875 m 2
 264.400390625 -10.7998046875 264.400390625 -10.7998046875 262.599609375 -10.7998046875 c 128
 261.400390625 -10.7998046875 259.866210938 -10.93359375 258 -11.2001953125 c 256
 256.133789062 -11.466796875 254.599609375 -11.599609375 253.400390625 -11.599609375 c 128
 251.599609375 -11.599609375 251.599609375 -11.599609375 250.799804688 -11.599609375 c 0
 217.466796875 -11.599609375 188.333007812 -5.466796875 163.400390625 6.7998046875 c 128
 138.466796875 19.06640625 117.466796875 38.533203125 100.400390625 65.2001953125 c 256
 83.3330078125 91.8662109375 70.7998046875 124.533203125 62.7998046875 163.200195312 c 128
 54.7998046875 201.866210938 50.7998046875 246.799804688 50.7998046875 298 c 0
 50.7998046875 402.533203125 67.3330078125 480.266601562 100.400390625 531.200195312 c 0
 116.93359375 556.799804688 137.533203125 576 162.200195312 588.799804688 c 128
 186.866210938 601.599609375 216.266601562 608 250.400390625 608 c 0
 283.200195312 608 312.266601562 601.866210938 337.599609375 589.599609375 c 128
 362.93359375 577.333007812 384.133789062 557.866210938 401.200195312 531.200195312 c 0
 434 480 450.400390625 402.266601562 450.400390625 298 c 0
 450.400390625 219.866210938 441.333007812 156.799804688 423.200195312 108.799804688 c 0
 414.400390625 85.3330078125 403.06640625 65.06640625 389.200195312 48 c 128
 375.333007812 30.93359375 358.93359375 17.599609375 340 8 c 1
 454 -108 l 1
 359.599609375 -108 l 1
 266 -10.7998046875 l 2
250.400390625 54 m 0
 291.466796875 54 321.06640625 72.7998046875 339.200195312 110.400390625 c 0
 357.06640625 147.200195312 366 209.733398438 366 298 c 0
 366 386 357.06640625 448.666992188 339.200195312 486 c 0
 321.06640625 523.599609375 291.466796875 542.400390625 250.400390625 542.400390625 c 0
 209.599609375 542.400390625 180.266601562 523.599609375 162.400390625 486 c 0
 144.266601562 448.133789062 135.200195312 385.466796875 135.200195312 298 c 0
 135.200195312 210.799804688 144.266601562 148.266601562 162.400390625 110.400390625 c 0
 180.266601562 72.7998046875 209.599609375 54 250.400390625 54 c 0
EndSplineSet
EndChar

StartChar: R
Encoding: 51 82 51
Width: 500
VWidth: 2048
Flags: HW
LayerCount: 2
Fore
SplineSet
61.2001953125 597.200195312 m 1
 227.599609375 597.200195312 l 2
 293.200195312 597.200195312 343.466796875 582.400390625 378.400390625 552.799804688 c 0
 396 537.866210938 409.133789062 519.733398438 417.799804688 498.400390625 c 128
 426.466796875 477.06640625 430.799804688 452.93359375 430.799804688 426 c 0
 430.799804688 404.93359375 428.133789062 386.466796875 422.799804688 370.599609375 c 128
 417.466796875 354.733398438 409.466796875 340.533203125 398.799804688 328 c 0
 377.466796875 302.93359375 347.200195312 287.599609375 308 282 c 1
 318.666992188 279.333007812 328.533203125 275.400390625 337.599609375 270.200195312 c 128
 346.666992188 265 354.533203125 258.93359375 361.200195312 252 c 0
 368.666992188 244.266601562 376.733398438 233.400390625 385.400390625 219.400390625 c 128
 394.06640625 205.400390625 404.266601562 186.666992188 416 163.200195312 c 2
 497.200195312 0 l 1
 410.400390625 0 l 1
 339.200195312 150.799804688 l 2
 328.799804688 172.93359375 319 190.799804688 309.799804688 204.400390625 c 128
 300.599609375 218 292 227.866210938 284 234 c 0
 275.733398438 240.400390625 266.06640625 245.06640625 255 248 c 128
 243.93359375 250.93359375 232.133789062 252.400390625 219.599609375 252.400390625 c 2
 142.400390625 252.400390625 l 1
 142.400390625 0 l 1
 61.2001953125 0 l 1
 61.2001953125 597.200195312 l 1
230.799804688 318.799804688 m 2
 269.466796875 318.799804688 298.266601562 327.466796875 317.200195312 344.799804688 c 0
 326.533203125 353.333007812 333.599609375 364.266601562 338.400390625 377.599609375 c 128
 343.200195312 390.93359375 345.599609375 406.266601562 345.599609375 423.599609375 c 256
 345.599609375 440.93359375 343.133789062 456.266601562 338.200195312 469.599609375 c 128
 333.266601562 482.93359375 325.733398438 494.266601562 315.599609375 503.599609375 c 0
 306 512.133789062 293.93359375 518.799804688 279.400390625 523.599609375 c 128
 264.866210938 528.400390625 247.599609375 530.799804688 227.599609375 530.799804688 c 2
 142.400390625 530.799804688 l 1
 142.400390625 318.799804688 l 1
 230.799804688 318.799804688 l 2
EndSplineSet
EndChar

StartChar: S
Encoding: 52 83 52
Width: 500
VWidth: 2048
Flags: HW
LayerCount: 2
Fore
SplineSet
237.599609375 -11.599609375 m 0
 223.466796875 -11.599609375 209.200195312 -10.8662109375 194.799804688 -9.400390625 c 128
 180.400390625 -7.93359375 166.266601562 -5.7333984375 152.400390625 -2.7998046875 c 256
 138.533203125 0.1337890625 124.266601562 4 109.599609375 8.7998046875 c 128
 94.93359375 13.599609375 80.7998046875 18.7998046875 67.2001953125 24.400390625 c 1
 67.2001953125 110.400390625 l 1
 82.6669921875 100.533203125 97.599609375 92.06640625 112 85 c 128
 126.400390625 77.93359375 140.533203125 72.1337890625 154.400390625 67.599609375 c 0
 181.599609375 58.533203125 208.93359375 54 236.400390625 54 c 0
 256.400390625 54 274.466796875 56.2666015625 290.599609375 60.7998046875 c 128
 306.733398438 65.3330078125 320.533203125 72.1337890625 332 81.2001953125 c 0
 343.733398438 90.533203125 352.333007812 101.733398438 357.799804688 114.799804688 c 128
 363.266601562 127.866210938 366 142.93359375 366 160 c 0
 366 174.93359375 364.06640625 187.733398438 360.200195312 198.400390625 c 128
 356.333007812 209.06640625 350.533203125 218.266601562 342.799804688 226 c 0
 334.266601562 234.799804688 323.533203125 242 310.599609375 247.599609375 c 128
 297.666992188 253.200195312 281.200195312 258.266601562 261.200195312 262.799804688 c 2
 218 272.799804688 l 2
 191.06640625 278.93359375 167.533203125 286.533203125 147.400390625 295.599609375 c 128
 127.266601562 304.666992188 110.533203125 316 97.2001953125 329.599609375 c 0
 72.1337890625 354.666992188 59.599609375 388.666992188 59.599609375 431.599609375 c 0
 59.599609375 458.799804688 64.2666015625 483.200195312 73.599609375 504.799804688 c 128
 82.93359375 526.400390625 96.2666015625 544.93359375 113.599609375 560.400390625 c 0
 130.666992188 575.599609375 151.133789062 587.333007812 175 595.599609375 c 128
 198.866210938 603.866210938 226 608 256.400390625 608 c 0
 267.866210938 608 279.599609375 607.400390625 291.599609375 606.200195312 c 128
 303.599609375 605 316 603.06640625 328.799804688 600.400390625 c 0
 353.599609375 595.333007812 380.266601562 587.466796875 408.799804688 576.799804688 c 1
 408.799804688 494.799804688 l 1
 396 503.06640625 383.533203125 510.06640625 371.400390625 515.799804688 c 128
 359.266601562 521.533203125 347.200195312 526.400390625 335.200195312 530.400390625 c 0
 310.400390625 538.400390625 285.599609375 542.400390625 260.799804688 542.400390625 c 0
 242.666992188 542.400390625 225.733398438 540.266601562 210 536 c 128
 194.266601562 531.733398438 180.799804688 525.06640625 169.599609375 516 c 256
 158.400390625 506.93359375 150.133789062 496.133789062 144.799804688 483.599609375 c 128
 139.466796875 471.06640625 136.799804688 457.200195312 136.799804688 442 c 0
 136.799804688 428.400390625 138.733398438 417 142.599609375 407.799804688 c 128
 146.466796875 398.599609375 151.866210938 390.666992188 158.799804688 384 c 0
 167.06640625 376.266601562 177.666992188 369.599609375 190.599609375 364 c 128
 203.533203125 358.400390625 220 353.333007812 240 348.799804688 c 2
 282.400390625 339.200195312 l 2
 310.666992188 332.799804688 334.799804688 324.466796875 354.799804688 314.200195312 c 128
 374.799804688 303.93359375 391.333007812 291.733398438 404.400390625 277.599609375 c 0
 430.266601562 249.866210938 443.200195312 212 443.200195312 164 c 0
 443.200195312 133.599609375 438.533203125 107.666992188 429.200195312 86.2001953125 c 128
 419.866210938 64.7333984375 407.06640625 47.06640625 390.799804688 33.2001953125 c 0
 373.200195312 18.2666015625 351.533203125 7.06640625 325.799804688 -0.400390625 c 128
 300.06640625 -7.8662109375 270.666992188 -11.599609375 237.599609375 -11.599609375 c 0
EndSplineSet
EndChar

StartChar: T
Encoding: 53 84 53
Width: 500
VWidth: 2048
Flags: HW
LayerCount: 2
Fore
SplineSet
210.400390625 529.200195312 m 1
 22.7998046875 529.200195312 l 1
 22.7998046875 597.200195312 l 1
 478.400390625 597.200195312 l 1
 478.400390625 529.200195312 l 1
 291.599609375 529.200195312 l 1
 291.599609375 0 l 1
 210.400390625 0 l 1
 210.400390625 529.200195312 l 1
EndSplineSet
EndChar

StartChar: U
Encoding: 54 85 54
Width: 500
VWidth: 2048
Flags: HW
LayerCount: 2
Fore
SplineSet
250.400390625 -11.599609375 m 0
 236 -11.599609375 222.599609375 -10.599609375 210.200195312 -8.599609375 c 128
 197.799804688 -6.599609375 186 -3.7333984375 174.799804688 0 c 0
 164.400390625 3.7333984375 153.666992188 8.599609375 142.599609375 14.599609375 c 128
 131.533203125 20.599609375 121.733398438 27.466796875 113.200195312 35.2001953125 c 0
 104.93359375 42.6669921875 97.599609375 51.466796875 91.2001953125 61.599609375 c 128
 84.7998046875 71.7333984375 79.3330078125 84.400390625 74.7998046875 99.599609375 c 0
 72.6669921875 106.266601562 70.8662109375 113.733398438 69.400390625 122 c 128
 67.93359375 130.266601562 66.7333984375 139.599609375 65.7998046875 150 c 128
 64.8662109375 160.400390625 64.1337890625 172.06640625 63.599609375 185 c 128
 63.06640625 197.93359375 62.7998046875 212.666992188 62.7998046875 229.200195312 c 2
 62.7998046875 597.200195312 l 1
 144 597.200195312 l 1
 144 192.400390625 l 2
 144 163.333007812 144.799804688 142.666992188 146.400390625 130.400390625 c 0
 148 117.866210938 150.799804688 108.266601562 154.799804688 101.599609375 c 0
 163.333007812 85.8662109375 175.733398438 74 192 66 c 0
 208 58 227.466796875 54 250.400390625 54 c 0
 273.599609375 54 293.200195312 58 309.200195312 66 c 0
 325.733398438 74.2666015625 338.133789062 86.1337890625 346.400390625 101.599609375 c 0
 348.533203125 105.599609375 350.266601562 109.733398438 351.599609375 114 c 128
 352.93359375 118.266601562 354 123.599609375 354.799804688 130 c 0
 356.400390625 142.266601562 357.200195312 162.799804688 357.200195312 191.599609375 c 2
 357.200195312 597.200195312 l 1
 438 597.200195312 l 1
 438 229.200195312 l 2
 438 211.599609375 437.733398438 196.06640625 437.200195312 182.599609375 c 128
 436.666992188 169.133789062 435.93359375 157.266601562 435 147 c 128
 434.06640625 136.733398438 432.866210938 127.733398438 431.400390625 120 c 128
 429.93359375 112.266601562 428.400390625 105.466796875 426.799804688 99.599609375 c 0
 423.06640625 86.2666015625 417.866210938 74.2666015625 411.200195312 63.599609375 c 128
 404.533203125 52.93359375 396.666992188 43.466796875 387.599609375 35.2001953125 c 0
 378.799804688 27.2001953125 369 20.2666015625 358.200195312 14.400390625 c 128
 347.400390625 8.533203125 336.799804688 3.7333984375 326.400390625 0 c 0
 316.533203125 -3.466796875 305.333007812 -6.2666015625 292.799804688 -8.400390625 c 128
 280.266601562 -10.533203125 266.133789062 -11.599609375 250.400390625 -11.599609375 c 0
EndSplineSet
EndChar

StartChar: V
Encoding: 55 86 55
Width: 500
VWidth: 2048
Flags: HW
LayerCount: 2
Fore
SplineSet
26.7998046875 597.200195312 m 1
 110.400390625 597.200195312 l 1
 250.400390625 68 l 1
 390.799804688 597.200195312 l 1
 474.400390625 597.200195312 l 1
 299.599609375 0 l 1
 201.599609375 0 l 1
 26.7998046875 597.200195312 l 1
EndSplineSet
EndChar

StartChar: W
Encoding: 56 87 56
Width: 500
VWidth: 2048
Flags: HW
LayerCount: 2
Fore
SplineSet
4 597.200195312 m 1
 82.7998046875 597.200195312 l 1
 140 112.400390625 l 1
 208 433.200195312 l 1
 292.400390625 433.200195312 l 1
 361.200195312 111.599609375 l 1
 418.400390625 597.200195312 l 1
 497.200195312 597.200195312 l 1
 408 0 l 1
 331.599609375 0 l 1
 250.400390625 354.799804688 l 1
 169.599609375 0 l 1
 93.2001953125 0 l 1
 4 597.200195312 l 1
EndSplineSet
EndChar

StartChar: X
Encoding: 57 88 57
Width: 500
VWidth: 2048
Flags: HW
LayerCount: 2
Fore
SplineSet
211.200195312 316.400390625 m 1
 38.400390625 597.200195312 l 1
 125.200195312 597.200195312 l 1
 256.400390625 372 l 1
 390 597.200195312 l 1
 476.799804688 597.200195312 l 1
 298 316.400390625 l 1
 489.599609375 0 l 1
 402.799804688 0 l 1
 256.400390625 257.200195312 l 1
 98.400390625 0 l 1
 11.2001953125 0 l 1
 211.200195312 316.400390625 l 1
EndSplineSet
EndChar

StartChar: Y
Encoding: 58 89 58
Width: 500
VWidth: 2048
Flags: HW
LayerCount: 2
Fore
SplineSet
209.599609375 268 m 1
 18.7998046875 597.200195312 l 1
 104.799804688 597.200195312 l 1
 250.400390625 333.599609375 l 1
 395.599609375 597.200195312 l 1
 482.400390625 597.200195312 l 1
 290.799804688 268 l 1
 290.799804688 0 l 1
 209.599609375 0 l 1
 209.599609375 268 l 1
EndSplineSet
EndChar

StartChar: Z
Encoding: 59 90 59
Width: 500
VWidth: 2048
Flags: HW
LayerCount: 2
Fore
SplineSet
48 61.599609375 m 1
 351.599609375 529.200195312 l 1
 56.7998046875 529.200195312 l 1
 56.7998046875 597.200195312 l 1
 444.400390625 597.200195312 l 1
 444.400390625 535.599609375 l 1
 132.400390625 68 l 1
 453.200195312 68 l 1
 453.200195312 0 l 1
 48 0 l 1
 48 61.599609375 l 1
EndSplineSet
EndChar

StartChar: bracketleft
Encoding: 60 91 60
Width: 500
VWidth: 2048
Flags: HW
LayerCount: 2
Fore
SplineSet
173.200195312 654.400390625 m 1
 342.799804688 654.400390625 l 1
 342.799804688 597.200195312 l 1
 246.799804688 597.200195312 l 1
 246.799804688 -50.7998046875 l 1
 342.799804688 -50.7998046875 l 1
 342.799804688 -108 l 1
 173.200195312 -108 l 1
 173.200195312 654.400390625 l 1
EndSplineSet
EndChar

StartChar: backslash
Encoding: 61 92 61
Width: 500
VWidth: 2048
Flags: HW
LayerCount: 2
Fore
SplineSet
55.2001953125 597.200195312 m 1
 131.599609375 597.200195312 l 1
 446 -76 l 1
 370 -76 l 1
 55.2001953125 597.200195312 l 1
EndSplineSet
EndChar

StartChar: bracketright
Encoding: 62 93 62
Width: 500
VWidth: 2048
Flags: HW
LayerCount: 2
Fore
SplineSet
158.400390625 -50.7998046875 m 1
 254.400390625 -50.7998046875 l 1
 254.400390625 596.799804688 l 1
 158.400390625 596.799804688 l 1
 158.400390625 654 l 1
 328 654 l 1
 328 -108 l 1
 158.400390625 -108 l 1
 158.400390625 -50.7998046875 l 1
EndSplineSet
EndChar

StartChar: asciicircum
Encoding: 63 94 63
Width: 500
VWidth: 2048
Flags: HW
LayerCount: 2
Fore
SplineSet
215.200195312 597.200195312 m 1
 286 597.200195312 l 1
 468.400390625 374.400390625 l 1
 397.200195312 374.400390625 l 1
 250.400390625 532.400390625 l 1
 104 374.400390625 l 1
 32.7998046875 374.400390625 l 1
 215.200195312 597.200195312 l 1
EndSplineSet
EndChar

StartChar: underscore
Encoding: 64 95 64
Width: 500
VWidth: 2048
Flags: HW
LayerCount: 2
Fore
SplineSet
41.599609375 -76 m 1
 459.200195312 -76 l 1
 459.200195312 -124 l 1
 41.599609375 -124 l 1
 41.599609375 -76 l 1
EndSplineSet
EndChar

StartChar: grave
Encoding: 65 96 65
Width: 500
VWidth: 2048
Flags: HW
LayerCount: 2
Fore
SplineSet
245.599609375 504.799804688 m 1
 115.599609375 655.200195312 l 1
 194.799804688 655.200195312 l 1
 307.200195312 504.799804688 l 1
 245.599609375 504.799804688 l 1
EndSplineSet
EndChar

StartChar: a
Encoding: 66 97 66
Width: 500
VWidth: 2048
Flags: HW
LayerCount: 2
Fore
SplineSet
209.200195312 -11.599609375 m 0
 162.799804688 -11.599609375 126.133789062 1.3330078125 99.2001953125 27.2001953125 c 0
 86.400390625 39.466796875 76.400390625 53.93359375 69.2001953125 70.599609375 c 128
 62 87.2666015625 58.400390625 107.333007812 58.400390625 130.799804688 c 0
 58.400390625 180.133789062 75.2001953125 217.866210938 108.799804688 244 c 0
 141.866210938 269.866210938 190.93359375 282.799804688 256 282.799804688 c 2
 354.799804688 282.799804688 l 1
 354.799804688 294.400390625 l 2
 354.799804688 311.466796875 352.533203125 326.666992188 348 340 c 128
 343.466796875 353.333007812 336.666992188 364.133789062 327.599609375 372.400390625 c 0
 318.799804688 380.400390625 307.200195312 386.400390625 292.799804688 390.400390625 c 128
 278.400390625 394.400390625 261.599609375 396.400390625 242.400390625 396.400390625 c 0
 217.06640625 396.400390625 191.599609375 392.799804688 166 385.599609375 c 0
 140.133789062 378.400390625 115.200195312 367.866210938 91.2001953125 354 c 1
 91.2001953125 427.599609375 l 1
 102.400390625 431.866210938 114.799804688 436.133789062 128.400390625 440.400390625 c 128
 142 444.666992188 155.733398438 448.266601562 169.599609375 451.200195312 c 0
 193.866210938 456.266601562 218.266601562 458.799804688 242.799804688 458.799804688 c 0
 261.733398438 458.799804688 278.93359375 457.400390625 294.400390625 454.599609375 c 128
 309.866210938 451.799804688 324.266601562 447.599609375 337.599609375 442 c 0
 349.866210938 436.666992188 361.533203125 429.93359375 372.599609375 421.799804688 c 128
 383.666992188 413.666992188 393.06640625 404.266601562 400.799804688 393.599609375 c 0
 406.400390625 385.866210938 410.93359375 377.733398438 414.400390625 369.200195312 c 128
 417.866210938 360.666992188 420.533203125 352.266601562 422.400390625 344 c 0
 426.666992188 324.533203125 428.799804688 295.06640625 428.799804688 255.599609375 c 2
 428.799804688 164 l 2
 429.333007812 148.533203125 429.733398438 134.93359375 430 123.200195312 c 128
 430.266601562 111.466796875 431.06640625 100.533203125 432.400390625 90.400390625 c 0
 433.733398438 79.2001953125 435.266601562 68.6669921875 437 58.7998046875 c 128
 438.733398438 48.93359375 440.266601562 41.466796875 441.599609375 36.400390625 c 0
 443.466796875 28.1337890625 445.599609375 20.3330078125 448 13 c 128
 450.400390625 5.6669921875 451.866210938 1.3330078125 452.400390625 0 c 1
 378.400390625 0 l 1
 377.06640625 3.2001953125 375.400390625 7.93359375 373.400390625 14.2001953125 c 128
 371.400390625 20.466796875 369.466796875 27.3330078125 367.599609375 34.7998046875 c 0
 366.266601562 40.6669921875 365 46.599609375 363.799804688 52.599609375 c 128
 362.599609375 58.599609375 361.733398438 63.7333984375 361.200195312 68 c 1
 353.466796875 54.6669921875 343.533203125 42.7998046875 331.400390625 32.400390625 c 128
 319.266601562 22 307.333007812 13.7333984375 295.599609375 7.599609375 c 0
 282.799804688 0.93359375 269.266601562 -3.93359375 255 -7 c 128
 240.733398438 -10.06640625 225.466796875 -11.599609375 209.200195312 -11.599609375 c 0
224.400390625 50 m 0
 264.666992188 50 296.400390625 64.1337890625 319.599609375 92.400390625 c 0
 343.06640625 121.200195312 354.799804688 160 354.799804688 208.799804688 c 2
 354.799804688 225.200195312 l 1
 261.599609375 225.200195312 l 2
 218.93359375 225.200195312 186.666992188 217.733398438 164.799804688 202.799804688 c 0
 153.333007812 195.06640625 145 185.533203125 139.799804688 174.200195312 c 128
 134.599609375 162.866210938 132 149.733398438 132 134.799804688 c 0
 132 120.93359375 134.133789062 108.866210938 138.400390625 98.599609375 c 128
 142.666992188 88.3330078125 148.666992188 79.599609375 156.400390625 72.400390625 c 0
 164.133789062 65.466796875 173.533203125 60 184.599609375 56 c 128
 195.666992188 52 208.93359375 50 224.400390625 50 c 0
EndSplineSet
EndChar

StartChar: b
Encoding: 67 98 67
Width: 500
VWidth: 2048
Flags: HW
LayerCount: 2
Fore
SplineSet
274.400390625 -11.599609375 m 0
 260.799804688 -11.599609375 248.400390625 -10.2001953125 237.200195312 -7.400390625 c 128
 226 -4.599609375 214.93359375 -0.1337890625 204 6 c 0
 183.466796875 17.7333984375 167.06640625 34.533203125 154.799804688 56.400390625 c 1
 147.599609375 0 l 1
 81.2001953125 0 l 1
 81.2001953125 622.400390625 l 1
 154.799804688 622.400390625 l 1
 154.799804688 390.799804688 l 1
 166.266601562 412.666992188 182.533203125 429.466796875 203.599609375 441.200195312 c 0
 224.133789062 452.93359375 248.266601562 458.799804688 276 458.799804688 c 0
 301.599609375 458.799804688 325.133789062 453.733398438 346.599609375 443.599609375 c 128
 368.06640625 433.466796875 386.666992188 418 402.400390625 397.200195312 c 0
 417.866210938 376.400390625 429.466796875 351.466796875 437.200195312 322.400390625 c 128
 444.93359375 293.333007812 448.799804688 260.666992188 448.799804688 224.400390625 c 0
 448.799804688 151.333007812 433.333007812 93.7333984375 402.400390625 51.599609375 c 0
 387.200195312 30.7998046875 368.93359375 15.06640625 347.599609375 4.400390625 c 128
 326.266601562 -6.2666015625 301.866210938 -11.599609375 274.400390625 -11.599609375 c 0
264 50.7998046875 m 0
 299.466796875 50.7998046875 326.133789062 65.3330078125 344 94.400390625 c 0
 362.133789062 123.733398438 371.200195312 166.799804688 371.200195312 223.599609375 c 256
 371.200195312 280.400390625 362.133789062 323.466796875 344 352.799804688 c 0
 326.133789062 381.866210938 299.333007812 396.400390625 263.599609375 396.400390625 c 256
 227.866210938 396.400390625 200.799804688 381.866210938 182.400390625 352.799804688 c 0
 164 323.466796875 154.799804688 280.400390625 154.799804688 223.599609375 c 256
 154.799804688 166.799804688 164 123.866210938 182.400390625 94.7998046875 c 0
 200.799804688 65.466796875 228 50.7998046875 264 50.7998046875 c 0
EndSplineSet
EndChar

StartChar: c
Encoding: 68 99 68
Width: 500
VWidth: 2048
Flags: HW
LayerCount: 2
Fore
SplineSet
288.799804688 -11.599609375 m 0
 255.466796875 -11.599609375 225.133789062 -6.3330078125 197.799804688 4.2001953125 c 128
 170.466796875 14.7333984375 147.200195312 30.2666015625 128 50.7998046875 c 0
 108.533203125 71.599609375 93.93359375 96.466796875 84.2001953125 125.400390625 c 128
 74.466796875 154.333007812 69.599609375 187.06640625 69.599609375 223.599609375 c 0
 69.599609375 261.733398438 74.7333984375 295.200195312 85 324 c 128
 95.2666015625 352.799804688 109.733398438 377.06640625 128.400390625 396.799804688 c 0
 148.133789062 417.599609375 171.533203125 433.133789062 198.599609375 443.400390625 c 128
 225.666992188 453.666992188 255.866210938 458.799804688 289.200195312 458.799804688 c 0
 301.466796875 458.799804688 312.799804688 458.133789062 323.200195312 456.799804688 c 128
 333.599609375 455.466796875 343.866210938 453.333007812 354 450.400390625 c 0
 374.266601562 444.799804688 394.93359375 436.133789062 416 424.400390625 c 1
 416 347.200195312 l 1
 406.133789062 355.733398438 396.400390625 363.200195312 386.799804688 369.599609375 c 128
 377.200195312 376 367.466796875 381.06640625 357.599609375 384.799804688 c 0
 337.599609375 392.533203125 315.466796875 396.400390625 291.200195312 396.400390625 c 0
 244.799804688 396.400390625 209.200195312 381.466796875 184.400390625 351.599609375 c 0
 159.599609375 321.466796875 147.200195312 278.93359375 147.200195312 224 c 0
 147.200195312 198.400390625 150.06640625 174.666992188 155.799804688 152.799804688 c 128
 161.533203125 130.93359375 171.06640625 112 184.400390625 96 c 0
 209.466796875 65.8662109375 245.466796875 50.7998046875 292.400390625 50.7998046875 c 0
 305.733398438 50.7998046875 317.93359375 51.8662109375 329 54 c 128
 340.06640625 56.1337890625 350.266601562 59.06640625 359.599609375 62.7998046875 c 0
 371.599609375 67.3330078125 381.93359375 72.599609375 390.599609375 78.599609375 c 128
 399.266601562 84.599609375 407.733398438 91.466796875 416 99.2001953125 c 1
 416 22.7998046875 l 1
 406.93359375 17.466796875 397.06640625 12.533203125 386.400390625 8 c 128
 375.733398438 3.466796875 365.333007812 -0.2666015625 355.200195312 -3.2001953125 c 0
 345.866210938 -5.8662109375 335.666992188 -7.93359375 324.599609375 -9.400390625 c 128
 313.533203125 -10.8662109375 301.599609375 -11.599609375 288.799804688 -11.599609375 c 0
EndSplineSet
EndChar

StartChar: d
Encoding: 69 100 69
Width: 500
VWidth: 2048
Flags: HW
LayerCount: 2
Fore
SplineSet
227.599609375 -11.599609375 m 0
 199.333007812 -11.599609375 174.533203125 -6 153.200195312 5.2001953125 c 128
 131.866210938 16.400390625 114 31.8662109375 99.599609375 51.599609375 c 0
 84.1337890625 72.6669921875 72.533203125 97.7998046875 64.7998046875 127 c 128
 57.06640625 156.200195312 53.2001953125 188.799804688 53.2001953125 224.799804688 c 0
 53.2001953125 260.266601562 57 292.599609375 64.599609375 321.799804688 c 128
 72.2001953125 351 83.8662109375 376 99.599609375 396.799804688 c 256
 115.333007812 417.599609375 134.133789062 433.133789062 156 443.400390625 c 128
 177.866210938 453.666992188 201.733398438 458.799804688 227.599609375 458.799804688 c 0
 254.799804688 458.799804688 278.533203125 453.06640625 298.799804688 441.599609375 c 0
 319.333007812 429.866210938 335.466796875 412.93359375 347.200195312 390.799804688 c 1
 347.200195312 622.400390625 l 1
 420.799804688 622.400390625 l 1
 420.799804688 0 l 1
 354.400390625 0 l 1
 347.200195312 56.400390625 l 1
 341.06640625 45.7333984375 334.133789062 36.2001953125 326.400390625 27.7998046875 c 128
 318.666992188 19.400390625 309.333007812 12.1337890625 298.400390625 6 c 0
 278.133789062 -5.7333984375 254.533203125 -11.599609375 227.599609375 -11.599609375 c 0
238 50.7998046875 m 0
 274 50.7998046875 301.200195312 65.466796875 319.599609375 94.7998046875 c 0
 338 123.866210938 347.200195312 166.799804688 347.200195312 223.599609375 c 256
 347.200195312 280.400390625 338 323.466796875 319.599609375 352.799804688 c 0
 311.06640625 366.400390625 300.133789062 377.06640625 286.799804688 384.799804688 c 128
 273.466796875 392.533203125 257.333007812 396.400390625 238.400390625 396.400390625 c 0
 202.666992188 396.400390625 175.866210938 381.866210938 158 352.799804688 c 0
 139.866210938 323.466796875 130.799804688 280.400390625 130.799804688 223.599609375 c 256
 130.799804688 166.799804688 139.866210938 123.733398438 158 94.400390625 c 0
 167.333007812 79.2001953125 178.799804688 68.1337890625 192.400390625 61.2001953125 c 128
 206 54.2666015625 221.200195312 50.7998046875 238 50.7998046875 c 0
EndSplineSet
EndChar

StartChar: e
Encoding: 70 101 70
Width: 500
VWidth: 2048
Flags: HW
LayerCount: 2
Fore
SplineSet
274.799804688 -11.599609375 m 0
 240.400390625 -11.599609375 209.533203125 -6.3330078125 182.200195312 4.2001953125 c 128
 154.866210938 14.7333984375 131.599609375 30.2666015625 112.400390625 50.7998046875 c 256
 93.2001953125 71.3330078125 78.599609375 96.06640625 68.599609375 125 c 128
 58.599609375 153.93359375 53.599609375 186.666992188 53.599609375 223.200195312 c 0
 53.599609375 260.799804688 58.6669921875 293.799804688 68.7998046875 322.200195312 c 128
 78.93359375 350.599609375 92.93359375 374.799804688 110.799804688 394.799804688 c 0
 130.266601562 416.400390625 153.06640625 432.466796875 179.200195312 443 c 128
 205.333007812 453.533203125 233.466796875 458.799804688 263.599609375 458.799804688 c 0
 293.466796875 458.799804688 319.666992188 453.866210938 342.200195312 444 c 128
 364.733398438 434.133789062 384 419.866210938 400 401.200195312 c 256
 416 382.533203125 428.200195312 359.93359375 436.599609375 333.400390625 c 128
 445 306.866210938 449.200195312 276.533203125 449.200195312 242.400390625 c 2
 449.200195312 206.400390625 l 1
 130.400390625 206.400390625 l 1
 130.400390625 204 l 2
 130.400390625 155.200195312 143.200195312 117.466796875 168.799804688 90.7998046875 c 0
 181.06640625 78 195.93359375 68.1337890625 213.400390625 61.2001953125 c 128
 230.866210938 54.2666015625 251.733398438 50.7998046875 276 50.7998046875 c 256
 300.266601562 50.7998046875 324.93359375 54.533203125 350 62 c 0
 375.866210938 69.7333984375 403.200195312 81.06640625 432 96 c 1
 432 22.7998046875 l 1
 417.866210938 16.93359375 404.133789062 11.8662109375 390.799804688 7.599609375 c 128
 377.466796875 3.3330078125 364.266601562 -0.2666015625 351.200195312 -3.2001953125 c 0
 338.400390625 -6.1337890625 325.599609375 -8.2666015625 312.799804688 -9.599609375 c 128
 300 -10.93359375 287.333007812 -11.599609375 274.799804688 -11.599609375 c 0
375.599609375 264 m 1
 375.06640625 286.93359375 372.06640625 306.599609375 366.599609375 323 c 128
 361.133789062 339.400390625 354 352.666992188 345.200195312 362.799804688 c 0
 335.599609375 374 323.733398438 382.400390625 309.599609375 388 c 128
 295.466796875 393.599609375 279.599609375 396.400390625 262 396.400390625 c 0
 226 396.400390625 196.666992188 384.666992188 174 361.200195312 c 0
 151.06640625 337.466796875 137.466796875 304.93359375 133.200195312 263.599609375 c 1
 375.599609375 264 l 1
EndSplineSet
EndChar

StartChar: f
Encoding: 71 102 71
Width: 500
VWidth: 2048
Flags: HW
LayerCount: 2
Fore
SplineSet
190.400390625 390.799804688 m 1
 70.7998046875 390.799804688 l 1
 70.7998046875 448 l 1
 190.400390625 448 l 1
 190.400390625 479.200195312 l 2
 190.400390625 528.533203125 201.733398438 564.666992188 224.400390625 587.599609375 c 0
 246.799804688 610.799804688 281.866210938 622.400390625 329.599609375 622.400390625 c 2
 418 622.400390625 l 1
 418 561.200195312 l 1
 334.400390625 561.200195312 l 2
 320 561.200195312 308.466796875 559.799804688 299.799804688 557 c 128
 291.133789062 554.200195312 284.400390625 550.266601562 279.599609375 545.200195312 c 0
 269.200195312 534.266601562 264 515.06640625 264 487.599609375 c 2
 264 448 l 1
 418 448 l 1
 418 390.799804688 l 1
 264 390.799804688 l 1
 264 0 l 1
 190.400390625 0 l 1
 190.400390625 390.799804688 l 1
EndSplineSet
EndChar

StartChar: g
Encoding: 72 103 72
Width: 500
VWidth: 2048
Flags: HW
LayerCount: 2
Fore
SplineSet
244.400390625 -176 m 0
 234 -176 223.599609375 -175.533203125 213.200195312 -174.599609375 c 128
 202.799804688 -173.666992188 192 -172.266601562 180.799804688 -170.400390625 c 0
 169.866210938 -168.533203125 159 -166.266601562 148.200195312 -163.599609375 c 128
 137.400390625 -160.93359375 126.133789062 -157.733398438 114.400390625 -154 c 1
 114.400390625 -81.2001953125 l 1
 127.466796875 -87.3330078125 140.06640625 -92.6669921875 152.200195312 -97.2001953125 c 128
 164.333007812 -101.733398438 175.466796875 -105.466796875 185.599609375 -108.400390625 c 0
 206.400390625 -114.266601562 226.533203125 -117.200195312 246 -117.200195312 c 0
 265.733398438 -117.200195312 282.533203125 -114.533203125 296.400390625 -109.200195312 c 128
 310.266601562 -103.866210938 321.866210938 -95.599609375 331.200195312 -84.400390625 c 0
 349.333007812 -63.06640625 358.400390625 -28.93359375 358.400390625 18 c 2
 358.400390625 71.2001953125 l 1
 346.93359375 46.400390625 330.93359375 27.7333984375 310.400390625 15.2001953125 c 0
 290.133789062 2.93359375 265.599609375 -3.2001953125 236.799804688 -3.2001953125 c 0
 184.266601562 -3.2001953125 142.400390625 17.7333984375 111.200195312 59.599609375 c 256
 80 101.466796875 64.400390625 157.466796875 64.400390625 227.599609375 c 256
 64.400390625 297.733398438 80 353.866210938 111.200195312 396 c 0
 126.93359375 417.06640625 145.133789062 432.799804688 165.799804688 443.200195312 c 128
 186.466796875 453.599609375 210.266601562 458.799804688 237.200195312 458.799804688 c 0
 251.06640625 458.799804688 264.06640625 457.400390625 276.200195312 454.599609375 c 128
 288.333007812 451.799804688 299.466796875 447.466796875 309.599609375 441.599609375 c 0
 329.866210938 429.866210938 346.133789062 412.133789062 358.400390625 388.400390625 c 1
 365.599609375 446.400390625 l 1
 432 446.400390625 l 1
 432 28.7998046875 l 2
 432 -38.1337890625 416.133789062 -89.06640625 384.400390625 -124 c 0
 352.93359375 -158.666992188 306.266601562 -176 244.400390625 -176 c 0
252.799804688 58 m 0
 287.466796875 58 313.733398438 72.533203125 331.599609375 101.599609375 c 256
 349.466796875 130.666992188 358.400390625 172.666992188 358.400390625 227.599609375 c 0
 358.400390625 283.06640625 349.466796875 325.06640625 331.599609375 353.599609375 c 0
 322.266601562 368.799804688 310.866210938 379.733398438 297.400390625 386.400390625 c 128
 283.93359375 393.06640625 268.93359375 396.400390625 252.400390625 396.400390625 c 0
 216.666992188 396.400390625 189.333007812 382.133789062 170.400390625 353.599609375 c 256
 151.466796875 325.06640625 142 282.93359375 142 227.200195312 c 0
 142 172.533203125 151.599609375 130.666992188 170.799804688 101.599609375 c 256
 190 72.533203125 217.333007812 58 252.799804688 58 c 0
EndSplineSet
EndChar

StartChar: h
Encoding: 73 104 73
Width: 500
VWidth: 2048
Flags: HW
LayerCount: 2
Fore
SplineSet
82 622.400390625 m 1
 155.599609375 622.400390625 l 1
 155.599609375 380.799804688 l 1
 168.93359375 406.666992188 186.666992188 426.133789062 208.799804688 439.200195312 c 256
 230.93359375 452.266601562 257.333007812 458.799804688 288 458.799804688 c 0
 312 458.799804688 332.400390625 454.93359375 349.200195312 447.200195312 c 128
 366 439.466796875 379.866210938 428.400390625 390.799804688 414 c 0
 413.200195312 383.866210938 424.400390625 338.400390625 424.400390625 277.599609375 c 2
 424.400390625 0 l 1
 350.400390625 0 l 1
 350.400390625 277.599609375 l 2
 350.400390625 317.866210938 343.333007812 347.466796875 329.200195312 366.400390625 c 256
 315.06640625 385.333007812 292.799804688 394.799804688 262.400390625 394.799804688 c 0
 244.799804688 394.799804688 229.533203125 391.733398438 216.599609375 385.599609375 c 128
 203.666992188 379.466796875 192.666992188 370.400390625 183.599609375 358.400390625 c 0
 164.93359375 334.133789062 155.599609375 299.06640625 155.599609375 253.200195312 c 2
 155.599609375 0 l 1
 82 0 l 1
 82 622.400390625 l 1
EndSplineSet
EndChar

StartChar: i
Encoding: 74 105 74
Width: 500
VWidth: 2048
Flags: HW
LayerCount: 2
Fore
SplineSet
213.200195312 529.200195312 m 2
 205.200195312 529.200195312 201.200195312 533.200195312 201.200195312 541.200195312 c 2
 201.200195312 610.400390625 l 2
 201.200195312 618.400390625 205.200195312 622.400390625 213.200195312 622.400390625 c 2
 270.799804688 622.400390625 l 2
 278.799804688 622.400390625 282.799804688 618.400390625 282.799804688 610.400390625 c 2
 282.799804688 541.200195312 l 2
 282.799804688 533.200195312 278.799804688 529.200195312 270.799804688 529.200195312 c 2
 213.200195312 529.200195312 l 2
347.599609375 -3.2001953125 m 2
 326.266601562 -3.2001953125 307.133789062 0.1337890625 290.200195312 6.7998046875 c 128
 273.266601562 13.466796875 258.400390625 24.2666015625 245.599609375 39.2001953125 c 0
 221.333007812 67.466796875 209.200195312 107.466796875 209.200195312 159.200195312 c 2
 209.200195312 390.400390625 l 1
 111.200195312 390.400390625 l 1
 111.200195312 448 l 1
 282.799804688 448 l 1
 282.799804688 159.200195312 l 2
 282.799804688 125.866210938 288.93359375 100.93359375 301.200195312 84.400390625 c 0
 307.599609375 75.599609375 315.266601562 69.2001953125 324.200195312 65.2001953125 c 128
 333.133789062 61.2001953125 343.333007812 59.2001953125 354.799804688 59.2001953125 c 2
 440.799804688 59.2001953125 l 1
 440.799804688 -3.2001953125 l 1
 347.599609375 -3.2001953125 l 2
EndSplineSet
EndChar

StartChar: j
Encoding: 75 106 75
Width: 500
VWidth: 2048
Flags: HW
LayerCount: 2
Fore
SplineSet
264.799804688 529.200195312 m 2
 256.799804688 529.200195312 252.799804688 533.200195312 252.799804688 541.200195312 c 2
 252.799804688 610.400390625 l 2
 252.799804688 618.400390625 256.799804688 622.400390625 264.799804688 622.400390625 c 2
 322.400390625 622.400390625 l 2
 330.400390625 622.400390625 334.400390625 618.400390625 334.400390625 610.400390625 c 2
 334.400390625 541.200195312 l 2
 334.400390625 533.200195312 330.400390625 529.200195312 322.400390625 529.200195312 c 2
 264.799804688 529.200195312 l 2
99.2001953125 -108 m 1
 192.799804688 -108 l 2
 216.799804688 -108 234.799804688 -99.7333984375 246.799804688 -83.2001953125 c 0
 258.799804688 -66.400390625 264.799804688 -41.3330078125 264.799804688 -8 c 2
 264.799804688 390.799804688 l 1
 138 390.799804688 l 1
 138 448 l 1
 338.400390625 448 l 1
 338.400390625 -8 l 2
 338.400390625 -33.3330078125 335.466796875 -56.1337890625 329.599609375 -76.400390625 c 128
 323.733398438 -96.6669921875 314.799804688 -114 302.799804688 -128.400390625 c 256
 290.799804688 -142.799804688 276.200195312 -153.400390625 259 -160.200195312 c 128
 241.799804688 -167 222.400390625 -170.400390625 200.799804688 -170.400390625 c 2
 99.2001953125 -170.400390625 l 1
 99.2001953125 -108 l 1
EndSplineSet
EndChar

StartChar: k
Encoding: 76 107 76
Width: 500
VWidth: 2048
Flags: HW
LayerCount: 2
Fore
SplineSet
94.400390625 622.400390625 m 1
 170.400390625 622.400390625 l 1
 170.400390625 262 l 1
 363.599609375 448 l 1
 453.200195312 448 l 1
 276.799804688 279.200195312 l 1
 480.799804688 0 l 1
 390.799804688 0 l 1
 225.200195312 231.200195312 l 1
 170.400390625 179.599609375 l 1
 170.400390625 0 l 1
 94.400390625 0 l 1
 94.400390625 622.400390625 l 1
EndSplineSet
EndChar

StartChar: l
Encoding: 77 108 77
Width: 500
VWidth: 2048
Flags: HW
LayerCount: 2
Fore
SplineSet
332.400390625 -3.2001953125 m 1
 311.06640625 -3.2001953125 291.93359375 0.1337890625 275 6.7998046875 c 128
 258.06640625 13.466796875 243.200195312 24.2666015625 230.400390625 39.2001953125 c 0
 206.133789062 67.466796875 194 107.466796875 194 159.200195312 c 2
 194 564.799804688 l 1
 76 564.799804688 l 1
 76 622.400390625 l 1
 267.599609375 622.400390625 l 1
 267.599609375 159.200195312 l 2
 267.599609375 125.866210938 273.733398438 100.93359375 286 84.400390625 c 0
 292.400390625 75.599609375 300.06640625 69.2001953125 309 65.2001953125 c 128
 317.93359375 61.2001953125 328.133789062 59.2001953125 339.599609375 59.2001953125 c 2
 425.599609375 59.2001953125 l 1
 425.599609375 -3.2001953125 l 1
 332.400390625 -3.2001953125 l 1
 332.400390625 -3.2001953125 l 1
EndSplineSet
EndChar

StartChar: m
Encoding: 78 109 78
Width: 500
VWidth: 2048
Flags: HW
LayerCount: 2
Fore
SplineSet
47.599609375 448 m 1
 108 448 l 1
 114.400390625 409.599609375 l 1
 123.200195312 425.599609375 134.266601562 437.866210938 147.599609375 446.400390625 c 0
 160.666992188 454.666992188 175.733398438 458.799804688 192.799804688 458.799804688 c 0
 212.533203125 458.799804688 229.333007812 454.133789062 243.200195312 444.799804688 c 0
 256.266601562 435.733398438 266.666992188 421.599609375 274.400390625 402.400390625 c 1
 283.733398438 421.866210938 295.333007812 436.133789062 309.200195312 445.200195312 c 256
 323.06640625 454.266601562 339.866210938 458.799804688 359.599609375 458.799804688 c 0
 378 458.799804688 393.599609375 455.266601562 406.400390625 448.200195312 c 128
 419.200195312 441.133789062 429.06640625 430.799804688 436 417.200195312 c 0
 450.666992188 389.466796875 458 336.93359375 458 259.599609375 c 2
 458 0 l 1
 390.799804688 0 l 1
 390.799804688 256.400390625 l 2
 390.799804688 273.466796875 390.599609375 288.400390625 390.200195312 301.200195312 c 128
 389.799804688 314 389.133789062 325.133789062 388.200195312 334.599609375 c 128
 387.266601562 344.06640625 386.133789062 352.06640625 384.799804688 358.599609375 c 128
 383.466796875 365.133789062 381.866210938 370.400390625 380 374.400390625 c 0
 377.06640625 381.333007812 372.533203125 386.866210938 366.400390625 391 c 128
 360.266601562 395.133789062 351.599609375 397.200195312 340.400390625 397.200195312 c 0
 330.266601562 397.200195312 321.733398438 395.266601562 314.799804688 391.400390625 c 128
 307.866210938 387.533203125 302.400390625 381.333007812 298.400390625 372.799804688 c 0
 293.866210938 363.466796875 290.666992188 349.666992188 288.799804688 331.400390625 c 128
 286.93359375 313.133789062 286 288.133789062 286 256.400390625 c 2
 286 0 l 1
 218.799804688 0 l 1
 218.799804688 256.400390625 l 2
 218.799804688 275.866210938 218.533203125 292.333007812 218 305.799804688 c 128
 217.466796875 319.266601562 216.666992188 330.533203125 215.599609375 339.599609375 c 128
 214.533203125 348.666992188 213.266601562 355.93359375 211.799804688 361.400390625 c 128
 210.333007812 366.866210938 208.799804688 371.333007812 207.200195312 374.799804688 c 0
 203.733398438 381.733398438 198.733398438 387.200195312 192.200195312 391.200195312 c 128
 185.666992188 395.200195312 177.200195312 397.200195312 166.799804688 397.200195312 c 0
 155.599609375 397.200195312 146.866210938 395 140.599609375 390.599609375 c 128
 134.333007812 386.200195312 129.599609375 380.400390625 126.400390625 373.200195312 c 0
 124.533203125 369.200195312 122.866210938 364.133789062 121.400390625 358 c 128
 119.93359375 351.866210938 118.666992188 344.200195312 117.599609375 335 c 128
 116.533203125 325.799804688 115.733398438 314.799804688 115.200195312 302 c 128
 114.666992188 289.200195312 114.400390625 274 114.400390625 256.400390625 c 2
 114.400390625 0 l 1
 47.599609375 0 l 1
 47.599609375 448 l 1
EndSplineSet
EndChar

StartChar: n
Encoding: 79 110 79
Width: 500
VWidth: 2048
Flags: HW
LayerCount: 2
Fore
SplineSet
82 448 m 1
 148.400390625 448 l 1
 155.599609375 380.799804688 l 1
 168.93359375 406.666992188 186.666992188 426.133789062 208.799804688 439.200195312 c 256
 230.93359375 452.266601562 257.333007812 458.799804688 288 458.799804688 c 0
 312 458.799804688 332.400390625 454.93359375 349.200195312 447.200195312 c 128
 366 439.466796875 379.866210938 428.400390625 390.799804688 414 c 0
 413.200195312 383.866210938 424.400390625 338.400390625 424.400390625 277.599609375 c 2
 424.400390625 0 l 1
 350.400390625 0 l 1
 350.400390625 277.599609375 l 2
 350.400390625 317.866210938 343.333007812 347.466796875 329.200195312 366.400390625 c 256
 315.06640625 385.333007812 292.799804688 394.799804688 262.400390625 394.799804688 c 0
 244.799804688 394.799804688 229.533203125 391.733398438 216.599609375 385.599609375 c 128
 203.666992188 379.466796875 192.666992188 370.400390625 183.599609375 358.400390625 c 0
 164.93359375 334.133789062 155.599609375 299.06640625 155.599609375 253.200195312 c 2
 155.599609375 0 l 1
 82 0 l 1
 82 448 l 1
EndSplineSet
EndChar

StartChar: o
Encoding: 80 111 80
Width: 500
VWidth: 2048
Flags: W
HStem: -11.5996 62.3994<185.519 316.03> 396.4 62.3994<185.892 316.291>
VStem: 58.7998 78<107.783 339.948> 364.4 78<107.271 339.981>
LayerCount: 2
Fore
SplineSet
250.400390625 -11.599609375 m 0
 219.733398438 -11.599609375 192.466796875 -6.599609375 168.599609375 3.400390625 c 0
 144.733398438 13.400390625 124.533203125 28.400390625 108 48.400390625 c 0
 91.2001953125 69.2001953125 78.7998046875 94.3330078125 70.7998046875 123.799804688 c 0
 62.7998046875 153.266601562 58.7998046875 186.666992188 58.7998046875 224 c 0
 58.7998046875 299.733398438 75.2001953125 357.866210938 108 398.400390625 c 0
 140.799804688 438.666992188 188.266601562 458.799804688 250.400390625 458.799804688 c 0
 282.400390625 458.799804688 310.200195312 453.666992188 333.799804688 443.400390625 c 0
 357.400390625 433.133789062 377.200195312 418.133789062 393.200195312 398.400390625 c 0
 426 357.866210938 442.400390625 299.866210938 442.400390625 224.400390625 c 0
 442.400390625 186.266601562 438.333007812 152.400390625 430.200195312 122.799804688 c 0
 422.06640625 93.2001953125 409.733398438 68.400390625 393.200195312 48.400390625 c 0
 377.200195312 28.6669921875 357.266601562 13.7333984375 333.400390625 3.599609375 c 0
 309.533203125 -6.533203125 281.866210938 -11.599609375 250.400390625 -11.599609375 c 0
250.400390625 50.7998046875 m 0
 288 50.7998046875 316.400390625 65.466796875 335.599609375 94.7998046875 c 0
 354.799804688 123.866210938 364.400390625 166.799804688 364.400390625 223.599609375 c 256
 364.400390625 280.400390625 354.799804688 323.466796875 335.599609375 352.799804688 c 0
 316.400390625 381.866210938 288 396.400390625 250.400390625 396.400390625 c 0
 213.06640625 396.400390625 184.799804688 381.866210938 165.599609375 352.799804688 c 0
 146.400390625 323.466796875 136.799804688 280.400390625 136.799804688 223.599609375 c 256
 136.799804688 166.799804688 146.400390625 123.866210938 165.599609375 94.7998046875 c 0
 184.799804688 65.466796875 213.06640625 50.7998046875 250.400390625 50.7998046875 c 0
EndSplineSet
EndChar

StartChar: p
Encoding: 81 112 81
Width: 500
VWidth: 2048
Flags: HW
LayerCount: 2
Fore
SplineSet
80 448 m 1
 146.799804688 448 l 1
 154 390.799804688 l 1
 166.533203125 413.200195312 182.93359375 430.133789062 203.200195312 441.599609375 c 256
 223.466796875 453.06640625 247.06640625 458.799804688 274 458.799804688 c 0
 300.666992188 458.799804688 324.666992188 453.599609375 346 443.200195312 c 128
 367.333007812 432.799804688 385.733398438 417.06640625 401.200195312 396 c 256
 416.666992188 374.93359375 428.200195312 349.93359375 435.799804688 321 c 128
 443.400390625 292.06640625 447.200195312 259.333007812 447.200195312 222.799804688 c 0
 447.200195312 149.466796875 431.733398438 92.1337890625 400.799804688 50.7998046875 c 0
 369.866210938 9.2001953125 327.466796875 -11.599609375 273.599609375 -11.599609375 c 0
 258.400390625 -11.599609375 245.200195312 -10.06640625 234 -7 c 128
 222.799804688 -3.93359375 212.266601562 0.400390625 202.400390625 6 c 0
 181.599609375 18 165.466796875 34.7998046875 154 56.400390625 c 1
 154 -170.400390625 l 1
 80 -170.400390625 l 1
 80 448 l 1
262.799804688 50.7998046875 m 256
 298.533203125 50.7998046875 325.333007812 65.3330078125 343.200195312 94.400390625 c 256
 361.06640625 123.466796875 370 166.533203125 370 223.599609375 c 256
 370 280.666992188 361.06640625 323.733398438 343.200195312 352.799804688 c 256
 325.333007812 381.866210938 298.533203125 396.400390625 262.799804688 396.400390625 c 256
 227.06640625 396.400390625 200 381.866210938 181.599609375 352.799804688 c 0
 163.200195312 323.466796875 154 280.400390625 154 223.599609375 c 256
 154 166.799804688 163.200195312 123.866210938 181.599609375 94.7998046875 c 0
 200 65.466796875 227.06640625 50.7998046875 262.799804688 50.7998046875 c 256
EndSplineSet
EndChar

StartChar: q
Encoding: 82 113 82
Width: 500
VWidth: 2048
Flags: HW
LayerCount: 2
Fore
SplineSet
352 55.599609375 m 1
 346.133789062 44.93359375 339.333007812 35.3330078125 331.599609375 26.7998046875 c 128
 323.866210938 18.2666015625 314.533203125 10.93359375 303.599609375 4.7998046875 c 0
 283.06640625 -7.2001953125 259.06640625 -13.2001953125 231.599609375 -13.2001953125 c 0
 206.266601562 -13.2001953125 182.866210938 -8.1337890625 161.400390625 2 c 128
 139.93359375 12.1337890625 121.200195312 27.8662109375 105.200195312 49.2001953125 c 0
 91.06640625 68.1337890625 79.7998046875 91.599609375 71.400390625 119.599609375 c 128
 63 147.599609375 58.7998046875 181.200195312 58.7998046875 220.400390625 c 0
 58.7998046875 256.133789062 62.599609375 288.799804688 70.2001953125 318.400390625 c 128
 77.7998046875 348 89.466796875 373.466796875 105.200195312 394.799804688 c 0
 120.666992188 415.599609375 139.06640625 431.200195312 160.400390625 441.599609375 c 128
 181.733398438 452 205.599609375 457.200195312 232 457.200195312 c 0
 259.200195312 457.200195312 282.93359375 451.466796875 303.200195312 440 c 0
 313.333007812 434.133789062 322.466796875 427 330.599609375 418.599609375 c 128
 338.733398438 410.200195312 345.866210938 400.400390625 352 389.200195312 c 1
 359.200195312 446.400390625 l 1
 426 446.400390625 l 1
 426 -172 l 1
 352 -172 l 1
 352 55.599609375 l 1
243.599609375 49.2001953125 m 0
 261.200195312 49.2001953125 276.799804688 52.7998046875 290.400390625 60 c 128
 304 67.2001953125 315.466796875 78.2666015625 324.799804688 93.2001953125 c 0
 342.93359375 122.533203125 352 165.466796875 352 222 c 0
 352 278.799804688 342.93359375 321.866210938 324.799804688 351.200195312 c 0
 315.466796875 366.133789062 304.06640625 377.133789062 290.599609375 384.200195312 c 128
 277.133789062 391.266601562 261.599609375 394.799804688 244 394.799804688 c 0
 208.533203125 394.799804688 181.866210938 380.266601562 164 351.200195312 c 0
 145.866210938 321.866210938 136.799804688 278.799804688 136.799804688 222 c 256
 136.799804688 165.200195312 145.866210938 122.133789062 164 92.7998046875 c 0
 181.866210938 63.7333984375 208.400390625 49.2001953125 243.599609375 49.2001953125 c 0
EndSplineSet
EndChar

StartChar: r
Encoding: 83 114 83
Width: 500
VWidth: 2048
Flags: HW
LayerCount: 2
Fore
SplineSet
124.799804688 448 m 1
 191.599609375 448 l 1
 198.799804688 360.400390625 l 1
 211.333007812 392.133789062 230.266601562 416.533203125 255.599609375 433.599609375 c 0
 280.666992188 450.400390625 310.666992188 458.799804688 345.599609375 458.799804688 c 0
 363.733398438 458.799804688 380.799804688 456.533203125 396.799804688 452 c 0
 404.533203125 449.866210938 412.266601562 447 420 443.400390625 c 128
 427.733398438 439.799804688 435.06640625 435.599609375 442 430.799804688 c 1
 442 355.599609375 l 1
 426.799804688 367.866210938 410.799804688 376.799804688 394 382.400390625 c 0
 377.466796875 388 359.466796875 390.799804688 340 390.799804688 c 0
 294.400390625 390.799804688 259.466796875 376.400390625 235.200195312 347.599609375 c 0
 210.93359375 319.06640625 198.799804688 277.466796875 198.799804688 222.799804688 c 2
 198.799804688 0 l 1
 124.799804688 0 l 1
 124.799804688 448 l 1
EndSplineSet
EndChar

StartChar: s
Encoding: 84 115 84
Width: 500
VWidth: 2048
Flags: HW
LayerCount: 2
Fore
SplineSet
240 -11.599609375 m 0
 228.266601562 -11.599609375 216.200195312 -11 203.799804688 -9.7998046875 c 128
 191.400390625 -8.599609375 179.466796875 -6.93359375 168 -4.7998046875 c 0
 157.599609375 -2.6669921875 145.400390625 0.2666015625 131.400390625 4 c 128
 117.400390625 7.7333984375 103.333007812 11.8662109375 89.2001953125 16.400390625 c 1
 89.2001953125 92.400390625 l 1
 106.266601562 83.8662109375 120.799804688 77.2666015625 132.799804688 72.599609375 c 128
 144.799804688 67.93359375 156.533203125 64 168 60.7998046875 c 0
 180.266601562 57.3330078125 192.133789062 54.6669921875 203.599609375 52.7998046875 c 128
 215.06640625 50.93359375 226.93359375 50 239.200195312 50 c 0
 271.466796875 50 296.666992188 56.6669921875 314.799804688 70 c 0
 324.133789062 76.93359375 330.93359375 85.06640625 335.200195312 94.400390625 c 128
 339.466796875 103.733398438 341.599609375 113.200195312 341.599609375 122.799804688 c 0
 341.599609375 141.466796875 333.733398438 156.599609375 318 168.200195312 c 128
 302.266601562 179.799804688 277.466796875 189.06640625 243.599609375 196 c 1
 240.400390625 196.799804688 l 1
 212.799804688 202.400390625 l 2
 192.799804688 206.400390625 175 211.733398438 159.400390625 218.400390625 c 128
 143.799804688 225.06640625 130.666992188 233.733398438 120 244.400390625 c 0
 100.533203125 263.866210938 90.7998046875 290.666992188 90.7998046875 324.799804688 c 0
 90.7998046875 346.400390625 94.466796875 365.466796875 101.799804688 382 c 128
 109.133789062 398.533203125 120 412.533203125 134.400390625 424 c 0
 149.599609375 436.266601562 167.733398438 445.133789062 188.799804688 450.599609375 c 128
 209.866210938 456.06640625 233.466796875 458.799804688 259.599609375 458.799804688 c 0
 271.06640625 458.799804688 282.533203125 458.266601562 294 457.200195312 c 128
 305.466796875 456.133789062 316.799804688 454.533203125 328 452.400390625 c 0
 338.133789062 450.266601562 348.733398438 447.533203125 359.799804688 444.200195312 c 128
 370.866210938 440.866210938 382 436.93359375 393.200195312 432.400390625 c 1
 393.200195312 360.400390625 l 1
 371.866210938 372.666992188 350.666992188 381.866210938 329.599609375 388 c 0
 318.93359375 390.93359375 308.200195312 393.200195312 297.400390625 394.799804688 c 128
 286.599609375 396.400390625 275.06640625 397.200195312 262.799804688 397.200195312 c 0
 247.333007812 397.200195312 233.400390625 395.866210938 221 393.200195312 c 128
 208.599609375 390.533203125 198.266601562 386.533203125 190 381.200195312 c 0
 173.466796875 370.266601562 165.200195312 353.599609375 165.200195312 331.200195312 c 0
 165.200195312 321.866210938 166.733398438 313.333007812 169.799804688 305.599609375 c 128
 172.866210938 297.866210938 177.466796875 291.599609375 183.599609375 286.799804688 c 256
 189.733398438 282 199.93359375 277.266601562 214.200195312 272.599609375 c 128
 228.466796875 267.93359375 248.799804688 263.06640625 275.200195312 258 c 2
 304.799804688 252.400390625 l 2
 324 248.666992188 340.400390625 243.333007812 354 236.400390625 c 128
 367.599609375 229.466796875 378.93359375 220.93359375 388 210.799804688 c 0
 406.666992188 190.266601562 416 163.06640625 416 129.200195312 c 0
 416 106.266601562 411.93359375 86.3330078125 403.799804688 69.400390625 c 128
 395.666992188 52.466796875 384 38 368.799804688 26 c 0
 352.533203125 13.2001953125 333.533203125 3.7333984375 311.799804688 -2.400390625 c 128
 290.06640625 -8.533203125 266.133789062 -11.599609375 240 -11.599609375 c 0
EndSplineSet
EndChar

StartChar: t
Encoding: 85 116 85
Width: 500
VWidth: 2048
Flags: HW
LayerCount: 2
Fore
SplineSet
326.799804688 -1.599609375 m 1
 271.866210938 -1.599609375 232.93359375 9.466796875 210 31.599609375 c 0
 187.333007812 53.466796875 176 91.599609375 176 146 c 2
 176 390.799804688 l 1
 56.400390625 390.799804688 l 1
 56.400390625 448 l 1
 176 448 l 1
 176 565.200195312 l 1
 249.599609375 597.200195312 l 1
 249.599609375 448 l 1
 416.799804688 448 l 1
 416.799804688 390.799804688 l 1
 249.599609375 390.799804688 l 1
 249.599609375 146 l 2
 249.599609375 113.200195312 255.866210938 90.1337890625 268.400390625 76.7998046875 c 0
 280.666992188 63.7333984375 302.533203125 57.2001953125 334 57.2001953125 c 2
 416.799804688 57.2001953125 l 1
 416.799804688 -1.599609375 l 1
 326.799804688 -1.599609375 l 1
 326.799804688 -1.599609375 l 1
EndSplineSet
EndChar

StartChar: u
Encoding: 86 117 86
Width: 500
VWidth: 2048
Flags: HW
LayerCount: 2
Fore
SplineSet
217.599609375 -11.599609375 m 0
 172 -11.599609375 138 3.466796875 115.599609375 33.599609375 c 0
 93.2001953125 63.466796875 82 108.799804688 82 169.599609375 c 2
 82 447.200195312 l 1
 155.599609375 447.200195312 l 1
 155.599609375 169.599609375 l 2
 155.599609375 129.06640625 162.799804688 99.466796875 177.200195312 80.7998046875 c 0
 184.133789062 71.7333984375 192.866210938 64.7333984375 203.400390625 59.7998046875 c 128
 213.93359375 54.8662109375 227.200195312 52.400390625 243.200195312 52.400390625 c 0
 277.866210938 52.400390625 304.400390625 64.6669921875 322.799804688 89.2001953125 c 0
 341.200195312 113.466796875 350.400390625 148.400390625 350.400390625 194 c 2
 350.400390625 447.200195312 l 1
 424.400390625 447.200195312 l 1
 424.400390625 0 l 1
 357.599609375 0 l 1
 350.400390625 67.2001953125 l 1
 337.06640625 41.06640625 319.333007812 21.466796875 297.200195312 8.400390625 c 0
 274.533203125 -4.93359375 248 -11.599609375 217.599609375 -11.599609375 c 0
EndSplineSet
EndChar

StartChar: v
Encoding: 87 118 87
Width: 500
VWidth: 2048
Flags: HW
LayerCount: 2
Fore
SplineSet
44 448 m 1
 120.400390625 448 l 1
 250.400390625 72 l 1
 380.799804688 448 l 1
 457.200195312 448 l 1
 298 0 l 1
 203.200195312 0 l 1
 44 448 l 1
EndSplineSet
EndChar

StartChar: w
Encoding: 88 119 88
Width: 500
VWidth: 2048
Flags: HW
LayerCount: 2
Fore
SplineSet
4 448 m 1
 76.7998046875 448 l 1
 154.799804688 86 l 1
 218.799804688 317.200195312 l 1
 281.599609375 317.200195312 l 1
 346.400390625 86 l 1
 424.400390625 448 l 1
 497.200195312 448 l 1
 392.400390625 0 l 1
 322 0 l 1
 250.400390625 245.599609375 l 1
 179.200195312 0 l 1
 108.799804688 0 l 1
 4 448 l 1
EndSplineSet
EndChar

StartChar: x
Encoding: 89 120 89
Width: 500
VWidth: 2048
Flags: W
HStem: 0 21G<34.4004 134.165 366.989 466.8> 428 20G<50 146.266 353.832 451.2>
LayerCount: 2
Fore
SplineSet
210.400390625 233.599609375 m 1
 50 448 l 1
 131.599609375 448 l 1
 250.400390625 286 l 1
 368.400390625 448 l 1
 451.200195312 448 l 1
 290.799804688 233.599609375 l 1
 466.799804688 0 l 1
 381.599609375 0 l 1
 250.400390625 179.599609375 l 1
 119.599609375 0 l 1
 34.400390625 0 l 1
 210.400390625 233.599609375 l 1
EndSplineSet
EndChar

StartChar: y
Encoding: 90 121 90
Width: 500
VWidth: 2048
Flags: HW
LayerCount: 2
Fore
SplineSet
77.599609375 -108.799804688 m 1
 121.200195312 -108.799804688 l 2
 133.200195312 -108.799804688 143.333007812 -107 151.599609375 -103.400390625 c 128
 159.866210938 -99.7998046875 166.666992188 -95.3330078125 172 -90 c 0
 177.866210938 -83.8662109375 184.533203125 -73.3330078125 192 -58.400390625 c 128
 199.466796875 -43.466796875 208.400390625 -21.599609375 218.799804688 7.2001953125 c 1
 45.599609375 448 l 1
 123.599609375 448 l 1
 256.400390625 97.599609375 l 1
 387.200195312 448 l 1
 465.200195312 448 l 1
 347.200195312 144 l 2
 340.799804688 127.466796875 335.799804688 114.666992188 332.200195312 105.599609375 c 128
 328.599609375 96.533203125 325.799804688 89.400390625 323.799804688 84.2001953125 c 128
 321.799804688 79 320.266601562 75 319.200195312 72.2001953125 c 128
 318.133789062 69.400390625 316.93359375 66.1337890625 315.599609375 62.400390625 c 128
 314.266601562 58.6669921875 312.466796875 53.7333984375 310.200195312 47.599609375 c 128
 307.93359375 41.466796875 304.666992188 32.533203125 300.400390625 20.7998046875 c 0
 292.400390625 -0.7998046875 285.533203125 -18.93359375 279.799804688 -33.599609375 c 128
 274.06640625 -48.2666015625 269.06640625 -60.466796875 264.799804688 -70.2001953125 c 128
 260.533203125 -79.93359375 257 -87.6669921875 254.200195312 -93.400390625 c 128
 251.400390625 -99.1337890625 249.06640625 -103.733398438 247.200195312 -107.200195312 c 0
 241.333007812 -117.333007812 234.799804688 -126.333007812 227.599609375 -134.200195312 c 128
 220.400390625 -142.06640625 211.599609375 -148.93359375 201.200195312 -154.799804688 c 0
 182.799804688 -165.200195312 161.333007812 -170.400390625 136.799804688 -170.400390625 c 2
 77.599609375 -170.400390625 l 1
 77.599609375 -108.799804688 l 1
EndSplineSet
EndChar

StartChar: z
Encoding: 91 122 91
Width: 500
VWidth: 2048
Flags: HW
LayerCount: 2
Fore
SplineSet
85.2001953125 68 m 1
 342.400390625 390 l 1
 94.7998046875 390 l 1
 94.7998046875 448.799804688 l 1
 420 448.799804688 l 1
 420 381.599609375 l 1
 162.799804688 60 l 1
 420 60 l 1
 420 0 l 1
 85.2001953125 0 l 1
 85.2001953125 68 l 1
EndSplineSet
EndChar

StartChar: braceleft
Encoding: 92 123 92
Width: 500
VWidth: 2048
Flags: HW
LayerCount: 2
Fore
SplineSet
367.200195312 -101.200195312 m 1
 301.06640625 -101.200195312 256.666992188 -91.3330078125 234 -71.599609375 c 0
 211.333007812 -52.1337890625 200 -12.7998046875 200 46.400390625 c 2
 200 142 l 2
 200 182 192.93359375 209.866210938 178.799804688 225.599609375 c 0
 164.400390625 241.06640625 138.533203125 248.799804688 101.200195312 248.799804688 c 2
 54.7998046875 248.799804688 l 1
 54.7998046875 306 l 1
 101.200195312 306 l 2
 138.799804688 306 164.666992188 313.599609375 178.799804688 328.799804688 c 0
 192.93359375 344.266601562 200 371.866210938 200 411.599609375 c 2
 200 507.599609375 l 2
 200 566.799804688 211.333007812 606.133789062 234 625.599609375 c 0
 256.133789062 645.06640625 300.533203125 654.799804688 367.200195312 654.799804688 c 2
 392.799804688 654.799804688 l 1
 392.799804688 597.599609375 l 1
 364.799804688 597.599609375 l 2
 327.466796875 597.599609375 303.200195312 591.866210938 292 580.400390625 c 0
 280.533203125 568.93359375 274.799804688 544.133789062 274.799804688 506 c 2
 274.799804688 406.799804688 l 2
 274.799804688 364.666992188 268.799804688 334.266601562 256.799804688 315.599609375 c 0
 250.93359375 306.533203125 242.799804688 298.733398438 232.400390625 292.200195312 c 128
 222 285.666992188 209.333007812 280.666992188 194.400390625 277.200195312 c 1
 224 270 244.799804688 256.93359375 256.799804688 238 c 256
 268.799804688 219.06640625 274.799804688 188.799804688 274.799804688 147.200195312 c 2
 274.799804688 48 l 2
 274.799804688 9.8662109375 280.533203125 -14.93359375 292 -26.400390625 c 0
 303.200195312 -37.8662109375 327.466796875 -43.599609375 364.799804688 -43.599609375 c 2
 392.799804688 -43.599609375 l 1
 392.799804688 -101.200195312 l 1
 367.200195312 -101.200195312 l 1
 367.200195312 -101.200195312 l 1
EndSplineSet
EndChar

StartChar: bar
Encoding: 93 124 93
Width: 500
VWidth: 2048
Flags: HW
LayerCount: 2
Fore
SplineSet
216 626 m 1
 284.799804688 626 l 1
 284.799804688 -193.200195312 l 1
 216 -193.200195312 l 1
 216 626 l 1
EndSplineSet
EndChar

StartChar: braceright
Encoding: 94 125 94
Width: 500
VWidth: 2048
Flags: HW
LayerCount: 2
Fore
SplineSet
108.400390625 -47.2001953125 m 1
 135.599609375 -47.2001953125 l 2
 172.93359375 -47.2001953125 197.466796875 -41.3330078125 209.200195312 -29.599609375 c 0
 220.666992188 -18.1337890625 226.400390625 6.533203125 226.400390625 44.400390625 c 2
 226.400390625 143.599609375 l 2
 226.400390625 185.200195312 232.400390625 215.466796875 244.400390625 234.400390625 c 256
 256.400390625 253.333007812 277.200195312 266.400390625 306.799804688 273.599609375 c 1
 277.466796875 280.533203125 256.799804688 293.333007812 244.799804688 312 c 0
 238.93359375 321.06640625 234.400390625 332.866210938 231.200195312 347.400390625 c 128
 228 361.93359375 226.400390625 380.533203125 226.400390625 403.200195312 c 2
 226.400390625 502.400390625 l 2
 226.400390625 540.266601562 220.666992188 564.93359375 209.200195312 576.400390625 c 0
 197.466796875 588.133789062 172.93359375 594 135.599609375 594 c 2
 108.400390625 594 l 1
 108.400390625 651.200195312 l 1
 133.200195312 651.200195312 l 2
 199.866210938 651.200195312 244.266601562 641.466796875 266.400390625 622 c 0
 288.799804688 602.266601562 300 562.93359375 300 504 c 2
 300 408 l 2
 300 387.200195312 302.799804688 370.200195312 308.400390625 357 c 128
 314 343.799804688 322.400390625 333.200195312 333.599609375 325.200195312 c 0
 344.266601562 317.466796875 357.266601562 311.733398438 372.599609375 308 c 128
 387.93359375 304.266601562 404.799804688 302.400390625 423.200195312 302.400390625 c 2
 448.799804688 302.400390625 l 1
 448.799804688 245.200195312 l 1
 423.200195312 245.200195312 l 2
 404.266601562 245.200195312 387.200195312 243.266601562 372 239.400390625 c 128
 356.799804688 235.533203125 344 229.733398438 333.599609375 222 c 0
 322.400390625 213.733398438 314 202.93359375 308.400390625 189.599609375 c 128
 302.799804688 176.266601562 300 159.200195312 300 138.400390625 c 2
 300 42.7998046875 l 2
 300 -16.400390625 288.799804688 -55.7333984375 266.400390625 -75.2001953125 c 0
 243.733398438 -94.93359375 199.333007812 -104.799804688 133.200195312 -104.799804688 c 2
 108.400390625 -104.799804688 l 1
 108.400390625 -47.2001953125 l 1
EndSplineSet
EndChar

StartChar: asciitilde
Encoding: 95 126 95
Width: 500
VWidth: 2048
Flags: HW
LayerCount: 2
Fore
SplineSet
464.400390625 336 m 1
 463.333007812 306.133789062 461 280.266601562 457.400390625 258.400390625 c 128
 453.799804688 236.533203125 447.06640625 216.93359375 437.200195312 199.599609375 c 1
 418 160.93359375 386.400390625 141.599609375 342.400390625 141.599609375 c 0
 321.333007812 141.599609375 303.06640625 146.133789062 287.599609375 155.200195312 c 0
 273.733398438 164 256.93359375 181.866210938 237.200195312 208.799804688 c 0
 216.400390625 237.599609375 201.06640625 255.866210938 191.200195312 263.599609375 c 0
 180.533203125 271.333007812 170.266601562 275.200195312 160.400390625 275.200195312 c 0
 139.866210938 275.200195312 125.333007812 265.599609375 116.799804688 246.400390625 c 0
 107.466796875 224 101.866210938 190 100 144.400390625 c 1
 37.599609375 144.400390625 l 1
 38.93359375 199.866210938 48 245.200195312 64.7998046875 280.400390625 c 1
 86.6669921875 318.533203125 117.866210938 337.599609375 158.400390625 337.599609375 c 0
 177.866210938 337.599609375 195.466796875 332.93359375 211.200195312 323.599609375 c 0
 219.200195312 318.799804688 227.799804688 311.93359375 237 303 c 128
 246.200195312 294.06640625 255.06640625 283.599609375 263.599609375 271.599609375 c 0
 278 251.866210938 292 235.200195312 305.599609375 221.599609375 c 0
 311.200195312 215.733398438 316.799804688 211.333007812 322.400390625 208.400390625 c 128
 328 205.466796875 334.133789062 204 340.799804688 204 c 0
 362.133789062 204 377.533203125 214.866210938 387 236.599609375 c 128
 396.466796875 258.333007812 401.466796875 291.466796875 402 336 c 1
 464.400390625 336 l 1
EndSplineSet
EndChar

StartChar: uni3105
Encoding: 96 12549 96
Width: 1000
VWidth: 924
Flags: W
HStem: -82 52.5<495 719.242> 437.5 53.5<273.5 761>
VStem: 761 55.5<270.68 437.5>
LayerCount: 2
Fore
SplineSet
816.5 491 m 1
 815.166992188 392 812.416992188 301.583007812 808.25 219.75 c 0
 804.083007812 137.916992188 798.75 77.3330078125 792.25 38 c 0
 785.75 -1.3330078125 776 -28.25 763 -42.75 c 0
 750 -57.25 734.583007812 -67.4169921875 716.75 -73.25 c 0
 698.916992188 -79.0830078125 658.666992188 -82 596 -82 c 0
 559.666992188 -82 526 -81.1669921875 495 -79.5 c 1
 476.5 -25 l 1
 550.5 -28 616 -29.5 673 -29.5 c 0
 687.666992188 -29.5 700.916992188 -24.5 712.75 -14.5 c 0
 724.583007812 -4.5 732.166992188 8.8330078125 735.5 25.5 c 0
 738.833007812 42.1669921875 743.583007812 92.4169921875 749.75 176.25 c 0
 755.916992188 260.083007812 759.666992188 347.166992188 761 437.5 c 1
 213.5 437.5 l 1
 213.5 491 l 1
 248.166992188 548.333007812 280.833007812 614.5 311.5 689.5 c 1
 366 670 l 1
 333.666992188 602.333007812 302.833007812 542.666992188 273.5 491 c 1
 816.5 491 l 1
EndSplineSet
Substitution2: "'aalt' Boponofo Kanji-1" uni3105.intial
EndChar

StartChar: uni3106
Encoding: 97 12550 97
Width: 1000
VWidth: 924
Flags: HW
LayerCount: 2
Fore
SplineSet
832 2.5 m 1
 800 -41.5 l 1
 722 16.8330078125 649.666992188 67.6669921875 583 111 c 1
 487 22.6669921875 356.333007812 -42.5 191 -84.5 c 1
 164 -36.5 l 1
 321.333007812 1.1669921875 445 60.1669921875 535 140.5 c 1
 452.666992188 190.5 372.333007812 231.833007812 294 264.5 c 1
 324 308.5 l 1
 415 269.5 497.833007812 226.5 572.5 179.5 c 1
 627.166992188 237.5 677.333007812 319.833007812 723 426.5 c 1
 260.5 426.5 l 1
 260.5 479.5 l 1
 310.833007812 547.166992188 354.5 613 391.5 677 c 1
 439.5 653.5 l 1
 401.166992188 589.833007812 363 531.833007812 325 479.5 c 1
 780.5 479.5 l 1
 780.5 426.5 l 1
 733.166992188 312.166992188 680.333007812 220 622 150 c 1
 699 98.6669921875 769 49.5 832 2.5 c 1
EndSplineSet
EndChar

StartChar: uni3107
Encoding: 98 12551 98
Width: 1000
VWidth: 924
Flags: HW
LayerCount: 2
Fore
SplineSet
810.5 -6 m 1
 755 -6 l 1
 755 525.5 l 1
 237 525.5 l 1
 237 -6 l 1
 181.5 -6 l 1
 181.5 579 l 1
 810.5 579 l 1
 810.5 -6 l 1
EndSplineSet
EndChar

StartChar: uni3108
Encoding: 99 12552 99
Width: 1000
VWidth: 924
Flags: HW
LayerCount: 2
Fore
SplineSet
831 593 m 1
 831 540 l 1
 282 540 l 1
 282 77 l 2
 282 68.6669921875 286.5 61.1669921875 295.5 54.5 c 128
 304.5 47.8330078125 314 44.5 324 44.5 c 2
 824.5 44.5 l 1
 824.5 -8 l 1
 324 -8 l 2
 259 -8 226.5 22.8330078125 226.5 84.5 c 2
 226.5 540 l 1
 182.5 540 l 1
 182.5 593 l 1
 831 593 l 1
EndSplineSet
EndChar

StartChar: uni3109
Encoding: 100 12553 100
Width: 1000
VWidth: 924
Flags: HW
LayerCount: 2
Fore
SplineSet
808 492 m 1
 808 363 804.083007812 253.583007812 796.25 163.75 c 128
 788.416992188 73.9169921875 778.916992188 17.6669921875 767.75 -5 c 128
 756.583007812 -27.6669921875 741.166992188 -44.6669921875 721.5 -56 c 128
 701.833007812 -67.3330078125 674.333007812 -73 639 -73 c 0
 587.333007812 -73 534.5 -62.5 480.5 -41.5 c 1
 484.5 10.5 l 1
 546.166992188 -8.8330078125 599.333007812 -18.5 644 -18.5 c 0
 672 -18.5 692.25 -11.1669921875 704.75 3.5 c 128
 717.25 18.1669921875 728.166992188 59.9169921875 737.5 128.75 c 128
 746.833007812 197.583007812 752 300.833007812 753 438.5 c 1
 533 438.5 l 1
 517 215.5 405.666992188 48.3330078125 199 -63 c 1
 166 -18 l 1
 362.666992188 87 465.833007812 239.166992188 475.5 438.5 c 1
 220.5 438.5 l 1
 220.5 485.5 l 1
 260.833007812 558.166992188 292.5 624.5 315.5 684.5 c 1
 363 667 l 1
 343.666992188 614 317.333007812 555.666992188 284 492 c 1
 808 492 l 1
EndSplineSet
EndChar

StartChar: uni310A
Encoding: 101 12554 101
Width: 1000
VWidth: 924
Flags: HW
LayerCount: 2
Fore
SplineSet
866.5 430.5 m 1
 517.5 430.5 l 1
 470.166992188 289.5 398.5 163.833007812 302.5 53.5 c 1
 442.5 56.5 576 64 703 76 c 1
 669.333007812 123.666992188 632 171.166992188 591 218.5 c 1
 635 251 l 1
 721 150.666992188 789.666992188 55.5 841 -34.5 c 1
 795 -64 l 1
 738.5 27 l 1
 582.166992188 12.6669921875 414 2 234 -5 c 1
 218.5 47.5 l 1
 314.833007812 127.166992188 395 254.833007812 459 430.5 c 1
 140.5 430.5 l 1
 140.5 483.5 l 1
 474.5 483.5 l 1
 474.5 674 l 1
 528.5 674 l 1
 528.5 483.5 l 1
 866.5 483.5 l 1
 866.5 430.5 l 1
EndSplineSet
EndChar

StartChar: uni310B
Encoding: 102 12555 102
Width: 1000
VWidth: 924
Flags: HW
LayerCount: 2
Fore
SplineSet
861.5 388.5 m 1
 859.5 304.5 851.666992188 216.666992188 838 125 c 128
 824.333007812 33.3330078125 807.083007812 -21.0830078125 786.25 -38.25 c 128
 765.416992188 -55.4169921875 741.333007812 -64 714 -64 c 0
 655 -64 601.333007812 -56.5 553 -41.5 c 1
 553 14.5 l 1
 602 -2.5 648.833007812 -11 693.5 -11 c 0
 720.5 -11 739.416992188 -5.0830078125 750.25 6.75 c 128
 761.083007812 18.5830078125 772.583007812 58.9169921875 784.75 127.75 c 128
 796.916992188 196.583007812 803.333007812 265.666992188 804 335 c 1
 490 335 l 1
 490 382.5 l 1
 527.666992188 454.5 561.666992188 525.166992188 592 594.5 c 1
 231.5 594.5 l 1
 231.5 647.5 l 1
 653.5 647.5 l 1
 653.5 599.5 l 1
 627.5 538.833007812 595.166992188 468.5 556.5 388.5 c 1
 861.5 388.5 l 1
EndSplineSet
EndChar

StartChar: uni310C
Encoding: 103 12556 103
Width: 1000
VWidth: 924
Flags: HW
LayerCount: 2
Fore
SplineSet
800 463 m 1
 800 357 794.5 257.333007812 783.5 164 c 128
 772.5 70.6669921875 761.416992188 12.75 750.25 -9.75 c 128
 739.083007812 -32.25 722.916992188 -49.5 701.75 -61.5 c 128
 680.583007812 -73.5 649.5 -79.5 608.5 -79.5 c 0
 567.166992188 -79.5 521.833007812 -73 472.5 -60 c 1
 476.5 -8 l 1
 529.5 -20.6669921875 573.833007812 -27 609.5 -27 c 0
 645.5 -27 671 -19.75 686 -5.25 c 128
 701 9.25 714.5 60.4169921875 726.5 148.25 c 128
 738.5 236.083007812 744.5 323.333007812 744.5 410 c 1
 530.5 410 l 1
 494.5 201.333007812 376.833007812 39.5 177.5 -75.5 c 1
 141.5 -32.5 l 1
 326.833007812 72.5 438.5 220 476.5 410 c 1
 206 410 l 1
 206 468.5 l 1
 228 525.5 248.166992188 591 266.5 665 c 1
 316.5 653.5 l 1
 304.833007812 598.833007812 286.5 535.333007812 261.5 463 c 1
 484.5 463 l 1
 494.5 539.666992188 500 612.166992188 501 680.5 c 1
 554.5 677 l 1
 554.5 616.333007812 549 545 538 463 c 1
 800 463 l 1
EndSplineSet
EndChar

StartChar: uni310D
Encoding: 104 12557 104
Width: 1000
VWidth: 924
Flags: HW
LayerCount: 2
Fore
SplineSet
482.5 -48 m 1
 438.5 -80.5 l 1
 383.833007812 29.1669921875 300.166992188 152.666992188 187.5 290 c 1
 301.833007812 442.666992188 383.833007812 570.666992188 433.5 674 c 1
 478.5 648.5 l 1
 432.166992188 546.5 357.333007812 428 254 293 c 1
 347.333007812 180.333007812 423.5 66.6669921875 482.5 -48 c 1
779.5 644.5 m 1
 733.166992188 548.833007812 655.333007812 433.166992188 546 297.5 c 1
 642.333007812 174.5 720.166992188 58 779.5 -52 c 1
 736.5 -82.5 l 1
 666.833007812 47.1669921875 579.833007812 173.166992188 475.5 295.5 c 1
 591.166992188 435.166992188 677.166992188 559.666992188 733.5 669 c 1
 779.5 644.5 l 1
EndSplineSet
EndChar

StartChar: uni310E
Encoding: 105 12558 105
Width: 1000
VWidth: 924
Flags: HW
LayerCount: 2
Fore
SplineSet
846 585 m 1
 443.5 585 l 1
 428.5 526.333007812 410.5 463.166992188 389.5 395.5 c 1
 746 395.5 l 1
 744.333007812 302.166992188 739.333007812 219.833007812 731 148.5 c 128
 722.666992188 77.1669921875 713.333007812 31.75 703 12.25 c 128
 692.666992188 -7.25 678.25 -22.25 659.75 -32.75 c 128
 641.25 -43.25 615.166992188 -48.5 581.5 -48.5 c 0
 546.833007812 -48.5 507.333007812 -44.5 463 -36.5 c 1
 453 21 l 1
 499.333007812 9.3330078125 545 3.5 590 3.5 c 0
 629 3.5 653.833007812 23.5830078125 664.5 63.75 c 128
 675.166992188 103.916992188 684.166992188 196.833007812 691.5 342.5 c 1
 316.5 342.5 l 1
 341.5 414.833007812 365.166992188 495.666992188 387.5 585 c 1
 154 585 l 1
 154 638.5 l 1
 846 638.5 l 1
 846 585 l 1
EndSplineSet
EndChar

StartChar: uni310F
Encoding: 106 12559 106
Width: 1000
VWidth: 924
Flags: HW
LayerCount: 2
Fore
SplineSet
852.5 576 m 1
 306.5 576 l 1
 307.166992188 548.333007812 307.5 521.166992188 307.5 494.5 c 0
 307.5 343.833007812 297 227.75 276 146.25 c 128
 255 64.75 216.666992188 -4.3330078125 161 -61 c 1
 121 -23 l 1
 170 29 204.666992188 93.0830078125 225 169.25 c 128
 245.333007812 245.416992188 253.666992188 381 250 576 c 1
 186.5 576 l 1
 186.5 628 l 1
 852.5 628 l 1
 852.5 576 l 1
EndSplineSet
EndChar

StartChar: uni3110
Encoding: 107 12560 107
Width: 1000
VWidth: 924
Flags: HW
LayerCount: 2
Fore
SplineSet
691.5 -74.5 m 1
 636 -74.5 l 1
 636 232 l 1
 511.666992188 202 402.5 179 308.5 163 c 1
 295 211.5 l 1
 313.333007812 216.166992188 332.5 220.166992188 352.5 223.5 c 1
 352.5 581 l 1
 408 581 l 1
 408 235 l 1
 470 245.666992188 546 262.666992188 636 286 c 1
 636 671 l 1
 691.5 671 l 1
 691.5 -74.5 l 1
EndSplineSet
EndChar

StartChar: uni3111
Encoding: 108 12561 108
Width: 1000
VWidth: 924
Flags: HW
LayerCount: 2
Fore
SplineSet
652.5 -45.5 m 1
 610.5 -82.5 l 1
 540.833007812 19.1669921875 431.666992188 143 283 289 c 1
 388 393 492 519.333007812 595 668 c 1
 641.5 640.5 l 1
 544.833007812 501.5 450.5 384.666992188 358.5 290 c 1
 478.166992188 170.333007812 576.166992188 58.5 652.5 -45.5 c 1
EndSplineSet
EndChar

StartChar: uni3112
Encoding: 109 12562 109
Width: 1000
VWidth: 924
Flags: HW
LayerCount: 2
Fore
SplineSet
840 552.5 m 1
 530.5 552.5 l 1
 530.5 -79.5 l 1
 475.5 -79.5 l 1
 475.5 552.5 l 1
 160 552.5 l 1
 160 606.5 l 1
 840 606.5 l 1
 840 552.5 l 1
EndSplineSet
EndChar

StartChar: uni3113
Encoding: 110 12563 110
Width: 1000
VWidth: 924
Flags: HW
LayerCount: 2
Fore
SplineSet
854.5 -35.5 m 1
 146.5 -35.5 l 1
 146.5 15.5 l 1
 476.5 15.5 l 1
 476.5 202 l 1
 220.5 202 l 1
 220.5 559.5 l 1
 275.5 559.5 l 1
 275.5 254.5 l 1
 476.5 254.5 l 1
 476.5 650.5 l 1
 531.5 650.5 l 1
 531.5 254.5 l 1
 728.5 254.5 l 1
 728.5 559.5 l 1
 783.5 559.5 l 1
 783.5 202 l 1
 531.5 202 l 1
 531.5 15.5 l 1
 854.5 15.5 l 1
 854.5 -35.5 l 1
EndSplineSet
EndChar

StartChar: uni3114
Encoding: 111 12564 111
Width: 1000
VWidth: 924
Flags: HW
LayerCount: 2
Fore
SplineSet
643.5 638.5 m 1
 546.5 516.5 416.666992188 413.666992188 254 330 c 1
 219.5 373 l 1
 376.5 452.333007812 503.166992188 550.666992188 599.5 668 c 1
 643.5 638.5 l 1
718 476.5 m 1
 673.333007812 412.166992188 606.166992188 342.166992188 516.5 266.5 c 1
 516.5 -73.5 l 1
 461 -73.5 l 1
 461 224.5 l 1
 357.333007812 155.5 273 104.333007812 208 71 c 1
 173.5 119 l 1
 399.166992188 228 565.666992188 358.166992188 673 509.5 c 1
 718 476.5 l 1
EndSplineSet
EndChar

StartChar: uni3115
Encoding: 112 12565 112
Width: 1000
VWidth: 924
Flags: HW
LayerCount: 2
Fore
SplineSet
820.5 342.5 m 1
 303.5 342.5 l 1
 298.166992188 160.5 256.166992188 19.5 177.5 -80.5 c 1
 131.5 -47 l 1
 213.166992188 56 254 203.5 254 395.5 c 1
 764.5 395.5 l 1
 764.5 570 l 1
 254 570 l 1
 254 622 l 1
 820.5 623 l 1
 820.5 342.5 l 1
EndSplineSet
EndChar

StartChar: uni3116
Encoding: 113 12566 113
Width: 1000
VWidth: 924
Flags: HW
LayerCount: 2
Fore
SplineSet
744.5 -59 m 1
 690.5 -59 l 1
 690.5 11.5 l 1
 310.5 11.5 l 1
 310.5 -59 l 1
 254 -59 l 1
 254 606.5 l 1
 744.5 606.5 l 1
 744.5 -59 l 1
690.5 65 m 1
 690.5 552.5 l 1
 310.5 552.5 l 1
 310.5 65 l 1
 690.5 65 l 1
621 266.5 m 1
 587 222.5 l 1
 529 271.166992188 455.666992188 320 367 369 c 1
 397.5 412 l 1
 489.5 360.666992188 564 312.166992188 621 266.5 c 1
EndSplineSet
EndChar

StartChar: uni3117
Encoding: 114 12567 114
Width: 1000
VWidth: 924
Flags: HW
LayerCount: 2
Fore
SplineSet
794 626 m 1
 794 539 789.416992188 449.166992188 780.25 356.5 c 128
 771.083007812 263.833007812 762.583007812 210.416992188 754.75 196.25 c 128
 746.916992188 182.083007812 735.083007812 171.083007812 719.25 163.25 c 128
 703.416992188 155.416992188 674.833007812 151.5 633.5 151.5 c 0
 601.5 151.5 571.666992188 153.333007812 544 157 c 1
 536 213.5 l 1
 570.333007812 207.833007812 602.166992188 205 631.5 205 c 0
 659.833007812 205 677.5 206.416992188 684.5 209.25 c 128
 691.5 212.083007812 697.166992188 215.833007812 701.5 220.5 c 128
 705.833007812 225.166992188 710.75 243.75 716.25 276.25 c 128
 721.75 308.75 726.916992188 352.916992188 731.75 408.75 c 128
 736.583007812 464.583007812 739.166992188 519.333007812 739.5 573 c 1
 441.5 573 l 1
 441.5 -68.5 l 1
 386.5 -68.5 l 1
 386.5 573 l 1
 204 573 l 1
 204 626 l 1
 794 626 l 1
EndSplineSet
EndChar

StartChar: uni3118
Encoding: 115 12568 115
Width: 1000
VWidth: 924
Flags: HW
LayerCount: 2
Fore
SplineSet
850 441.5 m 1
 456 441.5 l 1
 429.333007812 377.166992188 403.333007812 319.5 378 268.5 c 1
 734.5 268.5 l 1
 730.5 112.833007812 659.166992188 -8.6669921875 520.5 -96 c 1
 480.5 -57 l 1
 596.833007812 13 661.333007812 103.833007812 674 215.5 c 1
 289 215.5 l 1
 324.666992188 277.166992188 360.166992188 352.5 395.5 441.5 c 1
 152 441.5 l 1
 152 495 l 1
 418 495 l 1
 441.333007812 547.333007812 463.166992188 604.666992188 483.5 667 c 1
 533 650.5 l 1
 518.333007812 600.166992188 499.5 548.333007812 476.5 495 c 1
 850 495 l 1
 850 441.5 l 1
EndSplineSet
EndChar

StartChar: uni3119
Encoding: 116 12569 116
Width: 1000
VWidth: 924
Flags: HW
LayerCount: 2
Fore
SplineSet
836 -25 m 1
 793 -56 l 1
 772.333007812 -21 753.833007812 7 737.5 28 c 1
 566.833007812 9.3330078125 379.5 -6 175.5 -18 c 1
 164 34 l 1
 175 33 186 33.6669921875 197 36 c 1
 310 204.333007812 402.833007812 404 475.5 635 c 1
 527.5 619 l 1
 452.166992188 384.666992188 363.833007812 191.833007812 262.5 40.5 c 1
 403.833007812 47.5 549.833007812 59.3330078125 700.5 76 c 1
 674.166992188 115.333007812 635.333007812 161.833007812 584 215.5 c 1
 630 245 l 1
 725.666992188 138.666992188 794.333007812 48.6669921875 836 -25 c 1
EndSplineSet
EndChar

StartChar: uni311A
Encoding: 117 12570 117
Width: 1000
VWidth: 924
Flags: HW
LayerCount: 2
Fore
SplineSet
804 636.5 m 1
 737.333007812 525.5 647 415.166992188 533 305.5 c 1
 533 -77.5 l 1
 477.5 -77.5 l 1
 477.5 332 l 1
 601.5 446.333007812 694.333007812 556.666992188 756 663 c 1
 804 636.5 l 1
471.5 385.5 m 1
 427.5 351.5 l 1
 384.166992188 426.166992188 310.666992188 516.666992188 207 623 c 1
 246 658 l 1
 332.333007812 574.333007812 407.5 483.5 471.5 385.5 c 1
EndSplineSet
EndChar

StartChar: uni311B
Encoding: 118 12571 118
Width: 1000
VWidth: 924
Flags: HW
LayerCount: 2
Fore
SplineSet
847 563.5 m 1
 541 563.5 l 1
 541 355.5 l 1
 440.666992188 355.5 374.583007812 338.833007812 342.75 305.5 c 128
 310.916992188 272.166992188 295 234 295 191 c 0
 295 145.666992188 313 105.333007812 349 70 c 128
 385 34.6669921875 436.666992188 17 504 17 c 0
 590.666992188 17 665.166992188 44.5 727.5 99.5 c 1
 760 56.5 l 1
 693 -5.8330078125 608.166992188 -37 505.5 -37 c 0
 423.833007812 -37 359.25 -15.1669921875 311.75 28.5 c 128
 264.25 72.1669921875 240.5 127.333007812 240.5 194 c 0
 240.5 251 260.583007812 299.583007812 300.75 339.75 c 128
 340.916992188 379.916992188 402.5 402.666992188 485.5 408 c 1
 485.5 563.5 l 1
 160 563.5 l 1
 160 617 l 1
 847 617 l 1
 847 563.5 l 1
EndSplineSet
EndChar

StartChar: uni311C
Encoding: 119 12572 119
Width: 1000
VWidth: 924
Flags: HW
LayerCount: 2
Fore
SplineSet
845 464 m 1
 548 464 l 1
 548 287 l 1
 524.666992188 289.666992188 501 291 477 291 c 0
 398 291 346.166992188 276.083007812 321.5 246.25 c 128
 296.833007812 216.416992188 284.5 183.333007812 284.5 147 c 0
 284.5 101.333007812 302.75 63.75 339.25 34.25 c 128
 375.75 4.75 427.833007812 -10 495.5 -10 c 0
 586.5 -10 660.333007812 18 717 74 c 1
 755 36 l 1
 684 -30.6669921875 597.833007812 -64 496.5 -64 c 0
 410.166992188 -64 344.416992188 -43.8330078125 299.25 -3.5 c 128
 254.083007812 36.8330078125 231.5 88.5 231.5 151.5 c 0
 231.5 214.833007812 253.75 263.333007812 298.25 297 c 128
 342.75 330.666992188 407.666992188 345.5 493 341.5 c 1
 493 464 l 1
 159 464 l 1
 159 517.5 l 1
 493 517.5 l 1
 493 651.5 l 1
 548 651.5 l 1
 548 517.5 l 1
 845 517.5 l 1
 845 464 l 1
EndSplineSet
EndChar

StartChar: uni311D
Encoding: 120 12573 120
Width: 1000
VWidth: 924
Flags: HW
LayerCount: 2
Fore
SplineSet
376 437.5 m 1
 642.5 437.5 l 1
 645.5 506.166992188 646.5 573.833007812 645.5 640.5 c 1
 697.5 640.5 l 1
 698.833007812 558.5 698.5 490.833007812 696.5 437.5 c 1
 853.5 437.5 l 1
 853.5 383.5 l 1
 694.5 383.5 l 1
 682.166992188 281.166992188 657 194.833007812 619 124.5 c 1
 572.5 149 l 1
 610.833007812 220 633.166992188 298.166992188 639.5 383.5 c 1
 376 383.5 l 1
 376 42.5 l 2
 376 31.8330078125 380.5 22.5 389.5 14.5 c 128
 398.5 6.5 408.666992188 2.5 420 2.5 c 2
 778.5 2.5 l 1
 778.5 -51 l 1
 423 -51 l 2
 393.666992188 -51 369.833007812 -43 351.5 -27 c 128
 333.166992188 -11 324 11.5 324 40.5 c 2
 324 383.5 l 1
 147.5 383.5 l 1
 147.5 437.5 l 1
 324 437.5 l 1
 324 643.5 l 1
 376 643.5 l 1
 376 437.5 l 1
EndSplineSet
EndChar

StartChar: uni311E
Encoding: 121 12574 121
Width: 1000
VWidth: 924
Flags: HW
LayerCount: 2
Fore
SplineSet
838 598.5 m 1
 556.5 598.5 l 1
 553.5 508.833007812 547.333007812 436.166992188 538 380.5 c 1
 803 380.5 l 1
 809.333007812 195.166992188 767 46.6669921875 676 -65 c 1
 633 -37.5 l 1
 671 16.8330078125 699.5 69.0830078125 718.5 119.25 c 128
 737.5 169.416992188 748 238.666992188 750 327 c 1
 527.5 327 l 1
 511.166992188 248.333007812 471.333007812 174.75 408 106.25 c 128
 344.666992188 37.75 269.166992188 -15 181.5 -52 c 1
 152 -7 l 1
 232.666992188 29.6669921875 302.5 78.0830078125 361.5 138.25 c 128
 420.5 198.416992188 456.833007812 261.333007812 470.5 327 c 1
 214.5 327 l 1
 260.5 553.5 l 1
 313.5 545 l 1
 279 380.5 l 1
 481.5 380.5 l 1
 494.5 443.166992188 501 515.833007812 501 598.5 c 1
 161 598.5 l 1
 161 651.5 l 1
 838 651.5 l 1
 838 598.5 l 1
EndSplineSet
EndChar

StartChar: uni311F
Encoding: 122 12575 122
Width: 1000
VWidth: 924
Flags: HW
LayerCount: 2
Fore
SplineSet
885 4.5 m 1
 851 -42.5 l 1
 716.666992188 19.1669921875 617.25 87.0830078125 552.75 161.25 c 128
 488.25 235.416992188 431 362.333007812 381 542 c 1
 303.333007812 498.333007812 227 464.5 152 440.5 c 1
 130.5 488 l 1
 223.833007812 516.666992188 320.666992188 562.333007812 421 625 c 1
 446.666992188 476.333007812 489.666992188 352.166992188 550 252.5 c 128
 610.333007812 152.833007812 722 70.1669921875 885 4.5 c 1
EndSplineSet
EndChar

StartChar: uni3120
Encoding: 123 12576 123
Width: 1000
VWidth: 924
Flags: HW
LayerCount: 2
Fore
SplineSet
825.5 -54 m 1
 777.5 -81.5 l 1
 760.833007812 -44.5 744.833007812 -12.5 729.5 14.5 c 1
 534.833007812 -1.8330078125 356.666992188 -12.6669921875 195 -18 c 1
 185.5 33 l 1
 252.166992188 35 292.166992188 36.6669921875 305.5 38 c 1
 394.833007812 139 462 221.666992188 507 286 c 1
 393.333007812 284.666992188 292.333007812 285 204 287 c 1
 197 341.5 l 1
 209.666992188 339.166992188 220.833007812 338.5 230.5 339.5 c 1
 330.166992188 463.166992188 408.666992188 574.333007812 466 673 c 1
 512.5 645.5 l 1
 449.833007812 542.5 379.166992188 440.166992188 300.5 338.5 c 1
 342.833007812 336.833007812 387.666992188 336 435 336 c 0
 471 336 507.333007812 336.333007812 544 337 c 1
 583.333007812 393 620.5 454.833007812 655.5 522.5 c 1
 704 499 l 1
 640 370.666992188 532.666992188 218.833007812 382 43.5 c 1
 513.666992188 48.5 619.833007812 55.6669921875 700.5 65 c 1
 677.5 101.666992188 652.333007812 139.5 625 178.5 c 1
 670 204 l 1
 737.666992188 112.333007812 789.5 26.3330078125 825.5 -54 c 1
EndSplineSet
EndChar

StartChar: uni3121
Encoding: 124 12577 124
Width: 1000
VWidth: 924
Flags: HW
LayerCount: 2
Fore
SplineSet
837 22 m 1
 801 -21 l 1
 735 46 647.333007812 116.333007812 538 190 c 1
 440 85.6669921875 320.833007812 -1.5 180.5 -71.5 c 1
 147.5 -26.5 l 1
 289.833007812 42.1669921875 404 124.833007812 490 221.5 c 1
 401.333007812 278.5 313.5 329.666992188 226.5 375 c 1
 258.5 420 l 1
 335.5 380 425.166992188 327.166992188 527.5 261.5 c 1
 588.833007812 331.833007812 640 430.5 681 557.5 c 1
 222.5 557.5 l 1
 222.5 611.5 l 1
 755 611.5 l 1
 712.333007812 456.166992188 651.833007812 329.666992188 573.5 232 c 1
 693.166992188 148.666992188 781 78.6669921875 837 22 c 1
EndSplineSet
EndChar

StartChar: uni3122
Encoding: 125 12578 125
Width: 1000
VWidth: 924
Flags: HW
LayerCount: 2
Fore
SplineSet
758 627 m 1
 734 512 707 417.166992188 677 342.5 c 1
 625 359 l 1
 654.666992188 432.666992188 677.166992188 504 692.5 573 c 1
 182.5 573 l 1
 182.5 627 l 1
 758 627 l 1
835 299.5 m 1
 815 170.5 775.333007812 42.8330078125 716 -83.5 c 1
 667 -62 l 1
 709.666992188 25.6669921875 743.833007812 128.333007812 769.5 246 c 1
 259.5 246 l 1
 259.5 290 l 1
 281.5 359 301.666992188 434.5 320 516.5 c 1
 373 505 l 1
 358 433.333007812 338.833007812 364.833007812 315.5 299.5 c 1
 835 299.5 l 1
EndSplineSet
EndChar

StartChar: uni3123
Encoding: 126 12579 126
Width: 1000
VWidth: 924
Flags: HW
LayerCount: 2
Fore
SplineSet
810.5 370 m 1
 798.166992188 201 766.333007812 52.5 715 -75.5 c 1
 664 -57 l 1
 710 57.3330078125 739.333007812 182 752 317 c 1
 194 317 l 1
 254 662 l 1
 308.5 650.5 l 1
 256.5 370 l 1
 810.5 370 l 1
EndSplineSet
EndChar

StartChar: uni3124
Encoding: 127 12580 127
Width: 1000
VWidth: 924
Flags: HW
LayerCount: 2
Fore
SplineSet
846 -67 m 1
 628 -67 l 2
 604 -67 584.5 -59.8330078125 569.5 -45.5 c 128
 554.5 -31.1669921875 547 -12.5 547 10.5 c 2
 547 424.5 l 1
 510 424.5 l 1
 486.333007812 216.833007812 379.166992188 49.1669921875 188.5 -78.5 c 1
 152 -35.5 l 1
 330.666992188 80.8330078125 431.333007812 234.166992188 454 424.5 c 1
 196 424.5 l 1
 196 477.5 l 1
 460 477.5 l 1
 465 525.5 468.166992188 587.666992188 469.5 664 c 1
 521.5 664 l 1
 523.166992188 620 521.166992188 557.833007812 515.5 477.5 c 1
 831 477.5 l 1
 831 424.5 l 1
 602.5 424.5 l 1
 602.5 15.5 l 2
 602.5 -6.1669921875 613 -17 634 -17 c 2
 846 -17 l 1
 846 -67 l 1
EndSplineSet
EndChar

StartChar: uni3125
Encoding: 128 12581 128
Width: 1000
VWidth: 924
Flags: HW
LayerCount: 2
Fore
SplineSet
813.5 -24 m 1
 195 -24 l 1
 195 39.5 l 1
 316.666992188 202.5 406.666992188 391.833007812 465 607.5 c 1
 520.5 593 l 1
 460.5 385 372.166992188 196.666992188 255.5 28 c 1
 813.5 28 l 1
 813.5 -24 l 1
EndSplineSet
EndChar

StartChar: uni3126
Encoding: 129 12582 129
Width: 1000
VWidth: 924
Flags: HW
LayerCount: 2
Fore
SplineSet
865.5 -17 m 1
 658.5 -17 l 2
 613.5 -17 591 7.1669921875 591 55.5 c 2
 591 641.5 l 1
 645.5 641.5 l 1
 645.5 53.5 l 2
 645.5 49.1669921875 647.416992188 45.1669921875 651.25 41.5 c 128
 655.083007812 37.8330078125 658.666992188 36 662 36 c 2
 865.5 36 l 1
 865.5 -17 l 1
420 439.5 m 2
 420 209.833007812 339.166992188 49.5 177.5 -41.5 c 1
 139.5 -1.5 l 1
 289.833007812 73.8330078125 365 222.166992188 365 443.5 c 2
 365 641.5 l 1
 420 641.5 l 1
 420 439.5 l 2
EndSplineSet
EndChar

StartChar: uni3127
Encoding: 130 12583 130
Width: 1000
VWidth: 924
Flags: HW
LayerCount: 2
Fore
SplineSet
832 267.5 m 1
 172.5 267.5 l 1
 172.5 322 l 1
 832 322 l 1
 832 267.5 l 1
EndSplineSet
EndChar

StartChar: uni3128
Encoding: 131 12584 131
Width: 1000
VWidth: 924
Flags: HW
LayerCount: 2
Fore
SplineSet
833 15.5 m 1
 792 -20 l 1
 720.666992188 70.6669921875 636.666992188 160.666992188 540 250 c 1
 444.333007812 126.333007812 330 24 197 -57 c 1
 162 -12 l 1
 303.333007812 74.3330078125 416.333007812 174.333007812 501 288 c 1
 416.666992188 358.666992188 320 432.833007812 211 510.5 c 1
 243 554.5 l 1
 387.666992188 449.166992188 483.833007812 375 531.5 332 c 1
 587.833007812 415.333007812 635.333007812 521.166992188 674 649.5 c 1
 723 632 l 1
 692.666992188 514.333007812 642.5 401.333007812 572.5 293 c 1
 697.5 178.666992188 784.333007812 86.1669921875 833 15.5 c 1
EndSplineSet
EndChar

StartChar: uni3129
Encoding: 132 12585 132
Width: 1000
VWidth: 924
Flags: HW
LayerCount: 2
Fore
SplineSet
803 -1.5 m 1
 748 -1.5 l 1
 748 46.5 l 1
 212.5 46.5 l 1
 212.5 590 l 1
 266.5 590 l 1
 266.5 100.5 l 1
 748 100.5 l 1
 748 590 l 1
 803 590 l 1
 803 -1.5 l 1
EndSplineSet
EndChar

StartChar: uni312A
Encoding: 133 12586 133
Width: 1000
VWidth: 924
Flags: HW
LayerCount: 2
Fore
SplineSet
857.5 597.5 m 1
 464 597.5 l 1
 461.333007812 542.833007812 456 482.333007812 448 416 c 1
 771.5 416 l 1
 770.5 322.333007812 766.5 240.916992188 759.5 171.75 c 128
 752.5 102.583007812 746.416992188 59.5 741.25 42.5 c 128
 736.083007812 25.5 725.75 9.8330078125 710.25 -4.5 c 128
 694.75 -18.8330078125 673.416992188 -27.5830078125 646.25 -30.75 c 128
 619.083007812 -33.9169921875 584.666992188 -34.8330078125 543 -33.5 c 1
 520.5 22 l 1
 542.833007812 21.3330078125 562.166992188 21 578.5 21 c 0
 623.833007812 21 651.75 23.9169921875 662.25 29.75 c 128
 672.75 35.5830078125 680.5 43.25 685.5 52.75 c 128
 690.5 62.25 696.666992188 101.833007812 704 171.5 c 128
 711.333007812 241.166992188 715.333007812 305 716 363 c 1
 438.5 363 l 1
 413.166992188 210.333007812 330.166992188 73.6669921875 189.5 -47 c 1
 152 -1.5 l 1
 258.666992188 83.1669921875 326.833007812 173.333007812 356.5 269 c 128
 386.166992188 364.666992188 403.333007812 474.166992188 408 597.5 c 1
 150 597.5 l 1
 150 650.5 l 1
 857.5 650.5 l 1
 857.5 597.5 l 1
EndSplineSet
EndChar

StartChar: uni312B
Encoding: 134 12587 134
Width: 1000
VWidth: 924
Flags: HW
LayerCount: 2
Fore
SplineSet
855.5 -7 m 1
 676 -7 l 2
 616 -7 586 19 586 71 c 2
 586 600.5 l 1
 431.5 600.5 l 1
 429.5 451.166992188 422.916992188 345.583007812 411.75 283.75 c 128
 400.583007812 221.916992188 376.166992188 164.25 338.5 110.75 c 128
 300.833007812 57.25 248.833007812 9.5 182.5 -32.5 c 1
 143.5 8.5 l 1
 198.5 41.1669921875 244.666992188 82 282 131 c 128
 319.333007812 180 344 232.083007812 356 287.25 c 128
 368 342.416992188 375 446.833007812 377 600.5 c 1
 164 600.5 l 1
 164 653.5 l 1
 843 653.5 l 1
 843 600.5 l 1
 640.5 600.5 l 1
 640.5 74 l 2
 640.5 54.3330078125 651.333007812 44.5 673 44.5 c 2
 855.5 44.5 l 1
 855.5 -7 l 1
EndSplineSet
EndChar

StartChar: uni312D
Encoding: 136 12589 136
Width: 1000
VWidth: 924
Flags: HW
LayerCount: 2
Fore
SplineSet
146.5 650.5 m 1
 854.5 650.5 l 1
 854.5 599.5 l 1
 524.5 599.5 l 1
 524.5 413 l 1
 780.5 413 l 1
 780.5 55.5 l 1
 725.5 55.5 l 1
 725.5 360.5 l 1
 524.5 360.5 l 1
 524.5 -35.5 l 1
 469.5 -35.5 l 1
 469.5 360.5 l 1
 272.5 360.5 l 1
 272.5 55.5 l 1
 217.5 55.5 l 1
 217.5 413 l 1
 469.5 413 l 1
 469.5 599.5 l 1
 146.5 599.5 l 1
 146.5 650.5 l 1
EndSplineSet
EndChar

StartChar: uni31A0
Encoding: 137 12704 137
Width: 1000
VWidth: 924
Flags: HW
LayerCount: 2
Fore
SplineSet
811.5 495 m 1
 805.166992188 243.666992188 787.666992188 84.3330078125 759 17 c 128
 730.333007812 -50.3330078125 684 -84 620 -84 c 0
 585 -84 557.25 -72.9169921875 536.75 -50.75 c 128
 516.25 -28.5830078125 506 -3 506 26 c 0
 506 53.6669921875 516.75 77.5 538.25 97.5 c 128
 559.75 117.5 584.166992188 127.5 611.5 127.5 c 0
 656.5 127.5 692.666992188 105.666992188 720 62 c 1
 737.666992188 133.666992188 749.666992188 260.166992188 756 441.5 c 1
 205 441.5 l 1
 205 492 l 1
 238 548.666992188 272.833007812 617.166992188 309.5 697.5 c 1
 360.5 680.5 l 1
 329.833007812 614.5 299.833007812 552.666992188 270.5 495 c 1
 811.5 495 l 1
693.5 6.5 m 1
 672.166992188 53.1669921875 645 76.5 612 76.5 c 0
 597.666992188 76.5 585.5 71 575.5 60 c 128
 565.5 49 560.5 36.1669921875 560.5 21.5 c 0
 560.5 6.5 566.5 -6.25 578.5 -16.75 c 128
 590.5 -27.25 604.833007812 -32.5 621.5 -32.5 c 0
 652.166992188 -32.5 676.166992188 -19.5 693.5 6.5 c 1
EndSplineSet
EndChar

StartChar: uni31A1
Encoding: 138 12705 138
Width: 1000
VWidth: 924
Flags: HW
LayerCount: 2
Fore
SplineSet
796 650.5 m 1
 795.333007812 581.5 792.25 496.083007812 786.75 394.25 c 128
 781.25 292.416992188 774.416992188 234.666992188 766.25 221 c 128
 758.083007812 207.333007812 747.083007812 195.083007812 733.25 184.25 c 128
 719.416992188 173.416992188 688.166992188 168 639.5 168 c 2
 558.5 169.5 l 1
 545 224.5 l 1
 579 222.166992188 605.666992188 221 625 221 c 0
 664 221 688.5 224.25 698.5 230.75 c 128
 708.5 237.25 715.333007812 246 719 257 c 128
 722.666992188 268 726.666992188 311.583007812 731 387.75 c 128
 735.333007812 463.916992188 737.5 533.166992188 737.5 595.5 c 1
 464 595.5 l 1
 464 -59 l 1
 409 -59 l 1
 409 -7 l 1
 388.666992188 -25.6669921875 364.666992188 -35 337 -35 c 0
 308.666992188 -35 285.166992188 -24.75 266.5 -4.25 c 128
 247.833007812 16.25 238.5 39 238.5 64 c 0
 238.5 90.6669921875 248.583007812 113.666992188 268.75 133 c 128
 288.916992188 152.333007812 313 162 341 162 c 0
 363.333007812 162 386 152.166992188 409 132.5 c 1
 409 595.5 l 1
 205 595.5 l 1
 205 650.5 l 1
 796 650.5 l 1
384.5 61 m 0
 384.5 75 379.833007812 86.75 370.5 96.25 c 128
 361.166992188 105.75 349.666992188 110.5 336 110.5 c 256
 322.333007812 110.5 311.083007812 105.833007812 302.25 96.5 c 128
 293.416992188 87.1669921875 289 75.8330078125 289 62.5 c 0
 289 48.5 293.666992188 36.8330078125 303 27.5 c 128
 312.333007812 18.1669921875 323.833007812 13.5 337.5 13.5 c 0
 350.166992188 13.5 361.166992188 18.25 370.5 27.75 c 128
 379.833007812 37.25 384.5 48.3330078125 384.5 61 c 0
EndSplineSet
EndChar

StartChar: uni31A2
Encoding: 139 12706 139
Width: 1000
VWidth: 924
Flags: HW
LayerCount: 2
Fore
SplineSet
693.5 -86.5 m 1
 639.5 -86.5 l 1
 639.5 -54 l 1
 623.5 -60.3330078125 607.5 -63.5 591.5 -63.5 c 0
 560.5 -63.5 535.25 -53.3330078125 515.75 -33 c 128
 496.25 -12.6669921875 486.5 11.5 486.5 39.5 c 0
 486.5 70.1669921875 497.333007812 95.4169921875 519 115.25 c 128
 540.666992188 135.083007812 564.666992188 145 591 145 c 0
 608.666992188 145 624.833007812 140.166992188 639.5 130.5 c 1
 639.5 274 l 1
 496.166992188 237.333007812 385.166992188 212 306.5 198 c 1
 289 248 l 1
 313 252.333007812 334.166992188 256.5 352.5 260.5 c 1
 352.5 618 l 1
 408 618 l 1
 408 272.5 l 1
 471 284.5 548.166992188 303.333007812 639.5 329 c 1
 639.5 674 l 1
 693.5 674 l 1
 693.5 -86.5 l 1
637.5 40.5 m 0
 637.5 53.8330078125 632.416992188 65.1669921875 622.25 74.5 c 128
 612.083007812 83.8330078125 600.666992188 88.5 588 88.5 c 0
 576.333007812 88.5 565.416992188 83.75 555.25 74.25 c 128
 545.083007812 64.75 540 53.1669921875 540 39.5 c 0
 540 26.1669921875 545 14.5 555 4.5 c 128
 565 -5.5 576 -10.5 588 -10.5 c 256
 600 -10.5 611.25 -5.5830078125 621.75 4.25 c 128
 632.25 14.0830078125 637.5 26.1669921875 637.5 40.5 c 0
EndSplineSet
EndChar

StartChar: uni31A3
Encoding: 140 12707 140
Width: 1000
VWidth: 924
Flags: HW
LayerCount: 2
Fore
SplineSet
449 649.5 m 1
 392 536.833007812 313.166992188 419.5 212.5 297.5 c 1
 335.166992188 128.166992188 413.666992188 9.6669921875 448 -58 c 1
 402.5 -85.5 l 1
 346.5 20.1669921875 259.833007812 148.166992188 142.5 298.5 c 1
 250.833007812 422.5 337.5 547.333007812 402.5 673 c 1
 449 649.5 l 1
658.5 68 m 1
 665.166992188 85.3330078125 676.75 99.8330078125 693.25 111.5 c 128
 709.75 123.166992188 727.5 129 746.5 129 c 0
 772.833007812 129 796.333007812 119.666992188 817 101 c 128
 837.666992188 82.3330078125 848 58.6669921875 848 30 c 0
 848 2.6669921875 838.333007812 -20.6669921875 819 -40 c 128
 799.666992188 -59.3330078125 775.666992188 -69 747 -69 c 0
 738.666992188 -69 730.333007812 -68 722 -66 c 1
 676 -88.5 l 1
 631 20.1669921875 557.666992188 147.666992188 456 294 c 1
 554 412 636.666992188 536 704 666 c 1
 752 642.5 l 1
 700 538.166992188 623.166992188 421.666992188 521.5 293 c 1
 562.166992188 231 607.833007812 156 658.5 68 c 1
750 -14 m 0
 761.666992188 -14 772.166992188 -9.75 781.5 -1.25 c 128
 790.833007812 7.25 795.5 17.8330078125 795.5 30.5 c 0
 795.5 42.8330078125 790.833007812 53.5 781.5 62.5 c 128
 772.166992188 71.5 761.5 76 749.5 76 c 256
 737.5 76 727.083007812 71.75 718.25 63.25 c 128
 709.416992188 54.75 705 44 705 31 c 0
 705 18.3330078125 709.416992188 7.6669921875 718.25 -1 c 128
 727.083007812 -9.6669921875 737.666992188 -14 750 -14 c 0
EndSplineSet
EndChar

StartChar: uni31A4
Encoding: 141 12708 141
Width: 1000
VWidth: 924
Flags: HW
LayerCount: 2
Fore
SplineSet
850 -59 m 1
 421 -59 l 2
 391 -59 366.5 -50.1669921875 347.5 -32.5 c 128
 328.5 -14.8330078125 319 8.6669921875 319 38 c 2
 319 408 l 1
 145.5 408 l 1
 145.5 461 l 1
 319 461 l 1
 319 660 l 1
 375 660 l 1
 375 461 l 1
 832 461 l 1
 832 408 l 1
 784.666992188 331 723.5 248.666992188 648.5 161 c 1
 603.5 193 l 1
 670.166992188 267.666992188 725.166992188 339.333007812 768.5 408 c 1
 375 408 l 1
 375 40.5 l 2
 375 8.8330078125 391 -7 423 -7 c 2
 850 -7 l 1
 850 -59 l 1
EndSplineSet
EndChar

StartChar: uni31A5
Encoding: 142 12709 142
Width: 1000
VWidth: 924
Flags: HW
LayerCount: 2
Fore
SplineSet
685.5 12.5 m 1
 662.833007812 35.5 651.5 60.6669921875 651.5 88 c 0
 651.5 114.333007812 662 137.25 683 156.75 c 128
 704 176.25 729.333007812 186 759 186 c 256
 788.666992188 186 813.75 175.833007812 834.25 155.5 c 128
 854.75 135.166992188 865 111 865 83 c 0
 865 37.6669921875 844.666992188 6.3330078125 804 -11 c 1
 823 -24.3330078125 840.166992188 -34.1669921875 855.5 -40.5 c 1
 821.5 -80.5 l 1
 816.166992188 -78.5 791 -63.8330078125 746 -36.5 c 1
 714.666992188 -39.8330078125 695.833007812 -41.5 689.5 -41.5 c 2
 415 -41.5 l 2
 388.666992188 -41.5 365.833007812 -32.9169921875 346.5 -15.75 c 128
 327.166992188 1.4169921875 317.5 24.5 317.5 53.5 c 2
 317.5 457 l 1
 139.5 457 l 1
 139.5 510.5 l 1
 317.5 510.5 l 1
 317.5 669 l 1
 374 669 l 1
 374 510.5 l 1
 834 510.5 l 1
 834 457 l 1
 784.333007812 371 733 299 680 241 c 1
 635 275 l 1
 691.333007812 335.666992188 736.5 396.333007812 770.5 457 c 1
 374 457 l 1
 374 55.5 l 2
 374 43.1669921875 378.833007812 32.9169921875 388.5 24.75 c 128
 398.166992188 16.5830078125 410.833007812 12.5 426.5 12.5 c 2
 685.5 12.5 l 1
754 21 m 1
 773 26 787.916992188 34.4169921875 798.75 46.25 c 128
 809.583007812 58.0830078125 815 70.6669921875 815 84 c 0
 815 97.6669921875 809.583007812 109.75 798.75 120.25 c 128
 787.916992188 130.75 774.5 136 758.5 136 c 0
 744.166992188 136 731.75 131.666992188 721.25 123 c 128
 710.75 114.333007812 705.5 102.666992188 705.5 88 c 0
 705.5 63.6669921875 721.666992188 41.3330078125 754 21 c 1
EndSplineSet
EndChar

StartChar: uni31A6
Encoding: 143 12710 143
Width: 1000
VWidth: 924
Flags: HW
LayerCount: 2
Fore
SplineSet
842 579 m 1
 543 579 l 1
 543 379 l 1
 529.333007812 381 515.833007812 382 502.5 382 c 0
 445.166992188 382 397.333007812 366.666992188 359 336 c 128
 320.666992188 305.333007812 297 261.333007812 288 204 c 1
 459 5.5 l 1
 560 10.1669921875 649.833007812 68.8330078125 728.5 181.5 c 1
 770.5 146 l 1
 686.166992188 19.3330078125 574.166992188 -46 434.5 -50 c 1
 230.5 184.5 l 1
 235.166992188 251.5 260.25 309.583007812 305.75 358.75 c 128
 351.25 407.916992188 411.833007812 433.5 487.5 435.5 c 1
 487.5 579 l 1
 166 579 l 1
 166 632 l 1
 842 632 l 1
 842 579 l 1
EndSplineSet
EndChar

StartChar: uni31A7
Encoding: 144 12711 144
Width: 1000
VWidth: 924
Flags: HW
LayerCount: 2
Fore
SplineSet
847 580 m 1
 543 580 l 1
 543 385.5 l 1
 461.333007812 386.5 398.5 369 354.5 333 c 128
 310.5 297 288.5 250.666992188 288.5 194 c 0
 288.5 138.666992188 308.166992188 93.1669921875 347.5 57.5 c 128
 386.833007812 21.8330078125 434.666992188 4 491 4 c 0
 546.333007812 4 595.333007812 20.8330078125 638 54.5 c 1
 587.333007812 95.5 562 140 562 188 c 0
 562 218.333007812 572.5 241.833007812 593.5 258.5 c 128
 614.5 275.166992188 640.5 283.5 671.5 283.5 c 0
 700.833007812 283.5 725.583007812 275.333007812 745.75 259 c 128
 765.916992188 242.666992188 776 219.5 776 189.5 c 0
 776 147.5 758.833007812 105.666992188 724.5 64 c 1
 745.5 50.3330078125 771.333007812 38.6669921875 802 29 c 1
 780.5 -20 l 1
 747.833007812 -9.3330078125 716.166992188 5.6669921875 685.5 25 c 1
 627.833007812 -24 561.5 -48.5 486.5 -48.5 c 0
 418.5 -48.5 359.666992188 -25.4169921875 310 20.75 c 128
 260.333007812 66.9169921875 235.5 123.333007812 235.5 190 c 0
 235.5 256.333007812 257.25 312.5 300.75 358.5 c 128
 344.25 404.5 406.5 429.5 487.5 433.5 c 1
 487.5 580 l 1
 162 580 l 1
 162 633 l 1
 847 633 l 1
 847 580 l 1
679 93.5 m 1
 706.666992188 125.5 720.5 156.666992188 720.5 187 c 0
 720.5 216.666992188 705 231.5 674 231.5 c 0
 660 231.5 646.916992188 227.5 634.75 219.5 c 128
 622.583007812 211.5 616.5 199.666992188 616.5 184 c 0
 616.5 150.333007812 637.333007812 120.166992188 679 93.5 c 1
EndSplineSet
EndChar

StartChar: uni31A8
Encoding: 145 12712 145
Width: 1000
VWidth: 924
Flags: HW
LayerCount: 2
Fore
SplineSet
899.5 -17 m 1
 866.5 -66 l 1
 716.166992188 11.6669921875 594.333007812 91.8330078125 501 174.5 c 1
 408 87.1669921875 288.5 9 142.5 -60 c 1
 113 -13 l 1
 260.333007812 57.3330078125 376.333007812 132.5 461 212.5 c 1
 382 300.5 306.666992188 431.5 235 605.5 c 1
 285 632 l 1
 345.333007812 476 416.666992188 349.833007812 499 253.5 c 1
 572.666992188 332.833007812 642.666992188 464.5 709 648.5 c 1
 760 628 l 1
 720.666992188 507 663.666992188 389.666992188 589 276 c 1
 824.5 276 l 1
 824.5 223.5 l 1
 547 223.5 l 1
 544 219.166992188 541.333007812 216.166992188 539 214.5 c 1
 618.333007812 140.5 738.5 63.3330078125 899.5 -17 c 1
EndSplineSet
EndChar

StartChar: uni31A9
Encoding: 146 12713 146
Width: 1000
VWidth: 924
Flags: HW
LayerCount: 2
Fore
SplineSet
819.5 641.5 m 1
 733.833007812 511.166992188 637.833007812 394.333007812 531.5 291 c 1
 531.5 -82.5 l 1
 476.5 -82.5 l 1
 476.5 -41.5 l 1
 460.5 -53.8330078125 440.5 -60 416.5 -60 c 0
 384.833007812 -60 359.583007812 -50 340.75 -30 c 128
 321.916992188 -10 312.5 13.6669921875 312.5 41 c 0
 312.5 69.3330078125 321.75 93.5 340.25 113.5 c 128
 358.75 133.5 383.666992188 143.5 415 143.5 c 0
 438 143.5 458.5 137.833007812 476.5 126.5 c 1
 476.5 318 l 1
 602.833007812 440.666992188 702.5 559.333007812 775.5 674 c 1
 819.5 641.5 l 1
419.5 -7 m 256
 433.833007812 -7 446 -1.9169921875 456 8.25 c 128
 466 18.4169921875 471 30.3330078125 471 44 c 0
 471 57.3330078125 465.916992188 69.3330078125 455.75 80 c 128
 445.583007812 90.6669921875 434.333007812 96 422 96 c 0
 408 96 395.5 91.25 384.5 81.75 c 128
 373.5 72.25 368 60.1669921875 368 45.5 c 0
 368 31.5 373 19.25 383 8.75 c 128
 393 -1.75 405.166992188 -7 419.5 -7 c 256
469.5 397.5 m 1
 430.5 359 l 1
 379.166992188 443.666992188 307.166992188 534 214.5 630 c 1
 252 669 l 1
 344.666992188 572 417.166992188 481.5 469.5 397.5 c 1
EndSplineSet
EndChar

StartChar: uni31AA
Encoding: 147 12714 147
Width: 1000
VWidth: 924
Flags: HW
LayerCount: 2
Fore
SplineSet
681 313.5 m 1
 671 332.5 666 352.666992188 666 374 c 0
 666 405.333007812 676.083007812 430.25 696.25 448.75 c 128
 716.416992188 467.25 741.166992188 476.5 770.5 476.5 c 256
 799.833007812 476.5 824.416992188 466.5 844.25 446.5 c 128
 864.083007812 426.5 874 403.333007812 874 377 c 0
 874 323 844.833007812 286.833007812 786.5 268.5 c 1
 803.5 250.833007812 821.666992188 235.833007812 841 223.5 c 1
 805 185.5 l 1
 786 196.5 758.666992188 221.5 723 260.5 c 1
 134.5 260.5 l 1
 134.5 313.5 l 1
 681 313.5 l 1
747 313.5 m 1
 796 318.5 820.5 338.5 820.5 373.5 c 0
 820.5 387.166992188 815.666992188 398.916992188 806 408.75 c 128
 796.333007812 418.583007812 783 423.5 766 423.5 c 0
 754 423.5 743.25 418.333007812 733.75 408 c 128
 724.25 397.666992188 719.5 385.5 719.5 371.5 c 0
 719.5 351.5 728.666992188 332.166992188 747 313.5 c 1
EndSplineSet
EndChar

StartChar: uni31AB
Encoding: 148 12715 148
Width: 1000
VWidth: 924
Flags: HW
LayerCount: 2
Fore
SplineSet
672 132.5 m 1
 673.333007812 166.5 684.916992188 194.5 706.75 216.5 c 128
 728.583007812 238.5 757.5 249.5 793.5 249.5 c 0
 830.166992188 249.5 859.833007812 237.166992188 882.5 212.5 c 128
 905.166992188 187.833007812 916.5 159.5 916.5 127.5 c 0
 916.5 93.8330078125 906 66.0830078125 885 44.25 c 128
 864 22.4169921875 835.833007812 11.5 800.5 11.5 c 0
 792.166992188 11.5 783.833007812 12.1669921875 775.5 13.5 c 1
 782.833007812 0.8330078125 798.833007812 -19.3330078125 823.5 -47 c 1
 778.5 -74.5 l 1
 743.5 -36.1669921875 715.5 5.8330078125 694.5 51.5 c 1
 632.166992188 89.1669921875 570 139.333007812 508 202 c 1
 409 107.333007812 285.5 34.3330078125 137.5 -17 c 1
 103.5 33 l 1
 248.5 78.6669921875 370.166992188 148.333007812 468.5 242 c 1
 383.833007812 335.666992188 304.166992188 463.333007812 229.5 625 c 1
 277 655.5 l 1
 345 499.833007812 421.666992188 375 507 281 c 1
 602 396.666992188 668.333007812 527 706 672 c 1
 756 658 l 1
 714 496.333007812 643.666992188 358 545 243 c 1
 579.666992188 204.666992188 622 167.833007812 672 132.5 c 1
807 65.5 m 0
 823 65.5 836.583007812 71 847.75 82 c 128
 858.916992188 93 864.5 108.5 864.5 128.5 c 0
 864.5 147.166992188 857.25 164 842.75 179 c 128
 828.25 194 810.666992188 201.5 790 201.5 c 0
 772 201.5 756.166992188 194.833007812 742.5 181.5 c 128
 728.833007812 168.166992188 722 151.5 722 131.5 c 0
 722 120.833007812 723.75 111.416992188 727.25 103.25 c 128
 730.75 95.0830078125 741.833007812 86.75 760.5 78.25 c 128
 779.166992188 69.75 794.666992188 65.5 807 65.5 c 0
EndSplineSet
EndChar

StartChar: uni31AC
Encoding: 149 12716 149
Width: 1000
VWidth: 924
Flags: HW
LayerCount: 2
Fore
SplineSet
849 602.5 m 1
 849.666992188 566.833007812 850 531 850 495 c 0
 850 405 847.75 313.75 843.25 221.25 c 128
 838.75 128.75 832.416992188 71.0830078125 824.25 48.25 c 128
 816.083007812 25.4169921875 802.75 5.9169921875 784.25 -10.25 c 128
 765.75 -26.4169921875 724.5 -34.5 660.5 -34.5 c 0
 642.833007812 -34.5 625.5 -33.8330078125 608.5 -32.5 c 1
 592 23 l 1
 613.666992188 20.6669921875 636.666992188 19.5 661 19.5 c 0
 709 19.5 738.916992188 24 750.75 33 c 128
 762.583007812 42 771.25 54.25 776.75 69.75 c 128
 782.25 85.25 786.833007812 139.416992188 790.5 232.25 c 128
 794.166992188 325.083007812 796 430.666992188 796 549 c 1
 539 549 l 1
 539 9.5 l 1
 482.5 9.5 l 1
 482.5 549 l 1
 324 549 l 1
 324 -35.5 l 1
 269.5 -35.5 l 1
 269.5 549 l 1
 124 549 l 1
 124 602.5 l 1
 849 602.5 l 1
EndSplineSet
EndChar

StartChar: uni31AD
Encoding: 150 12717 150
Width: 1000
VWidth: 924
Flags: HW
LayerCount: 2
Fore
SplineSet
872.5 560.5 m 1
 712 560.5 l 1
 712 51.5 l 2
 712 38.5 719.166992188 32 733.5 32 c 2
 871.5 32 l 1
 871.5 -21 l 1
 727.5 -21 l 2
 709.5 -21 693.333007812 -13.9169921875 679 0.25 c 128
 664.666992188 14.4169921875 657.5 30.5 657.5 48.5 c 2
 657.5 560.5 l 1
 525.5 560.5 l 1
 525.5 -60 l 1
 470.5 -60 l 1
 470.5 560.5 l 1
 330 560.5 l 1
 330 405 l 2
 330 287 319.166992188 195.75 297.5 131.25 c 128
 275.833007812 66.75 232.333007812 13.5 167 -28.5 c 1
 128.5 8.5 l 1
 181.5 43.5 219.25 87.25 241.75 139.75 c 128
 264.25 192.25 275.5 274.5 275.5 386.5 c 2
 275.5 560.5 l 1
 134.5 560.5 l 1
 134.5 613.5 l 1
 872.5 613.5 l 1
 872.5 560.5 l 1
EndSplineSet
EndChar

StartChar: uni31AE
Encoding: 151 12718 151
Width: 1000
VWidth: 924
Flags: HW
LayerCount: 2
Fore
SplineSet
865 596.5 m 1
 570 596.5 l 1
 568.333007812 532.833007812 563.666992188 464.833007812 556 392.5 c 1
 837.5 392.5 l 1
 826.166992188 195.5 789.333007812 41.1669921875 727 -70.5 c 1
 679.5 -49 l 1
 734.833007812 61.3330078125 768 190.833007812 779 339.5 c 1
 547.5 339.5 l 1
 519.833007812 221.833007812 470.333007812 123.166992188 399 43.5 c 1
 409 8.8330078125 415.5 -23.3330078125 418.5 -53 c 1
 371.5 -77.5 l 1
 367.833007812 -47.1669921875 362.333007812 -20.8330078125 355 1.5 c 1
 320.333007812 -27.1669921875 286.333007812 -41.5 253 -41.5 c 0
 224.333007812 -41.5 198.583007812 -30.25 175.75 -7.75 c 128
 152.916992188 14.75 141.5 41.5 141.5 72.5 c 0
 141.5 102.833007812 152.333007812 129.583007812 174 152.75 c 128
 195.666992188 175.916992188 223.666992188 187.5 258 187.5 c 0
 309.333007812 187.5 348.833007812 157.833007812 376.5 98.5 c 1
 435.166992188 167.166992188 473 247.5 490 339.5 c 1
 224 339.5 l 1
 247 395.166992188 268.166992188 465.833007812 287.5 551.5 c 1
 340.5 538 l 1
 327.833007812 485 314.333007812 436.5 300 392.5 c 1
 501.5 392.5 l 1
 509.166992188 448.166992188 513.666992188 516.166992188 515 596.5 c 1
 185 596.5 l 1
 185 649.5 l 1
 865 649.5 l 1
 865 596.5 l 1
336.5 56.5 m 1
 320.5 109.166992188 293.833007812 135.5 256.5 135.5 c 0
 239.166992188 135.5 224.583007812 128.833007812 212.75 115.5 c 128
 200.916992188 102.166992188 195 87.8330078125 195 72.5 c 0
 195 56.8330078125 200.833007812 43.1669921875 212.5 31.5 c 128
 224.166992188 19.8330078125 238.833007812 14 256.5 14 c 0
 283.166992188 14 309.833007812 28.1669921875 336.5 56.5 c 1
EndSplineSet
EndChar

StartChar: uni31AF
Encoding: 152 12719 152
Width: 1000
VWidth: 924
Flags: HW
LayerCount: 2
Fore
SplineSet
626 48.5 m 1
 617.333007812 74.1669921875 613 97.5 613 118.5 c 0
 613 151.833007812 625 179.416992188 649 201.25 c 128
 673 223.083007812 699.666992188 234 729 234 c 0
 758 234 783.833007812 223.5 806.5 202.5 c 128
 829.166992188 181.5 840.5 155.166992188 840.5 123.5 c 0
 840.5 60.1669921875 800 20.5 719 4.5 c 1
 741 -17.5 761.5 -35.3330078125 780.5 -49 c 1
 742.5 -85.5 l 1
 713.166992188 -64.5 684.166992188 -36.1669921875 655.5 -0.5 c 1
 514.5 -14.8330078125 360 -25.8330078125 192 -33.5 c 1
 178.5 20 l 1
 222.166992188 21 263.166992188 23.3330078125 301.5 27 c 1
 364.166992188 95.6669921875 430.666992188 180 501 280 c 1
 368.666992188 277.333007812 264.833007812 276 189.5 276 c 1
 180.5 329 l 1
 205.833007812 329 222.5 329.333007812 230.5 330 c 1
 304.5 418 378.666992188 530 453 666 c 1
 500 641.5 l 1
 450.333007812 541.5 383.166992188 437.333007812 298.5 329 c 1
 365.166992188 328 445.333007812 330 539 335 c 1
 573 382 606.5 435.666992188 639.5 496 c 1
 687.5 468.5 l 1
 577.166992188 287.166992188 472.666992188 141.333007812 374 31 c 1
 453.666992188 34 537.666992188 39.8330078125 626 48.5 c 1
685.5 54.5 m 1
 753.166992188 61.5 787 85 787 125 c 0
 787 139.666992188 781.25 152.583007812 769.75 163.75 c 128
 758.25 174.916992188 744.833007812 180.5 729.5 180.5 c 0
 713.166992188 180.5 698.75 174.166992188 686.25 161.5 c 128
 673.75 148.833007812 667.5 133 667.5 114 c 0
 667.5 93.3330078125 673.5 73.5 685.5 54.5 c 1
EndSplineSet
EndChar

StartChar: uni31B0
Encoding: 153 12720 153
Width: 1000
VWidth: 924
Flags: HW
LayerCount: 2
Fore
SplineSet
813.5 6.5 m 2
 813.5 -53.5 780.333007812 -83.5 714 -83.5 c 0
 703 -83.5 689 -82.8330078125 672 -81.5 c 1
 653.5 -28.5 l 1
 687.833007812 -29.8330078125 714.166992188 -30.5 732.5 -30.5 c 0
 739.5 -30.5 745.833007812 -27.3330078125 751.5 -21 c 128
 757.166992188 -14.6669921875 760 -8.5 760 -2.5 c 2
 760 391.5 l 1
 533 391.5 l 1
 533 -72.5 l 1
 477.5 -72.5 l 1
 477.5 391.5 l 1
 243 391.5 l 1
 243 -91 l 1
 187.5 -91 l 1
 187.5 445 l 1
 430.5 445 l 1
 400.166992188 501.333007812 340 569.833007812 250 650.5 c 1
 291 682.5 l 1
 373.666992188 613.833007812 436.166992188 543.833007812 478.5 472.5 c 1
 439.5 445 l 1
 549 445 l 1
 520.5 472.5 l 1
 589.833007812 524.5 651 595.166992188 704 684.5 c 1
 750 656.5 l 1
 697.666992188 567.833007812 638.5 497.333007812 572.5 445 c 1
 813.5 445 l 1
 813.5 6.5 l 2
EndSplineSet
EndChar

StartChar: uni31B1
Encoding: 154 12721 154
Width: 1000
VWidth: 924
Flags: HW
LayerCount: 2
Fore
SplineSet
899.5 607.5 m 1
 559.5 607.5 l 1
 559.5 497 l 1
 829.5 497 l 1
 829.5 -8 l 2
 829.5 -29 823.416992188 -46.1669921875 811.25 -59.5 c 128
 799.083007812 -72.8330078125 782 -79.6669921875 760 -80 c 128
 738 -80.3330078125 704.166992188 -80.5 658.5 -80.5 c 1
 642.5 -27.5 l 1
 665.5 -28.5 685.666992188 -29 703 -29 c 0
 736 -29 756.166992188 -27.25 763.5 -23.75 c 128
 770.833007812 -20.25 774.5 -12.8330078125 774.5 -1.5 c 2
 774.5 443.5 l 1
 559.5 443.5 l 1
 559.5 327 l 1
 540.833007812 329 523.166992188 330 506.5 330 c 0
 405.5 330 355 288.833007812 355 206.5 c 0
 355 165.833007812 367.833007812 132.5 393.5 106.5 c 128
 419.166992188 80.5 453 67.5 495 67.5 c 0
 568.666992188 67.5 627 105.5 670 181.5 c 1
 712 152 l 1
 658.666992188 62.3330078125 586.5 17.5 495.5 17.5 c 0
 440.166992188 17.5 394.416992188 35.25 358.25 70.75 c 128
 322.083007812 106.25 304 151.833007812 304 207.5 c 0
 304 319.5 370.666992188 377.166992188 504 380.5 c 1
 504 443.5 l 1
 238 443.5 l 1
 238 -77.5 l 1
 182.5 -76.5 l 1
 182.5 497 l 1
 504 497 l 1
 504 607.5 l 1
 115 607.5 l 1
 115 661 l 1
 899.5 661 l 1
 899.5 607.5 l 1
EndSplineSet
EndChar

StartChar: uni31B2
Encoding: 155 12722 155
Width: 1000
VWidth: 924
Flags: HW
LayerCount: 2
Fore
SplineSet
866.5 557.5 m 1
 530.5 557.5 l 1
 530.5 40.5 l 1
 858.5 40.5 l 1
 858.5 -13 l 1
 151 -13 l 1
 151 40.5 l 1
 475.5 40.5 l 1
 475.5 557.5 l 1
 136.5 557.5 l 1
 136.5 610.5 l 1
 866.5 610.5 l 1
 866.5 557.5 l 1
EndSplineSet
EndChar

StartChar: uni31B3
Encoding: 156 12723 156
Width: 1000
VWidth: 924
Flags: HW
LayerCount: 2
Fore
SplineSet
531 -76.5 m 1
 475 -76.5 l 1
 475 -43.5 l 1
 458 -56.1669921875 438.666992188 -62.5 417 -62.5 c 0
 387.333007812 -62.5 362 -52.0830078125 341 -31.25 c 128
 320 -10.4169921875 309.5 14.5 309.5 43.5 c 0
 309.5 70.5 319.5 94.75 339.5 116.25 c 128
 359.5 137.75 384.5 148.5 414.5 148.5 c 0
 437.166992188 148.5 457.333007812 141.833007812 475 128.5 c 1
 475 664 l 1
 531 664 l 1
 531 -76.5 l 1
417.5 -6.5 m 0
 431.5 -6.5 443.333007812 -1.25 453 9.25 c 128
 462.666992188 19.75 467.5 31.8330078125 467.5 45.5 c 0
 467.5 56.8330078125 462.5 68 452.5 79 c 128
 442.5 90 430 95.5 415 95.5 c 0
 401 95.5 389.083007812 90.6669921875 379.25 81 c 128
 369.416992188 71.3330078125 364.5 59 364.5 44 c 256
 364.5 29 369.916992188 16.8330078125 380.75 7.5 c 128
 391.583007812 -1.8330078125 403.833007812 -6.5 417.5 -6.5 c 0
EndSplineSet
EndChar

StartChar: uni31B4
Encoding: 157 12724 157
Width: 1000
VWidth: 924
Flags: HW
LayerCount: 2
Fore
SplineSet
452 215.5 m 1
 452 83.5 444.666992188 2.4169921875 430 -27.75 c 128
 415.333007812 -57.9169921875 388 -73 348 -73 c 0
 324.333007812 -73 297.833007812 -69.3330078125 268.5 -62 c 1
 260.5 -7 l 1
 291.166992188 -16 318.333007812 -20.5 342 -20.5 c 0
 361.333007812 -20.5 373.25 -17.8330078125 377.75 -12.5 c 128
 382.25 -7.1669921875 386.5 13.3330078125 390.5 49 c 128
 394.5 84.6669921875 396.5 122.333007812 396.5 162 c 1
 133.5 162 l 1
 147.833007812 204.666992188 162.166992188 254.833007812 176.5 312.5 c 1
 227.5 299.5 l 1
 223.5 276.833007812 216.333007812 248.833007812 206 215.5 c 1
 452 215.5 l 1
EndSplineSet
EndChar

StartChar: uni31B5
Encoding: 158 12725 158
Width: 1000
VWidth: 924
Flags: HW
LayerCount: 2
Fore
SplineSet
457 204 m 1
 457 85.6669921875 450.416992188 10 437.25 -23 c 128
 424.083007812 -56 398.166992188 -72.5 359.5 -72.5 c 0
 341.833007812 -72.5 322.833007812 -70 302.5 -65 c 1
 290 -11 l 1
 313.333007812 -17.6669921875 334 -21 352 -21 c 0
 369 -21 380 -17.6669921875 385 -11 c 128
 390 -4.3330078125 394.916992188 16.5 399.75 51.5 c 128
 404.583007812 86.5 407 119.666992188 407 151 c 1
 320 151 l 1
 313 51 253.166992188 -23.5 140.5 -72.5 c 1
 108 -31.5 l 1
 210.333007812 16.5 263.5 77.3330078125 267.5 151 c 1
 136.5 151 l 1
 156.833007812 194 175 243.5 191 299.5 c 1
 238 281 l 1
 235.333007812 268.333007812 227.833007812 242.666992188 215.5 204 c 1
 457 204 l 1
EndSplineSet
EndChar

StartChar: uni31B6
Encoding: 159 12726 159
Width: 1000
VWidth: 924
Flags: HW
LayerCount: 2
Fore
SplineSet
469.5 177.5 m 1
 267.5 177.5 l 1
 249 111 l 1
 418 111 l 1
 416 59.6669921875 411.75 17 405.25 -17 c 128
 398.75 -51 391.25 -73.5 382.75 -84.5 c 128
 374.25 -95.5 362.666992188 -103.416992188 348 -108.25 c 128
 333.333007812 -113.083007812 303.5 -115.5 258.5 -115.5 c 1
 239 -60 l 1
 257.333007812 -61.3330078125 273.833007812 -62 288.5 -62 c 0
 314.5 -62 330.583007812 -59.4169921875 336.75 -54.25 c 128
 342.916992188 -49.0830078125 347.666992188 -38.1669921875 351 -21.5 c 128
 354.333007812 -4.8330078125 357.5 21.5 360.5 57.5 c 1
 181.5 57.5 l 1
 211 177.5 l 1
 101.5 177.5 l 1
 101.5 231 l 1
 469.5 231 l 1
 469.5 177.5 l 1
EndSplineSet
EndChar

StartChar: uni31B7
Encoding: 160 12727 160
Width: 1000
VWidth: 924
Flags: HW
LayerCount: 2
Fore
SplineSet
458 171.5 m 1
 197 171.5 l 1
 196.333007812 31.1669921875 171.666992188 -71 123 -135 c 1
 80 -103 l 1
 123 -42.3330078125 143.5 49.1669921875 141.5 171.5 c 1
 115 171.5 l 1
 115 225.5 l 1
 458 225.5 l 1
 458 171.5 l 1
EndSplineSet
EndChar

StartChar: uni3105.initial
Encoding: 164 -1 164
Width: 500
VWidth: 924
Flags: HW
LayerCount: 2
Fore
SplineSet
489.900390625 491 m 1
 489.100585938 392 487.450195312 301.583007812 484.950195312 219.75 c 128
 482.450195312 137.916992188 479.25 77.3330078125 475.349609375 38 c 128
 471.450195312 -1.3330078125 465.599609375 -28.25 457.799804688 -42.75 c 128
 450 -57.25 440.75 -67.4169921875 430.049804688 -73.25 c 128
 419.350585938 -79.0830078125 395.200195312 -82 357.599609375 -82 c 0
 335.799804688 -82 315.599609375 -81.1669921875 297 -79.5 c 1
 285.900390625 -25 l 1
 330.299804688 -28 369.599609375 -29.5 403.799804688 -29.5 c 0
 412.600585938 -29.5 420.549804688 -24.5 427.650390625 -14.5 c 128
 434.75 -4.5 439.299804688 8.8330078125 441.299804688 25.5 c 128
 443.299804688 42.1669921875 446.149414062 92.4169921875 449.849609375 176.25 c 128
 453.549804688 260.083007812 455.799804688 347.166992188 456.599609375 437.5 c 1
 128.099609375 437.5 l 1
 128.099609375 491 l 1
 148.900390625 548.333007812 168.5 614.5 186.900390625 689.5 c 1
 219.599609375 670 l 1
 200.200195312 602.333007812 181.700195312 542.666992188 164.099609375 491 c 1
 489.900390625 491 l 1
EndSplineSet
EndChar

StartChar: uni3106.initial
Encoding: 165 -1 165
Width: 500
VWidth: 924
Flags: HW
LayerCount: 2
Fore
SplineSet
499.200195312 2.5 m 1
 480 -41.5 l 1
 433.200195312 16.8330078125 389.799804688 67.6669921875 349.799804688 111 c 1
 292.200195312 22.6669921875 213.799804688 -42.5 114.599609375 -84.5 c 1
 98.400390625 -36.5 l 1
 192.799804688 1.1669921875 267 60.1669921875 321 140.5 c 1
 271.600585938 190.5 223.399414062 231.833007812 176.400390625 264.5 c 1
 194.400390625 308.5 l 1
 249 269.5 298.700195312 226.5 343.5 179.5 c 1
 376.299804688 237.5 406.399414062 319.833007812 433.799804688 426.5 c 1
 156.299804688 426.5 l 1
 156.299804688 479.5 l 1
 186.5 547.166992188 212.700195312 613 234.900390625 677 c 1
 263.700195312 653.5 l 1
 240.700195312 589.833007812 217.799804688 531.833007812 195 479.5 c 1
 468.299804688 479.5 l 1
 468.299804688 426.5 l 1
 439.900390625 312.166992188 408.200195312 220 373.200195312 150 c 1
 419.400390625 98.6669921875 461.400390625 49.5 499.200195312 2.5 c 1
EndSplineSet
EndChar

StartChar: uni3107.initial
Encoding: 166 -1 166
Width: 500
VWidth: 924
Flags: HW
LayerCount: 2
Fore
SplineSet
486.299804688 -6 m 1
 453 -6 l 1
 453 525.5 l 1
 142.200195312 525.5 l 1
 142.200195312 -6 l 1
 108.900390625 -6 l 1
 108.900390625 579 l 1
 486.299804688 579 l 1
 486.299804688 -6 l 1
EndSplineSet
EndChar

StartChar: uni3108.initial
Encoding: 167 -1 167
Width: 500
VWidth: 924
Flags: HW
LayerCount: 2
Fore
SplineSet
498.599609375 593 m 1
 498.599609375 540 l 1
 169.200195312 540 l 1
 169.200195312 77 l 2
 169.200195312 68.6669921875 171.900390625 61.1669921875 177.299804688 54.5 c 128
 182.700195312 47.8330078125 188.400390625 44.5 194.400390625 44.5 c 2
 494.700195312 44.5 l 1
 494.700195312 -8 l 1
 194.400390625 -8 l 2
 155.400390625 -8 135.900390625 22.8330078125 135.900390625 84.5 c 2
 135.900390625 540 l 1
 109.5 540 l 1
 109.5 593 l 1
 498.599609375 593 l 1
EndSplineSet
EndChar

StartChar: uni310A.initial
Encoding: 168 -1 168
Width: 500
VWidth: 924
Flags: HW
LayerCount: 2
Fore
SplineSet
484.799804688 492 m 1
 484.799804688 363 482.450195312 253.583007812 477.75 163.75 c 128
 473.049804688 73.9169921875 467.350585938 17.6669921875 460.650390625 -5 c 128
 453.950195312 -27.6669921875 444.700195312 -44.6669921875 432.900390625 -56 c 128
 421.099609375 -67.3330078125 404.599609375 -73 383.400390625 -73 c 0
 352.399414062 -73 320.700195312 -62.5 288.299804688 -41.5 c 1
 290.700195312 10.5 l 1
 327.700195312 -8.8330078125 359.599609375 -18.5 386.400390625 -18.5 c 0
 403.200195312 -18.5 415.349609375 -11.1669921875 422.849609375 3.5 c 128
 430.349609375 18.1669921875 436.900390625 59.9169921875 442.5 128.75 c 128
 448.099609375 197.583007812 451.200195312 300.833007812 451.799804688 438.5 c 1
 319.799804688 438.5 l 1
 310.200195312 215.5 243.400390625 48.3330078125 119.400390625 -63 c 1
 99.599609375 -18 l 1
 217.600585938 87 279.5 239.166992188 285.299804688 438.5 c 1
 132.299804688 438.5 l 1
 132.299804688 485.5 l 1
 156.5 558.166992188 175.5 624.5 189.299804688 684.5 c 1
 217.799804688 667 l 1
 206.200195312 614 190.399414062 555.666992188 170.400390625 492 c 1
 484.799804688 492 l 1
EndSplineSet
EndChar

StartChar: uni310B.initial
Encoding: 169 -1 169
Width: 500
VWidth: 924
Flags: HW
LayerCount: 2
Fore
SplineSet
519.900390625 430.5 m 1
 310.5 430.5 l 1
 282.100585938 289.5 239.099609375 163.833007812 181.5 53.5 c 1
 265.5 56.5 345.599609375 64 421.799804688 76 c 1
 401.599609375 123.666992188 379.200195312 171.166992188 354.599609375 218.5 c 1
 381 251 l 1
 432.599609375 150.666992188 473.799804688 55.5 504.599609375 -34.5 c 1
 477 -64 l 1
 443.099609375 27 l 1
 349.299804688 12.6669921875 248.400390625 2 140.400390625 -5 c 1
 131.099609375 47.5 l 1
 188.899414062 127.166992188 237 254.833007812 275.400390625 430.5 c 1
 84.2998046875 430.5 l 1
 84.2998046875 483.5 l 1
 284.700195312 483.5 l 1
 284.700195312 674 l 1
 317.099609375 674 l 1
 317.099609375 483.5 l 1
 519.900390625 483.5 l 1
 519.900390625 430.5 l 1
EndSplineSet
EndChar

StartChar: uni310C.initial
Encoding: 170 -1 170
Width: 500
VWidth: 924
Flags: HW
LayerCount: 2
Fore
SplineSet
516.900390625 388.5 m 1
 515.700195312 304.5 511 216.666992188 502.799804688 125 c 128
 494.599609375 33.3330078125 484.25 -21.0830078125 471.75 -38.25 c 128
 459.25 -55.4169921875 444.799804688 -64 428.400390625 -64 c 0
 393 -64 360.799804688 -56.5 331.799804688 -41.5 c 1
 331.799804688 14.5 l 1
 361.200195312 -2.5 389.299804688 -11 416.099609375 -11 c 0
 432.299804688 -11 443.650390625 -5.0830078125 450.150390625 6.75 c 128
 456.649414062 18.5830078125 463.549804688 58.9169921875 470.849609375 127.75 c 128
 478.150390625 196.583007812 482 265.666992188 482.400390625 335 c 1
 294 335 l 1
 294 382.5 l 1
 316.600585938 454.5 337 525.166992188 355.200195312 594.5 c 1
 138.900390625 594.5 l 1
 138.900390625 647.5 l 1
 392.099609375 647.5 l 1
 392.099609375 599.5 l 1
 376.5 538.833007812 357.100585938 468.5 333.900390625 388.5 c 1
 516.900390625 388.5 l 1
EndSplineSet
EndChar

StartChar: uni310D.initial
Encoding: 171 -1 171
Width: 500
VWidth: 924
Flags: HW
LayerCount: 2
Fore
SplineSet
480 463 m 1
 480 357 476.700195312 257.333007812 470.099609375 164 c 128
 463.5 70.6669921875 456.850585938 12.75 450.150390625 -9.75 c 128
 443.450195312 -32.25 433.75 -49.5 421.049804688 -61.5 c 128
 408.349609375 -73.5 389.700195312 -79.5 365.099609375 -79.5 c 0
 340.299804688 -79.5 313.099609375 -73 283.5 -60 c 1
 285.900390625 -8 l 1
 317.700195312 -20.6669921875 344.299804688 -27 365.700195312 -27 c 0
 387.299804688 -27 402.599609375 -19.75 411.599609375 -5.25 c 128
 420.599609375 9.25 428.700195312 60.4169921875 435.900390625 148.25 c 128
 443.099609375 236.083007812 446.700195312 323.333007812 446.700195312 410 c 1
 318.299804688 410 l 1
 296.700195312 201.333007812 226.099609375 39.5 106.5 -75.5 c 1
 84.900390625 -32.5 l 1
 196.099609375 72.5 263.099609375 220 285.900390625 410 c 1
 123.599609375 410 l 1
 123.599609375 468.5 l 1
 136.799804688 525.5 148.900390625 591 159.900390625 665 c 1
 189.900390625 653.5 l 1
 182.899414062 598.833007812 171.900390625 535.333007812 156.900390625 463 c 1
 290.700195312 463 l 1
 296.700195312 539.666992188 300 612.166992188 300.599609375 680.5 c 1
 332.700195312 677 l 1
 332.700195312 616.333007812 329.400390625 545 322.799804688 463 c 1
 480 463 l 1
EndSplineSet
EndChar

